<svg xmlns="http://www.w3.org/2000/svg" viewBox="73.25 0 1378.32 2037.35"><metadata xmlns:fl="https://football-logos.cc/venezuela/deportivo-tachira">dl1_c8969bd3876182351043c24b2961c9f8c2f602b1322d6643b3474c851a46508e</metadata><!-- Source: https://football-logos.cc --><path fill="#080a0a" fill-rule="evenodd" d="M804.92 0q28.34 7.38 51.92 24.68a1.388 1.371 54.18 0 0 1.19.2c2.35-.69 4.77-1.67 7.23-2.34 29.44-8.03 61.11-7.74 90.07 2.27q33.25 11.49 58.81 35.4c6.14 5.74 11.15 11.78 16.91 18.67a2.956 2.94-20.113 0 0 2.28 1.05c25.68-.12 53.2 7.01 75.48 19.5q52.3 29.29 72.86 85.08a1.989 1.958 1.209 0 0 1.13 1.16q2.54 1.01 10.63 4.19 39.15 15.36 65.48 48.98 5.1 6.5 11.75 17.73 10.78 18.19 15.9 38.1c3.15 12.27 5.23 24.38 4.91 37.08a2.186 2.175 17.844 0 0 .96 1.86q44.98 30.34 62.74 81.93 13.92 40.43 4.29 81.97-1.14 4.93-2.92 11.68a1.18 1.169 34.863 0 0 .18.98q9.02 13.01 11.17 16.71 17.49 30.23 20.79 64.38c2.2 22.82-.92 47.84-9.99 69.59a1.357 1.349-54.088 0 0 .22 1.4q1.34 1.58 3.08 3.26c24.64 23.92 50.54 50.28 67.76 67.05q1.83 1.78 1.82 4.18c-.26 122.77-.18 232.99-.01 327.76q.02 11.74-.22 17.25-1.93 43.66-7.58 85.07-6.54 48.02-18.87 101.07-1.11 4.77-8.01 30.43c-12.11 45.04-27.54 89.33-45.08 131.76q-2.46 5.96-9.26 21.86-5.64 13.18-9.63 21.72-40.23 86.06-92.62 161.41-20.38 29.32-50.69 67.54-1.9 2.39-21.26 25.56-11.17 13.36-22.02 24.9-20.26 21.54-38.23 39.75c-3.96 4.01-8.23 7.85-12.27 11.76-30.36 29.39-62.09 56.59-98.1 84.38q-55.22 42.61-114.1 78.14-26.35 15.9-62.66 35.01c-14.07 7.41-31.79 15.55-47.79 23.04q-18.34 8.59-26.82 11.65c-3.52 1.26-7.27.19-10.98-1.39-9.52-4.04-17.73-7.28-25.96-11.24q-41.5-19.93-50.1-24.5-49.19-26.11-94.89-55.84c-2.27-1.47-4.93-3.65-7.41-5.23q-22.77-14.56-43.4-29.96-7.34-5.48-18.73-13.93c-13.74-10.18-23.29-18.06-37.85-29.75q-11.44-9.18-28.56-24.21-56.54-49.65-104.32-104.21c-8.57-9.79-18.87-22.36-26.18-31.07q-6.39-7.63-10.21-12.53-40.96-52.65-68.64-96.35-9.89-15.61-25.84-43.1c-24.21-41.72-44.49-84.74-62.97-129.77-5.82-14.18-13.15-33.89-16.96-44.59q-26.24-73.68-40.52-143.39-5.9-28.81-12.18-73.01-7.4-52.16-7.38-106.98.09-194.12-.02-321.19a.684.675-22.789 0 1 .2-.48l72.45-71.61a1.139 1.123-32.535 0 0 .27-1.18q-8.85-24.32-10.56-50.62c-.42-6.51-.2-15.05 1-22.42q2.21-13.67 2.85-16.53 3.94-17.62 12.37-35.5 2.35-4.97 5.25-9.7c4.73-7.7 6.9-11.39 11-15.89a1.395 1.371 59.118 0 0 .31-1.28c-3.02-11.62-5.76-24.71-6.31-36.44q-.76-15.88.71-28.17c2.64-22.01 10.69-43.07 22.48-62.23q18.39-29.89 47.34-49.1a.97.963-16.089 0 0 .44-.79q.62-18.8 5.39-37.66 2.56-10.12 5.46-17.03 7.81-18.62 18.35-33.41 29.75-41.73 78.16-57.73a4.064 4.051-.739 0 0 2.62-2.68q1.38-4.61 3.46-9.13Q353.94 158.82 365 144q10.99-14.73 25.16-26.64 43.57-36.64 101.54-37.34a2.516 2.479 17.893 0 0 1.95-.98q6.44-8.39 14.56-16.62c15.36-15.54 34.17-27.11 54.38-35.18q19.38-7.75 41.68-9.72 33.29-2.94 65.13 8.11a1.171 1.159 36.183 0 0 1.07-.16Q695.31 7.04 724.38 0zM271.26 664.96q-.46.95-2.27 2.78c-33.11 33.59-81.62 81.05-111.37 110.7a4.444 4.429 67.678 0 0-1.31 3.15q.01 10.83.05 260.91.01 36.96.58 53.5c.97 27.65 3.91 60.64 8.9 92.06q5.43 34.21 7.13 42.5c6.49 31.55 13.51 61.89 22.69 92.24q20.27 67.05 49.31 130.99 17.22 37.91 36.9 72.35 20.84 36.47 38.09 62.18 17.16 25.56 32.87 46.41 32.54 43.19 70.35 83.12 27.59 29.15 52.2 51.77 19.34 17.77 28.06 25.18 22.77 19.37 52.95 41.95c12.71 9.5 25.96 18.18 39.3 27.65q13.43 9.54 30.24 19.87 21.48 13.21 43.09 25.41 23.13 13.06 32.46 17.59c19.87 9.66 39.42 19.86 60.54 28.85a1.25 1.234 44.045 0 0 .99-.01q26.43-11.86 31.98-14.63 5.38-2.69 33.26-16.77c19.53-9.86 32.04-17.37 55.23-30.86q14.06-8.17 33.41-20.95 51.84-34.23 97.86-72.39 12.2-10.12 41.18-36.57 17.35-15.84 34.31-33.72 22.75-23.99 32.71-35.26 26.01-29.44 42.85-51.89 19.46-25.96 25.77-34.99 37.8-54.15 69.02-113.97 14.34-27.49 27.42-58.32c12.71-29.97 23.81-58.52 33.78-88.87q6.17-18.76 15.37-52.34 5.97-21.77 10.24-42.42 6.29-30.47 8.43-42.85 8.41-48.8 11.67-100.65 1.52-24.22 1.33-68.35-.19-43.76-.09-259.65a1.812 1.801-67.892 0 0-.54-1.29l-114.94-113.61a.653.647-34.055 0 1 .21-1.06q15.22-6.37 25.98-18.32 16.01-17.77 16.06-42.35.03-12.63-5.25-24.03-10.33-22.28-32.79-31.98-4.04-1.75-5.13-2.27a1.002.978 10.018 0 1-.56-.78q-1.65-14.73-5.72-30.98a1.33 1.329-27.355 0 1 .43-1.35q20.03-17.04 22.77-43.54c3.63-35.14-26.58-68.17-61.95-66.89a1.478 1.471 76.009 0 1-1.39-.84q-8.45-17.74-17.49-32.05a1.74 1.74-43.233 0 1 .06-1.94c5.14-7.26 7.66-16.08 8.91-25.02q3-21.52-8.51-40.48-6.52-10.74-17.01-17.95-25.01-17.18-54.29-8.5a2.035 2.015 60.36 0 1-2.07-.58q-10.23-11.16-21.62-20.83a1.427 1.417-59.319 0 1-.4-1.59q1.32-3.41 1.75-7.47 2.83-26.59-11.69-45.97-7.72-10.31-17.35-16.02-10.71-6.36-22.12-8.58c-9.82-1.91-20.72-.04-30.01 2.61q-8.5 2.41-15.25 7.92a1.709 1.689-49.773 0 1-1.9.17q-12.66-7.04-26.08-13.17-2.03-.93-2.15-3.4c-1.11-22.73-16.24-43.04-36.25-52.24-18.62-8.55-37.66-7.98-55.93 1.28-7.22 3.66-13.25 9.41-18.98 15.74q-1.46 1.62-3.85 1.09-15.77-3.53-30.16-5.27a1.25 1.25 84.902 0 1-1.04-.87c-1.27-4.02-2.73-6.55-5.13-10.65q-11.61-19.77-32.3-26.67c-20.04-6.69-41.99-2.49-58.68 10.28-4.58 3.5-7.16 6.77-10.38 11.3q-5.94 8.35-9.16 15.01a1.294 1.279-80.169 0 1-1.01.72q-16.18 1.92-36.55 6.45a2.368 2.363-25.159 0 1-2.39-.86q-18.02-23.18-48.18-23.54-13.19-.15-24.69 5.29-33.8 16-38.48 54.05a1.689 1.674-22.49 0 1-.34.81q-1.18 1.5-2.92 2.13-12.5 4.49-23.74 11.93a2.516 2.507-44.491 0 1-2.8-.02c-14.68-9.96-32.51-13.28-49.75-8.95q-9.62 2.41-20.14 9.3c-7.68 5.03-14.08 13.06-18.86 20.9-4.95 8.11-7.73 18.43-8.06 27.53q-.25 6.74 1.66 19.06a.875.858 63.315 0 1-.24.75l-21.43 21.68a2.46 2.45-58.974 0 1-2.47.62c-23.46-7.35-46.23.09-63.75 17.28-4.33 4.24-7.96 11.19-10.09 15.47-9.5 19.06-7.55 41.25 3.62 59.16a1.53 1.53 46.053 0 1-.03 1.66q-10.25 15.46-17.95 31.91a1.904 1.883-77.97 0 1-1.66 1.09q-20.1.6-35.7 12.13-17.04 12.59-23 31.82c-5.46 17.6-2.15 39.14 8.88 54.1q5.19 7.03 11.6 12.84a1.014 1.012 24.266 0 1 .33.87q-.23 1.75-.85 4.13-3.66 14.16-5.41 27.19a1.815 1.79-6.172 0 1-1.2 1.47q-15.28 5.39-26.67 18.17-16.48 18.49-15.22 43.4 1.21 24.04 18.56 41.08 10.56 10.36 23.06 15.1a.532.522 23.634 0 1 .29.72" data-source="https://football-logos.cc"></path><path fill="#fff" fill-rule="evenodd" d="M270.97 664.24q-12.5-4.74-23.06-15.1-17.35-17.04-18.56-41.08-1.26-24.91 15.22-43.4 11.39-12.78 26.67-18.17a1.815 1.79-6.172 0 0 1.2-1.47q1.75-13.03 5.41-27.19.62-2.38.85-4.13a1.014 1.012 24.266 0 0-.33-.87q-6.41-5.81-11.6-12.84c-11.03-14.96-14.34-36.5-8.88-54.1q5.96-19.23 23-31.82 15.6-11.53 35.7-12.13a1.904 1.883-77.97 0 0 1.66-1.09q7.7-16.45 17.95-31.91a1.53 1.53 46.053 0 0 .03-1.66c-11.17-17.91-13.12-40.1-3.62-59.16 2.13-4.28 5.76-11.23 10.09-15.47 17.52-17.19 40.29-24.63 63.75-17.28a2.46 2.45-58.974 0 0 2.47-.62l21.43-21.68a.875.858 63.315 0 0 .24-.75q-1.91-12.32-1.66-19.06c.33-9.1 3.11-19.42 8.06-27.53 4.78-7.84 11.18-15.87 18.86-20.9q10.52-6.89 20.14-9.3c17.24-4.33 35.07-1.01 49.75 8.95a2.516 2.507-44.491 0 0 2.8.02q11.24-7.44 23.74-11.93 1.74-.63 2.92-2.13a1.689 1.674-22.49 0 0 .34-.81q4.68-38.05 38.48-54.05 11.5-5.44 24.69-5.29 30.16.36 48.18 23.54a2.368 2.363-25.159 0 0 2.39.86q20.37-4.53 36.55-6.45a1.294 1.279-80.169 0 0 1.01-.72q3.22-6.66 9.16-15.01c3.22-4.53 5.8-7.8 10.38-11.3 16.69-12.77 38.64-16.97 58.68-10.28q20.69 6.9 32.3 26.67c2.4 4.1 3.86 6.63 5.13 10.65a1.25 1.25 84.902 0 0 1.04.87q14.39 1.74 30.16 5.27 2.39.53 3.85-1.09c5.73-6.33 11.76-12.08 18.98-15.74 18.27-9.26 37.31-9.83 55.93-1.28 20.01 9.2 35.14 29.51 36.25 52.24q.12 2.47 2.15 3.4 13.42 6.13 26.08 13.17a1.709 1.689-49.773 0 0 1.9-.17q6.75-5.51 15.25-7.92c9.29-2.65 20.19-4.52 30.01-2.61q11.41 2.22 22.12 8.58 9.63 5.71 17.35 16.02 14.52 19.38 11.69 45.97-.43 4.06-1.75 7.47a1.427 1.417-59.319 0 0 .4 1.59q11.39 9.67 21.62 20.83a2.035 2.015 60.36 0 0 2.07.58q29.28-8.68 54.29 8.5 10.49 7.21 17.01 17.95 11.51 18.96 8.51 40.48c-1.25 8.94-3.77 17.76-8.91 25.02a1.74 1.74-43.233 0 0-.06 1.94q9.04 14.31 17.49 32.05a1.478 1.471 76.009 0 0 1.39.84c35.37-1.28 65.58 31.75 61.95 66.89q-2.74 26.5-22.77 43.54a1.33 1.329-27.355 0 0-.43 1.35q4.07 16.25 5.72 30.98a1.002.978 10.018 0 0 .56.78q1.09.52 5.13 2.27 22.46 9.7 32.79 31.98 5.28 11.4 5.25 24.03-.05 24.58-16.06 42.35-10.76 11.95-25.98 18.32a.653.647-34.055 0 0-.21 1.06l114.94 113.61a1.812 1.801-67.892 0 1 .54 1.29q-.1 215.89.09 259.65.19 44.13-1.33 68.35-3.26 51.85-11.67 100.65-2.14 12.38-8.43 42.85-4.27 20.65-10.24 42.42-9.2 33.58-15.37 52.34c-9.97 30.35-21.07 58.9-33.78 88.87q-13.08 30.83-27.42 58.32-31.22 59.82-69.02 113.97-6.31 9.03-25.77 34.99-16.84 22.45-42.85 51.89-9.96 11.27-32.71 35.26-16.96 17.88-34.31 33.72-28.98 26.45-41.18 36.57-46.02 38.16-97.86 72.39-19.35 12.78-33.41 20.95c-23.19 13.49-35.7 21-55.23 30.86q-27.88 14.08-33.26 16.77-5.55 2.77-31.98 14.63a1.25 1.234 44.045 0 1-.99.01c-21.12-8.99-40.67-19.19-60.54-28.85q-9.33-4.53-32.46-17.59-21.61-12.2-43.09-25.41-16.81-10.33-30.24-19.87c-13.34-9.47-26.59-18.15-39.3-27.65q-30.18-22.58-52.95-41.95-8.72-7.41-28.06-25.18-24.61-22.62-52.2-51.77-37.81-39.93-70.35-83.12-15.71-20.85-32.87-46.41-17.25-25.71-38.09-62.18-19.68-34.44-36.9-72.35-29.04-63.94-49.31-130.99c-9.18-30.35-16.2-60.69-22.69-92.24q-1.7-8.29-7.13-42.5c-4.99-31.42-7.93-64.41-8.9-92.06q-.57-16.54-.58-53.5-.04-250.08-.05-260.91a4.444 4.429 67.678 0 1 1.31-3.15c29.75-29.65 78.26-77.11 111.37-110.7q1.81-1.83 2.27-2.78a.532.522 23.634 0 0-.29-.72M784.9 178.77q-6.65-13.1-15.31-32.03-1.42-3.09-4.78-3.23a1.583 1.519-61.006 0 0-.97.3q-2.31 1.74-2.96 3.09-5.56 11.61-16.14 30.27a2.126 2.122-77.659 0 1-1.65 1.06q-12.49 1.18-33.6 4.03c-2.93.39-5.89 3.61-4.38 6.82q.91 1.96 2.2 3.26 19 19.21 22.21 22.35a2.217 2.141 14.76 0 1 .57.94q.54 1.72-.01 4.42-2.13 10.35-5.78 27.22-.82 3.78-.47 5.98c.63 4.01 5.26 3.61 8.01 2.33q14.32-6.68 27.15-13.49 3.49-1.85 7.19.41 1.26.77 27.06 15c4.75 2.62 8.04-.82 7.39-5.57-1.75-12.91-3.71-22.98-4.99-33.34a1.92 1.895 65.475 0 1 .6-1.64q13.88-12.88 25.15-23.76c2.89-2.79 2.05-7.37-2.16-8.18q-19.19-3.71-33.66-5.75a.907.897 80.859 0 1-.67-.49m-114.27 45.87q.43-1.56 1.03-2.73 2.5-4.86 14.47-27.56.57-1.08.53-3.23c-.05-3.32-2.92-4.32-5.91-3.94q-16.07 2.03-32.72 5.5a2.915 2.901 61.545 0 1-2.67-.8q-13.67-13.87-24.06-23.92c-3.93-3.8-7.63-.61-8.39 3.76q-1.17 6.76-5.14 32.75a2.621 2.615-8.614 0 1-1.44 1.95q-15.62 7.57-28.33 15.31c-2.59 1.58-6.15 4.62-3.46 7.64q.79.88 3.85 2.48 13.6 7.07 28.18 13.56c1.97.88 2.29 1.55 2.63 3.62q1.31 7.91 4.53 28.22c.35 2.17.81 6.48 3.13 7.64q3 1.49 5.79-.99 4.48-3.99 20.64-21.36 1.71-1.83 3.79-3.33a2.494 2.467 30.123 0 1 1.77-.46q20.59 2.34 33.64 4.47c4.42.72 7.32-3.76 5.14-7.48q-7.32-12.47-16.85-29.81a1.73 1.693 38.989 0 1-.15-1.29m245.8 22.07q.66-.54 1.22-.81 6.71-3.17 28.29-13.48c2.21-1.05 5.74-3.1 5.03-5.98q-.58-2.32-3-3.7-13.87-7.93-28.9-15.76-2.22-1.15-2.65-3.44-2.44-13.19-4.54-30.15-.16-1.33-1.3-4.65a2.068 1.999 10.787 0 0-.67-.95q-2.75-2.22-5.99-.03-2.91 1.97-8.76 8.16-7.4 7.82-14.26 14.79c-2.41 2.46-3.74 2.36-7.03 1.65q-12.85-2.76-31.11-5.62-1.3-.21-3.7 1.39c-2.3 1.53-1.77 5.24-.78 7.09q11.11 20.75 14.66 27.65c.97 1.87 1.27 2.9.2 4.75q-7.72 13.29-15.66 27.6c-1.28 2.31-1.48 5.6 1.12 7.18q1 .61 3.63.42c7.25-.5 17.02-2.03 32.87-4.19a3.969 3.944-24.494 0 1 3.51 1.3q10.24 11.59 21.85 23.11 1.94 1.93 3.13 2.49c2.98 1.39 6.14-1.13 6.58-3.85q4.01-25.09 5.09-32.9a3.263 3.226 74.8 0 1 1.17-2.07m51.52 24.62q-2.83 3.27-7.88 8c-6.01 5.64-12.38 12.56-16.43 17.06-2.3 2.54-2.34 7.19 1.78 8.2q3.52.87 9.9 1.8 5.51.8 23.98 3.27a3.265 3.255 80.625 0 1 2.49 1.79q7.94 16.16 14.98 29.76c1.42 2.74 4.8 4.81 7.52 2.3q1.74-1.61 2.12-2.38 5.19-10.66 9.45-19.32c1.67-3.39 3.05-7.75 4.85-10.91a2.514 2.416 88.87 0 1 .73-.79q.98-.68 3.61-1.06 8.01-1.14 30.22-4.56c8.12-1.25 5.38-7.49 1.4-11.4q-12.47-12.24-22.66-21.73a2.068 2.053 26.865 0 1-.62-1.87q3.59-19.3 5.58-32.9c.71-4.8-3.31-7.38-7.45-5.34q-16.79 8.31-29.68 15.62a1.932 1.9-54.511 0 1-1.25.22q-1.64-.28-3.79-1.39-12.8-6.58-24.35-12.4-2.16-1.09-6.53-2.27a1.874 1.856-45.281 0 0-1.02.01c-3.12.93-3.24 3.86-2.72 6.93q2.34 13.96 6.01 32.45a1.06 1.036-30.888 0 1-.24.91m-412.16-1.02q3.43-16.95 6.48-33.72.45-2.46-1.96-4.82c-1.15-1.12-3.41-.85-4.56-.31q-13.65 6.42-30.9 15.51a2.991 2.983-44.316 0 1-2.82-.03q-13.74-7.62-28.89-15.08-3.23-1.59-4.42-1.17-4.23 1.48-3.61 6.25c1.78 13.92 2.34 22.08 5.38 32.37a1.764 1.76 59.722 0 1-.46 1.76q-15.94 15.57-23.43 23.51-2.71 2.86-2.4 6.46a1.264 1.244-73.598 0 0 .46.86c2.59 2.05 6.77 2.72 9.55 3.17q11.42 1.83 23.51 3.74 1.9.3 4.36 1.01a3.025 3.011-4.419 0 1 1.9 1.62q13.02 27.7 14.43 30.6 1.14 2.36 4.99 3.08a1.708 1.69-53.206 0 0 1.07-.16q2.32-1.21 3.13-2.88 5.18-10.73 10.54-21.19c1.18-2.31 2.41-5.07 3.44-7.67q1.32-3.36 4.43-3.77 20.5-2.72 30.72-4.24c10.54-1.57 5.01-8.73.83-12.75q-9.56-9.2-21.45-21.07a1.194 1.179-61.873 0 1-.32-1.08m571.06 96.98q7.09-16.26 13.84-28.83c2.77-5.18 1.28-11-5.68-9.62q-20.71 4.1-31.7 6.73a2.947 2.942 58.043 0 1-2.58-.6q-4.18-3.48-5.24-4.56-8.45-8.64-19.99-18.76c-3.58-3.14-7.21-1.95-8.15 2.93q-.84 4.38-1.28 8.68-1.2 11.58-2.77 25.14a2 1.997 78.284 0 1-.97 1.48q-12.37 7.17-26.31 14.63-4.54 2.42-5.63 4.18c-2.52 4.08.72 6.73 4.15 8.29q18.09 8.24 29 13.37a2.877 2.874 7.058 0 1 1.6 2.05q3.34 17.01 6.07 33.37c.78 4.67 5.98 4.84 8.84 1.78q16.44-17.57 22.66-24.64a2.741 2.705-64.562 0 1 2.48-.9q15.92 2.53 31.18 4.1c2.17.23 5.07.44 6.56-1.38q2.3-2.81.45-6.09-12.31-21.85-15.81-27.97-1.24-2.18-.72-3.38m-728.93.36a1.555 1.541-42.502 0 1-.07 1.45q-10.93 18.38-17.24 29.78c-2.02 3.65.69 7.69 4.9 7.22q6.32-.69 32.48-3.7 3.18-.36 4.37 1.01 12.38 14.29 22.53 24.7c2.51 2.58 7.96 2.29 8.71-2.05q2.88-16.73 5.19-33.13a3.485 3.465-8.602 0 1 1.98-2.67q14.68-6.75 30-13.48c4.93-2.17 7.17-7.03 1.22-10.16q-14.62-7.69-30.46-16.86a2.127 2.104 13.363 0 1-1.06-1.7q-.95-13.68-3.22-32.72c-.73-6.18-5.39-6.63-9.43-2.77q-8.88 8.45-11.27 10.42c-4.39 3.6-8.45 8.28-13.59 12.69a1.597 1.583 32.56 0 1-1.48.32c-10.11-2.96-20.67-4.55-30.94-6.83-3.42-.77-6.99-.76-8.13 3.11-.81 2.78 3.26 10.23 4.29 12.32q8.91 18.17 11.22 23.05m81.76 293.16q-39.48.87-78.68-.02-2.68-.06-3.98 1.23c-22.24 22.08-37.12 36.83-49.13 48.87q-65.69 65.87-107.74 107.63c-3.98 3.95-5.75 5.32-5.68 10.47q.25 18.89.26 38.52.06 66.3-.03 185.98-.03 43.17 1.48 67.01 3.36 53.26 13.65 108.47 6.63 35.61 15.11 66.4 8.7 31.63 18.71 60.78 21.9 63.71 53.41 123.34 16.99 32.16 29.6 52.13c7.88 12.48 18.37 28.87 27.24 41.22q26.31 36.59 42.31 55.84 21.35 25.67 36.99 42.21 9.45 9.99 24.53 25.12c36.95 37.07 78.18 70.99 121.18 101.03q14.71 10.27 30.28 19.88 24.42 15.07 30.86 18.78 33.45 19.21 79.14 40.37 3.24 1.5 6.25-.1 3.27-1.75 20.46-9.75c28.86-13.44 56.81-28.86 85.74-46.57 20.99-12.84 42.87-28.03 62.28-42.76q20.83-15.81 56.79-46.18 2.65-2.24 16.57-15.36c5.87-5.53 14.53-13.58 22.23-21.34q38.2-38.49 68.69-77.28 23.83-30.32 48.45-67.31c11.95-17.98 23.44-37.79 33.47-55.8q11.66-20.96 22.75-44.3 20.61-43.36 36.41-87.76 4.97-13.95 15.75-49.14 5.44-17.77 8.88-32.42 7.19-30.56 7.63-32.73 13.16-65.06 17.17-133.86 1.64-28.16 1.33-80.85-.25-41-.2-153.81.02-45.49.23-51.75.07-2.26-1.38-3.7-45.11-44.75-89.77-89.5c-9.62-9.64-18.39-18.02-29.22-29.26q-5.81-6.04-27.6-27.39-8.22-8.05-14.63-14.99a3.37 3.364 68.568 0 0-2.47-1.08h-78.17a.662.648 15.445 0 0-.56.31q-.94 1.52-1.5 1.06c10.04-72.11-6.41-145.08-48.41-204.27-16.68-23.51-37.01-45.32-60.32-63.06q-12.09-9.19-19.98-14.09c-25.23-15.66-53.21-28.16-81.96-35.35q-73.27-18.35-146.42.74c-23.39 6.11-46.35 15.95-66.71 27.28-32.95 18.32-60.99 43.69-84.27 73.26-47.65 60.5-67.14 137.13-57.02 213.85m674.09-144.34q1.03.48 30.23 15.16 3.34 1.69 5.62.65c2.66-1.22 2.56-4.8 2.14-7.29q-3.61-21.33-5.91-32.37a1.192 1.162 62.426 0 1 .33-1.1c6.73-6.54 12.79-13.35 19.56-19.45q4.16-3.74 5.26-5.59c2.74-4.63-.68-8.24-5.27-8.87q-18.1-2.47-32.32-4.1a1.327 1.315-9.048 0 1-1.03-.74c-4.5-9.4-10.63-20.03-14.8-29.55q-.55-1.27-2.14-3.09c-2.24-2.59-5.83-1.25-7.31 1.26-4.64 7.81-10.06 21.1-15.3 31.67a1.968 1.962-81.339 0 1-1.45 1.07q-15.08 2.48-33.69 5.3c-2.87.43-6.07 3.68-4.3 6.88q1.07 1.93 2.29 3.07 9.3 8.68 23.57 22.64a3.467 3.461-63.378 0 1 1 3.02q-3.07 19.4-5.19 33.04c-.95 6.11 4.93 6.67 8.89 4.36q10.26-6 29.13-15.95a.78.78 43.328 0 1 .69-.02m-803.69-62.46q-26.28 3.07-33.4 4.37-3.3.6-4.36 3.92c-.76 2.37.54 4.3 2.12 5.88q10.1 10.11 20.32 19.92 1.66 1.59 3.29 3.47a2.847 2.834 30.38 0 1 .64 2.43l-4.24 21.14c-.87 4.34-1.13 9.77-1.69 13.09a1.99 1.953-55.001 0 0 .21 1.26c2.31 4.38 5.46 3.57 9.69 1.38q15.91-8.25 26.3-13.43 1.81-.91 3.74.07 16.64 8.42 29.22 15.31 4.76 2.6 7.07-1.54.6-1.08.41-2.28-1.96-12.42-5.31-34.91a2.214 2.21 65.138 0 1 .72-1.97q10.49-9.23 23.67-22.4 2.19-2.19 2.78-3.71a1.98 1.947-36.744 0 0 .14-.91q-.34-4.76-4.86-5.58-15.07-2.74-28.12-4.38-3.69-.46-6.11-1.37a1.334 1.324-2.197 0 1-.74-.68q-7.65-15.4-14.11-29.52c-2.32-5.07-7.44-6.56-10.26-.82q-8.34 16.97-15.56 30.21a2.05 2.041-78.817 0 1-1.56 1.05m9.57 184.48q9.9 2.46 25.13 6.01c3.88.9 11.21 3.4 13.53-.91 1.14-2.13-.37-6.06-1.48-8.16q-7.16-13.57-13.8-27.34a2.407 2.383 47.56 0 1 .09-2.26q8.36-14.28 16.61-29.8c2.25-4.23-.79-8.01-5.49-7.35q-11.84 1.67-27.44 4.44-1.13.21-5.61.59a2.861 2.857 65.869 0 1-2.33-.89q-12.54-13.28-24.45-25.73-2.22-2.33-4.9-.8c-2.83 1.63-3.06 4.52-3.75 8.27q-1.92 10.36-4.92 28.84a3.167 3.155-8.475 0 1-1.74 2.34q-12.93 6.31-28.78 13.84c-2.53 1.2-5.68 4.15-4.02 7.13q1.06 1.88 2.08 2.45 16.49 9.12 31.12 16.1a1.557 1.539 9.617 0 1 .87 1.21q1.11 9.32 3.7 33.44.38 3.57 2.49 4.98c2.91 1.95 5.58.3 7.91-2.18q8.61-9.13 23.75-23.83a1.54 1.53-60.071 0 1 1.43-.39m781.67-30.81q-7.72 15.58-15.07 31.29c-1.93 4.12.85 7.46 5.34 6.74q15.32-2.44 32.69-6.3a3.54 3.54 60.173 0 1 3.17.86q8.91 8.3 14.04 13.75 5.25 5.58 9.85 9.63c3.48 3.07 8.4 2.32 8.84-2.75q.75-8.68 3.36-32.14.25-2.24 2.02-3.22 13.51-7.45 29.82-15.88c4.59-2.37 4.4-7.54-.34-9.7q-11.66-5.31-31.1-14.97a1.62 1.608 8.651 0 1-.89-1.2q-2.84-16.98-4.88-30.69c-.71-4.85-4.25-10.59-9.39-5.1q-12.57 13.44-22.82 24.46-1.39 1.49-3.73 1.16-6.51-.92-31.95-4.91-3.93-.62-6.01 2.83a1.686 1.616 59.042 0 0-.23 1.01q.28 2.59.84 3.6 11.34 20.52 16.43 30.18a1.488 1.478-45.627 0 1 .01 1.35"></path><path fill="#080a0a" fill-rule="evenodd" d="M784.9 178.77a.907.897 80.859 0 0 .67.49q14.47 2.04 33.66 5.75c4.21.81 5.05 5.39 2.16 8.18q-11.27 10.88-25.15 23.76a1.92 1.895 65.475 0 0-.6 1.64c1.28 10.36 3.24 20.43 4.99 33.34.65 4.75-2.64 8.19-7.39 5.57q-25.8-14.23-27.06-15-3.7-2.26-7.19-.41-12.83 6.81-27.15 13.49c-2.75 1.28-7.38 1.68-8.01-2.33q-.35-2.2.47-5.98 3.65-16.87 5.78-27.22.55-2.7.01-4.42a2.217 2.141 14.76 0 0-.57-.94q-3.21-3.14-22.21-22.35-1.29-1.3-2.2-3.26c-1.51-3.21 1.45-6.43 4.38-6.82q21.11-2.85 33.6-4.03a2.126 2.122-77.659 0 0 1.65-1.06q10.58-18.66 16.14-30.27.65-1.35 2.96-3.09a1.583 1.519-61.006 0 1 .97-.3q3.36.14 4.78 3.23 8.66 18.93 15.31 32.03M670.63 224.64a1.73 1.693 38.989 0 0 .15 1.29q9.53 17.34 16.85 29.81c2.18 3.72-.72 8.2-5.14 7.48q-13.05-2.13-33.64-4.47a2.494 2.467 30.123 0 0-1.77.46q-2.08 1.5-3.79 3.33-16.16 17.37-20.64 21.36-2.79 2.48-5.79.99c-2.32-1.16-2.78-5.47-3.13-7.64q-3.22-20.31-4.53-28.22c-.34-2.07-.66-2.74-2.63-3.62q-14.58-6.49-28.18-13.56-3.06-1.6-3.85-2.48c-2.69-3.02.87-6.06 3.46-7.64q12.71-7.74 28.33-15.31a2.621 2.615-8.614 0 0 1.44-1.95q3.97-25.99 5.14-32.75c.76-4.37 4.46-7.56 8.39-3.76q10.39 10.05 24.06 23.92a2.915 2.901 61.545 0 0 2.67.8q16.65-3.47 32.72-5.5c2.99-.38 5.86.62 5.91 3.94q.04 2.15-.53 3.23-11.97 22.7-14.47 27.56-.6 1.17-1.03 2.73M916.43 246.71a3.263 3.226 74.8 0 0-1.17 2.07q-1.08 7.81-5.09 32.9c-.44 2.72-3.6 5.24-6.58 3.85q-1.19-.56-3.13-2.49-11.61-11.52-21.85-23.11a3.969 3.944-24.494 0 0-3.51-1.3c-15.85 2.16-25.62 3.69-32.87 4.19q-2.63.19-3.63-.42c-2.6-1.58-2.4-4.87-1.12-7.18q7.94-14.31 15.66-27.6c1.07-1.85.77-2.88-.2-4.75q-3.55-6.9-14.66-27.65c-.99-1.85-1.52-5.56.78-7.09q2.4-1.6 3.7-1.39 18.26 2.86 31.11 5.62c3.29.71 4.62.81 7.03-1.65q6.86-6.97 14.26-14.79 5.85-6.19 8.76-8.16 3.24-2.19 5.99.03a2.068 1.999 10.787 0 1 .67.95q1.14 3.32 1.3 4.65 2.1 16.96 4.54 30.15.43 2.29 2.65 3.44 15.03 7.83 28.9 15.76 2.42 1.38 3 3.7c.71 2.88-2.82 4.93-5.03 5.98q-21.58 10.31-28.29 13.48-.56.27-1.22.81M967.95 271.33a1.06 1.036-30.888 0 0 .24-.91q-3.67-18.49-6.01-32.45c-.52-3.07-.4-6 2.72-6.93a1.874 1.856-45.281 0 1 1.02-.01q4.37 1.18 6.53 2.27 11.55 5.82 24.35 12.4 2.15 1.11 3.79 1.39a1.932 1.9-54.511 0 0 1.25-.22q12.89-7.31 29.68-15.62c4.14-2.04 8.16.54 7.45 5.34q-1.99 13.6-5.58 32.9a2.068 2.053 26.865 0 0 .62 1.87q10.19 9.49 22.66 21.73c3.98 3.91 6.72 10.15-1.4 11.4q-22.21 3.42-30.22 4.56-2.63.38-3.61 1.06a2.514 2.416 88.87 0 0-.73.79c-1.8 3.16-3.18 7.52-4.85 10.91q-4.26 8.66-9.45 19.32-.38.77-2.12 2.38c-2.72 2.51-6.1.44-7.52-2.3q-7.04-13.6-14.98-29.76a3.265 3.255 80.625 0 0-2.49-1.79q-18.47-2.47-23.98-3.27-6.38-.93-9.9-1.8c-4.12-1.01-4.08-5.66-1.78-8.2 4.05-4.5 10.42-11.42 16.43-17.06q5.05-4.73 7.88-8M555.79 270.31a1.194 1.179-61.873 0 0 .32 1.08q11.89 11.87 21.45 21.07c4.18 4.02 9.71 11.18-.83 12.75q-10.22 1.52-30.72 4.24-3.11.41-4.43 3.77c-1.03 2.6-2.26 5.36-3.44 7.67q-5.36 10.46-10.54 21.19-.81 1.67-3.13 2.88a1.708 1.69-53.206 0 1-1.07.16q-3.85-.72-4.99-3.08-1.41-2.9-14.43-30.6a3.025 3.011-4.419 0 0-1.9-1.62q-2.46-.71-4.36-1.01-12.09-1.91-23.51-3.74c-2.78-.45-6.96-1.12-9.55-3.17a1.264 1.244-73.598 0 1-.46-.86q-.31-3.6 2.4-6.46 7.49-7.94 23.43-23.51a1.764 1.76 59.722 0 0 .46-1.76c-3.04-10.29-3.6-18.45-5.38-32.37q-.62-4.77 3.61-6.25 1.19-.42 4.42 1.17 15.15 7.46 28.89 15.08a2.991 2.983-44.316 0 0 2.82.03q17.25-9.09 30.9-15.51c1.15-.54 3.41-.81 4.56.31q2.41 2.36 1.96 4.82-3.05 16.77-6.48 33.72M1126.85 367.29q-.52 1.2.72 3.38 3.5 6.12 15.81 27.97 1.85 3.28-.45 6.09c-1.49 1.82-4.39 1.61-6.56 1.38q-15.26-1.57-31.18-4.1a2.741 2.705-64.562 0 0-2.48.9q-6.22 7.07-22.66 24.64c-2.86 3.06-8.06 2.89-8.84-1.78q-2.73-16.36-6.07-33.37a2.877 2.874 7.058 0 0-1.6-2.05q-10.91-5.13-29-13.37c-3.43-1.56-6.67-4.21-4.15-8.29q1.09-1.76 5.63-4.18 13.94-7.46 26.31-14.63a2 1.997 78.284 0 0 .97-1.48q1.57-13.56 2.77-25.14.44-4.3 1.28-8.68c.94-4.88 4.57-6.07 8.15-2.93q11.54 10.12 19.99 18.76 1.06 1.08 5.24 4.56a2.947 2.942 58.043 0 0 2.58.6q10.99-2.63 31.7-6.73c6.96-1.38 8.45 4.44 5.68 9.62q-6.75 12.57-13.84 28.83M397.92 367.65q-2.31-4.88-11.22-23.05c-1.03-2.09-5.1-9.54-4.29-12.32 1.14-3.87 4.71-3.88 8.13-3.11 10.27 2.28 20.83 3.87 30.94 6.83a1.597 1.583 32.56 0 0 1.48-.32c5.14-4.41 9.2-9.09 13.59-12.69q2.39-1.97 11.27-10.42c4.04-3.86 8.7-3.41 9.43 2.77q2.27 19.04 3.22 32.72a2.127 2.104 13.363 0 0 1.06 1.7q15.84 9.17 30.46 16.86c5.95 3.13 3.71 7.99-1.22 10.16q-15.32 6.73-30 13.48a3.485 3.465-8.602 0 0-1.98 2.67q-2.31 16.4-5.19 33.13c-.75 4.34-6.2 4.63-8.71 2.05q-10.15-10.41-22.53-24.7-1.19-1.37-4.37-1.01-26.16 3.01-32.48 3.7c-4.21.47-6.92-3.57-4.9-7.22q6.31-11.4 17.24-29.78a1.555 1.541-42.502 0 0 .07-1.45M1044.77 662.45q-5.11 35.31-19.01 68.18-2.41 5.7-4.81 11.59c-2.83 5.79-5.64 11.95-8.7 17.32-15.65 27.41-35.94 53.7-59.68 74.61q-12.69 11.19-25.51 20.41c-30.54 21.96-65.97 37.81-103.04 46.02q-27.26 6.03-47.56 6.59c-20.79.57-40.69.15-60.58-3.53-25-4.62-48.02-11.35-71.1-21.71q-13.52-6.07-33.19-18.04-12.57-7.65-24.7-17.37-14.81-11.86-22.99-19.93-31.56-31.15-53.17-70.2c-2.67-4.81-5.13-10.45-7.72-15.69q-2.3-5.81-4.74-11.7-13.78-33.23-18.59-68.19c-10.12-76.72 9.37-153.35 57.02-213.85 23.28-29.57 51.32-54.94 84.27-73.26 20.36-11.33 43.32-21.17 66.71-27.28q73.15-19.09 146.42-.74c28.75 7.19 56.73 19.69 81.96 35.35q7.89 4.9 19.98 14.09c23.31 17.74 43.64 39.55 60.32 63.06 42 59.19 58.45 132.16 48.41 204.27M832.58 387.09q1.45 8.3 4.33 20.51.78 3.29 2.63 4.63 19.47 14.12 39.03 28.62 54.86 40.66 59.11 43.63 2.24 1.56 6.4.96 8.08-1.17 17.69-2.9a.811.807 69.44 0 0 .55-1.22q-5.43-8.89-13.44-18.2c-14.58-16.95-31.52-32.52-50.28-44.73q-12.77-8.3-17.42-11.05c-9.27-5.49-22.52-12.29-34.02-15.96q-10.76-3.44-14.06-4.71a.385.381 5.756 0 0-.52.42m-141.01-.11q-48.13 14.58-86.04 46.78-24.74 21.01-42.59 45.94-.54.75-.62 1.27a1.207 1.202 9.063 0 0 .99 1.36l20.27 3.48a4.02 4.02 31.572 0 0 3.1-.74l99.65-74.21a1.248 1.245-4.333 0 0 .31-.36q.82-1.42 1.18-3.23 2.38-11.98 4.24-19.83a.39.39-1.783 0 0-.49-.46m65.81 50.55-65.41-20.87a1.681 1.659 36.167 0 0-1.48.22q-7.07 4.94-9.43 6.68-23.86 17.6-74.2 55.55-9.11 6.87-13.47 9.78-1.65 1.1-2.25 2.4a.6.58 59.991 0 0-.07.28l-3.1 68.59a1.07 1.069 9.187 0 0 .78 1.08l87.5 24.84a1.741 1.726 34.725 0 0 1.47-.26l79.37-57.75a2.34 2.34-18.193 0 0 .95-1.88v-87.76a.947.944 8.859 0 0-.66-.9m179.34 123.58a.579.578 80.337 0 0 .41-.58l-2.94-68.66a2.588 2.57-74.184 0 0-1.13-2.04q-9.43-6.38-17.78-12.79-20.21-15.49-37.18-27.88-19.24-14.04-31.42-23.07-7.27-5.39-13.02-8.94a2.747 2.743-37.922 0 0-2.27-.28l-63.9 20.74a1.43 1.43-8.96 0 0-.99 1.36v86.75a2.793 2.769-72.117 0 0 1.14 2.25q38.43 28.04 51.07 36.99c9.62 6.82 18.49 14.22 28.5 20.34a3.566 3.551-37.183 0 0 2.81.38zm-351.52 8.47a.707.697-72.712 0 0-.58.31l-36.56 55.66a3.285 3.264-36.935 0 0-.4 2.76q7.53 25.1 12.14 38.88c8.61 25.77 14.93 47.36 23.28 73.23.46 1.41 1.05 4.16 2.49 4.65q19.26 6.66 50.93 18.73 7.82 2.97 12.78 5.27a1.953 1.952-59.857 0 0 2.41-.64l53.94-75a1.207 1.196-36.153 0 0 .17-1.06l-31.3-96.44a2.534 2.529-1.286 0 0-1.75-1.67q-13.95-3.77-25.65-7.29-5.92-1.78-25.68-7.23-18.97-5.23-34.02-9.95-.65-.2-2.2-.21m353.72-.2-87.04 24.67a3.142 3.131 1.433 0 0-2.11 2q-2.4 7.04-5.37 16.29-19.02 59.11-25.05 78.01-.74 2.32.59 4.3c8.15 12.12 17.15 23.15 25.98 35.92q14.94 21.61 25.69 35.97 1.71 2.29 2.25 2.53a1.924 1.864 50.542 0 0 1.15.13q1.21-.23 10.78-4.11 12.8-5.19 50.44-18.67 3.5-1.25 4.95-5.51 4.8-14.08 10.07-31.31c6.29-20.58 14.78-44.76 21.29-66.76 1.46-4.96 3.76-10.38 4.98-15.33a2.715 2.695 35.136 0 0-.38-2.14l-37.28-55.65a.857.841-24.595 0 0-.94-.34M569.18 769.31l7.93-19.8a1.464 1.405-32.509 0 0 .09-.37c.27-3.15-1.1-5.64-1.97-8.41q-6.46-20.63-9.36-29.21-6.49-19.22-9.25-29.23-2.51-9.13-16.25-50.32-1.21-3.63-2.91-4.7-2.96-1.87-10.86-6.38c-2.22-1.27-4.81-3.41-7.35-4.57a.771.767-76.053 0 0-1.09.66q-.52 10.44.13 22.16.34 6.08 1.91 15.69 2.12 13 2.62 15.61 3.21 16.58 8.62 31.46c3.5 9.64 7.69 18.48 11.78 27.64q2.75 6.15 12.24 22.37c3.75 6.4 8.82 12.38 12.4 17.55a.756.755 38.472 0 0 1.32-.15m387.75.34q.55-.51 1.34-1.64 16.47-23.53 27.67-48.32 12.93-28.64 17.08-55.43 2.69-17.36 2.91-19.26 1.63-14.08.94-28.03a.873.871-16.494 0 0-1.31-.71q-8.03 4.74-13.69 8.22c-3.47 2.13-6.06 3.47-7.36 7.54-5.22 16.37-9.95 29.55-15.03 46.15q-9.76 31.88-21.35 65.97-1.26 3.71.46 7.73 2.98 6.94 7.38 17.58a.599.594-32.983 0 0 .96.2m-194.579 57.988q28.727.005 61.139-.079c2.65-.009 4.5-2.759 5.88-4.439q21.36-26.03 38.55-48.72a.532.524-44.538 0 0 .01-.62l-54.62-76.79a3.523 3.51 72.071 0 0-2.883-1.48q-26.274.093-48.055.089t-48.054-.105a3.523 3.51-72.053 0 0-2.884 1.479l-54.645 76.772a.532.524 44.557 0 0 .01.62q17.183 22.696 38.534 48.733c1.379 1.68 3.229 4.431 5.878 4.441q32.413.095 61.14.099m.143 7.96q-13.529-.021-61.76-.142-2.334-.006-4.634 2.114-14 12.91-15.71 14.24a.233.229-55.391 0 0 .07.4q19.74 6.77 40.521 10.797 18.552 3.592 41.464 3.628 22.913.036 41.476-3.499 20.793-3.962 40.554-10.671a.233.229 55.57 0 0 .071-.4q-1.706-1.335-15.665-14.288-2.294-2.127-4.628-2.129-48.231-.029-61.759-.05"></path><path fill="#fff" fill-rule="evenodd" d="M832.58 387.09a.385.381 5.756 0 1 .52-.42q3.3 1.27 14.06 4.71c11.5 3.67 24.75 10.47 34.02 15.96q4.65 2.75 17.42 11.05c18.76 12.21 35.7 27.78 50.28 44.73q8.01 9.31 13.44 18.2a.811.807 69.44 0 1-.55 1.22q-9.61 1.73-17.69 2.9-4.16.6-6.4-.96-4.25-2.97-59.11-43.63-19.56-14.5-39.03-28.62-1.85-1.34-2.63-4.63-2.88-12.21-4.33-20.51M691.57 386.98a.39.39-1.783 0 1 .49.46q-1.86 7.85-4.24 19.83-.36 1.81-1.18 3.23a1.248 1.245-4.333 0 1-.31.36l-99.65 74.21a4.02 4.02 31.572 0 1-3.1.74l-20.27-3.48a1.207 1.202 9.063 0 1-.99-1.36q.08-.52.62-1.27 17.85-24.93 42.59-45.94 37.91-32.2 86.04-46.78M758.04 438.43v87.76a2.34 2.34-18.193 0 1-.95 1.88l-79.37 57.75a1.741 1.726 34.725 0 1-1.47.26l-87.5-24.84a1.07 1.069 9.187 0 1-.78-1.08l3.1-68.59a.6.58 59.991 0 1 .07-.28q.6-1.3 2.25-2.4 4.36-2.91 13.47-9.78 50.34-37.95 74.2-55.55 2.36-1.74 9.43-6.68a1.681 1.659 36.167 0 1 1.48-.22l65.41 20.87a.947.944 8.859 0 1 .66.9M936.72 561.11l-86.7 24.57a3.566 3.551-37.183 0 1-2.81-.38c-10.01-6.12-18.88-13.52-28.5-20.34q-12.64-8.95-51.07-36.99a2.793 2.769-72.117 0 1-1.14-2.25v-86.75a1.43 1.43-8.96 0 1 .99-1.36l63.9-20.74a2.747 2.743-37.922 0 1 2.27.28q5.75 3.55 13.02 8.94 12.18 9.03 31.42 23.07 16.97 12.39 37.18 27.88 8.35 6.41 17.78 12.79a2.588 2.57-74.184 0 1 1.13 2.04l2.94 68.66a.579.578 80.337 0 1-.41.58"></path><path fill="#080a0a" fill-rule="evenodd" d="M1153.77 516.47a.78.78 43.328 0 0-.69.02q-18.87 9.95-29.13 15.95c-3.96 2.31-9.84 1.75-8.89-4.36q2.12-13.64 5.19-33.04a3.467 3.461-63.378 0 0-1-3.02q-14.27-13.96-23.57-22.64-1.22-1.14-2.29-3.07c-1.77-3.2 1.43-6.45 4.3-6.88q18.61-2.82 33.69-5.3a1.968 1.962-81.339 0 0 1.45-1.07c5.24-10.57 10.66-23.86 15.3-31.67 1.48-2.51 5.07-3.85 7.31-1.26q1.59 1.82 2.14 3.09c4.17 9.52 10.3 20.15 14.8 29.55a1.327 1.315-9.048 0 0 1.03.74q14.22 1.63 32.32 4.1c4.59.63 8.01 4.24 5.27 8.87q-1.1 1.85-5.26 5.59c-6.77 6.1-12.83 12.91-19.56 19.45a1.192 1.162 62.426 0 0-.33 1.1q2.3 11.04 5.91 32.37c.42 2.49.52 6.07-2.14 7.29q-2.28 1.04-5.62-.65-29.2-14.68-30.23-15.16M350.08 454.01a2.05 2.041-78.817 0 0 1.56-1.05q7.22-13.24 15.56-30.21c2.82-5.74 7.94-4.25 10.26.82q6.46 14.12 14.11 29.52a1.334 1.324-2.197 0 0 .74.68q2.42.91 6.11 1.37 13.05 1.64 28.12 4.38 4.52.82 4.86 5.58a1.98 1.947-36.744 0 1-.14.91q-.59 1.52-2.78 3.71-13.18 13.17-23.67 22.4a2.214 2.21 65.138 0 0-.72 1.97q3.35 22.49 5.31 34.91.19 1.2-.41 2.28-2.31 4.14-7.07 1.54-12.58-6.89-29.22-15.31-1.93-.98-3.74-.07-10.39 5.18-26.3 13.43c-4.23 2.19-7.38 3-9.69-1.38a1.99 1.953-55.001 0 1-.21-1.26c.56-3.32.82-8.75 1.69-13.09l4.24-21.14a2.847 2.834 30.38 0 0-.64-2.43q-1.63-1.88-3.29-3.47-10.22-9.81-20.32-19.92c-1.58-1.58-2.88-3.51-2.12-5.88q1.06-3.32 4.36-3.92 7.12-1.3 33.4-4.37M359.65 638.49a1.54 1.53-60.071 0 0-1.43.39q-15.14 14.7-23.75 23.83c-2.33 2.48-5 4.13-7.91 2.18q-2.11-1.41-2.49-4.98-2.59-24.12-3.7-33.44a1.557 1.539 9.617 0 0-.87-1.21q-14.63-6.98-31.12-16.1-1.02-.57-2.08-2.45c-1.66-2.98 1.49-5.93 4.02-7.13q15.85-7.53 28.78-13.84a3.167 3.155-8.475 0 0 1.74-2.34q3-18.48 4.92-28.84c.69-3.75.92-6.64 3.75-8.27q2.68-1.53 4.9.8 11.91 12.45 24.45 25.73a2.861 2.857 65.869 0 0 2.33.89q4.48-.38 5.61-.59 15.6-2.77 27.44-4.44c4.7-.66 7.74 3.12 5.49 7.35q-8.25 15.52-16.61 29.8a2.407 2.383 47.56 0 0-.09 2.26q6.64 13.77 13.8 27.34c1.11 2.1 2.62 6.03 1.48 8.16-2.32 4.31-9.65 1.81-13.53.91q-15.23-3.55-25.13-6.01M1141.32 607.68a1.488 1.478-45.627 0 0-.01-1.35q-5.09-9.66-16.43-30.18-.56-1.01-.84-3.6a1.686 1.616 59.042 0 1 .23-1.01q2.08-3.45 6.01-2.83 25.44 3.99 31.95 4.91 2.34.33 3.73-1.16 10.25-11.02 22.82-24.46c5.14-5.49 8.68.25 9.39 5.1q2.04 13.71 4.88 30.69a1.62 1.608 8.651 0 0 .89 1.2q19.44 9.66 31.1 14.97c4.74 2.16 4.93 7.33.34 9.7q-16.31 8.43-29.82 15.88-1.77.98-2.02 3.22-2.61 23.46-3.36 32.14c-.44 5.07-5.36 5.82-8.84 2.75q-4.6-4.05-9.85-9.63-5.13-5.45-14.04-13.75a3.54 3.54 60.173 0 0-3.17-.86q-17.37 3.86-32.69 6.3c-4.49.72-7.27-2.62-5.34-6.74q7.35-15.71 15.07-31.29"></path><path fill="#fff" fill-rule="evenodd" d="M585.2 569.58q1.55.01 2.2.21 15.05 4.72 34.02 9.95 19.76 5.45 25.68 7.23 11.7 3.52 25.65 7.29a2.534 2.529-1.286 0 1 1.75 1.67l31.3 96.44a1.207 1.196-36.153 0 1-.17 1.06l-53.94 75a1.953 1.952-59.857 0 1-2.41.64q-4.96-2.3-12.78-5.27-31.67-12.07-50.93-18.73c-1.44-.49-2.03-3.24-2.49-4.65-8.35-25.87-14.67-47.46-23.28-73.23q-4.61-13.78-12.14-38.88a3.285 3.264-36.935 0 1 .4-2.76l36.56-55.66a.707.697-72.712 0 1 .58-.31M938.92 569.38a.857.841-24.595 0 1 .94.34l37.28 55.65a2.715 2.695 35.136 0 1 .38 2.14c-1.22 4.95-3.52 10.37-4.98 15.33-6.51 22-15 46.18-21.29 66.76q-5.27 17.23-10.07 31.31-1.45 4.26-4.95 5.51-37.64 13.48-50.44 18.67-9.57 3.88-10.78 4.11a1.924 1.864 50.542 0 1-1.15-.13q-.54-.24-2.25-2.53-10.75-14.36-25.69-35.97c-8.83-12.77-17.83-23.8-25.98-35.92q-1.33-1.98-.59-4.3 6.03-18.9 25.05-78.01 2.97-9.25 5.37-16.29a3.142 3.131 1.433 0 1 2.11-2zM569.18 769.31a.756.755 38.472 0 1-1.32.15c-3.58-5.17-8.65-11.15-12.4-17.55q-9.49-16.22-12.24-22.37c-4.09-9.16-8.28-18-11.78-27.64q-5.41-14.88-8.62-31.46-.5-2.61-2.62-15.61-1.57-9.61-1.91-15.69-.65-11.72-.13-22.16a.771.767-76.053 0 1 1.09-.66c2.54 1.16 5.13 3.3 7.35 4.57q7.9 4.51 10.86 6.38 1.7 1.07 2.91 4.7 13.74 41.19 16.25 50.32 2.76 10.01 9.25 29.23 2.9 8.58 9.36 29.21c.87 2.77 2.24 5.26 1.97 8.41a1.464 1.405-32.509 0 1-.09.37zM956.93 769.65a.599.594-32.983 0 1-.96-.2q-4.4-10.64-7.38-17.58-1.72-4.02-.46-7.73 11.59-34.09 21.35-65.97c5.08-16.6 9.81-29.78 15.03-46.15 1.3-4.07 3.89-5.41 7.36-7.54q5.66-3.48 13.69-8.22a.873.871-16.494 0 1 1.31.71q.69 13.95-.94 28.03-.22 1.9-2.91 19.26-4.15 26.79-17.08 55.43-11.2 24.79-27.67 48.32-.79 1.13-1.34 1.64"></path><path fill="#fcc708" fill-rule="evenodd" d="M503.01 740.7q-2.23 1.55-6.76 1.58-32.25.19-53.19.03c-2.34-.01-3.87.57-5.4 2.1q-35.47 35.36-44 44.25c-10.46 10.89-21.96 21.63-34.48 34.52q-15.54 16-37.48 37.27c-2.28 2.21-5.18 4.65-5.17 8.05q.36 91.45.06 181.45c-.07 20.3.38 38.44.28 58.18a.737.736-16.387 0 0 1.14.62q6.59-4.32 13.71-8.27c11.63-6.45 34.39-19.1 53.13-27.63q21.23-9.67 31.16-14.11 16.76-7.51 31.61-13 28.21-10.42 53.43-18.71c11.06-3.63 24.9-6.93 37.08-10.39q14.23-4.04 27.96-7.24 85.43-19.88 172.95-21.8c50.07-1.1 100.64 1.04 150.39 8.56q42.43 6.42 80.99 16.01 30.26 7.53 69.37 20.08c17.96 5.76 32.33 11.93 49.72 18.33 17.45 6.42 37.55 16.48 55.94 24.78q10.43 4.7 24.33 12.42 26.74 14.85 37.01 20.66a.671.67-66.007 0 0 .96-.37q.28-.84.32-2.07.2-6.82.19-16.25-.08-82.3.1-160.25.05-21.84-.3-61-.03-3.02-1.38-4.17-1.57-1.35-6.78-6.48-21.33-21.02-26.11-25.95-15.19-15.64-35.29-35.71-5.06-5.06-51.12-51.7c-1.86-1.89-2.83-2-5.38-2.01q-30.47-.11-61.05-.26 2.4-5.89 4.81-11.59 13.9-32.87 19.01-68.18.56.46 1.5-1.06a.662.648 15.445 0 1 .56-.31H1125a3.37 3.364 68.568 0 1 2.47 1.08q6.41 6.94 14.63 14.99 21.79 21.35 27.6 27.39c10.83 11.24 19.6 19.62 29.22 29.26q44.66 44.75 89.77 89.5 1.45 1.44 1.38 3.7-.21 6.26-.23 51.75-.05 112.81.2 153.81.31 52.69-1.33 80.85-4.01 68.8-17.17 133.86-.44 2.17-7.63 32.73-3.44 14.65-8.88 32.42-10.78 35.19-15.75 49.14-15.8 44.4-36.41 87.76-11.09 23.34-22.75 44.3c-10.03 18.01-21.52 37.82-33.47 55.8q-24.62 36.99-48.45 67.31-30.49 38.79-68.69 77.28c-7.7 7.76-16.36 15.81-22.23 21.34q-13.92 13.12-16.57 15.36-35.96 30.37-56.79 46.18c-19.41 14.73-41.29 29.92-62.28 42.76-28.93 17.71-56.88 33.13-85.74 46.57q-17.19 8-20.46 9.75-3.01 1.6-6.25.1-45.69-21.16-79.14-40.37-6.44-3.71-30.86-18.78-15.57-9.61-30.28-19.88c-43-30.04-84.23-63.96-121.18-101.03q-15.08-15.13-24.53-25.12-15.64-16.54-36.99-42.21-16-19.25-42.31-55.84c-8.87-12.35-19.36-28.74-27.24-41.22q-12.61-19.97-29.6-52.13-31.51-59.63-53.41-123.34-10.01-29.15-18.71-60.78-8.48-30.79-15.11-66.4-10.29-55.21-13.65-108.47-1.51-23.84-1.48-67.01.09-119.68.03-185.98-.01-19.63-.26-38.52c-.07-5.15 1.7-6.52 5.68-10.47q42.05-41.76 107.74-107.63c12.01-12.04 26.89-26.79 49.13-48.87q1.3-1.29 3.98-1.23 39.2.89 78.68.02 4.81 34.96 18.59 68.19 2.44 5.89 4.74 11.7m347.95 285.51-6.79-.64a2.193 2.191-69.518 0 0-1.97.9l-7.02 9.76a1.467 1.462 13.571 0 0 1.41 2.3l2.42-.36a5.65 5.65 22.481 0 0 3.16-1.58l9.24-9.13a.735.732 25.308 0 0-.45-1.25m-133.8 13.058a27.48 26.64-93.4 0 0-24.963 29.012 27.48 26.64-93.4 0 0 28.223 25.852 27.48 26.64-93.4 0 0 24.963-29.012 27.48 26.64-93.4 0 0-28.223-25.852m82.23 12.222 14.84.67a1.15 1.15 1.194 0 0 1.2-1.15v-9.14a.752.741 1.638 0 0-.71-.74l-43.32-1.95a.852.851 1.288 0 0-.89.85v9.82a.9.89 0 0 0 .9.89h13.68a1.381 1.371-89.187 0 1 1.37 1.42l-1.14 39.25a1.09 1.09-89.233 0 0 1.09 1.12h10.27a.803.802-88.089 0 0 .8-.75q1.53-21.12 1.44-39.84a.45.442-88.209 0 1 .47-.45m38.69-9.82q-13.31 20.77-25.41 39.25-3.42 5.22-6.76 11.27a.833.824-74.23 0 0 .68 1.23l12.52.56a.928.918 14.802 0 0 .87-.5l2.53-4.94a1.557 1.551 14.51 0 1 1.45-.85l18.46.84a2.172 2.17-6.706 0 1 1.99 1.57l1.61 5.7a1.448 1.438-5.264 0 0 1.26 1.04l13.4 1.27a.455.451 80.35 0 0 .45-.64q-5.48-12.12-10.52-25.53c-5.94-15.82-8.83-24.21-11.69-30.22a.483.48-41.402 0 0-.84-.05m-171.92 31.83a.172.169-51.599 0 1-.32.04q-6.04-12.65-14.22-25.78a1.334 1.326 69.808 0 0-1.31-.61L637.9 1049a.447.441 71.216 0 0-.32.66c5.99 10.63 13.62 22.3 19.75 32.74q6.98 11.9 8.61 14.4 1.49 2.3 2.4 3.07a.453.45 32.755 0 0 .7-.15c2.04-4.5 2.94-7.49 5.24-15.12q1.34-4.46 3.5-10.77 6.08-17.75 9.86-29.96a.538.533-78.925 0 0-.46-.69q-6.42-.54-11.28.46a2.048 2.029 3.745 0 0-1.53 1.33q-4.84 13.98-8.21 28.53m238.7 13.64c-3.59 2.78-9.69 4.78-14.15 4.53-13.79-.77-16.88-14.49-11.16-24.88 4.38-7.95 15.4-8.16 21.67-2.87 1.64 1.38 3.01 3.79 4.54 5.31a.542.54-59.837 0 0 .9-.24l3.3-11.6a1.617 1.608 27.857 0 0-.52-1.67q-13.12-11.02-29.15-5.23c-10.84 3.92-16.13 13.79-16.99 24.75-.83 10.49 4.64 21.07 14.26 25.39q11.85 5.33 24.57 1.05a1.558 1.527 85.948 0 0 1.02-1.2l2.24-13.02a.332.331 76.074 0 0-.53-.32m-273.332-36.468a.9.9 0 0 0-1.036-.74l-11.323 1.895a.9.9 0 0 0-.739 1.036l8.362 49.965a.9.9 0 0 0 1.036.74l11.322-1.895a.9.9 0 0 0 .74-1.036zm-20.968 2.868q-5.07.68-11.3 1.98-11.25 2.36-31.3 6.9a.671.668 78.962 0 0-.51.76l1.42 9.55a.97.961 79.903 0 0 1.15.81l14.9-3.2a.517.516-7.79 0 1 .62.47q.43 6.44 2.06 13.9 3.57 16.28 4.92 22.56.2.92.09 2.21a.704.703 86.007 0 0 .85.74l12.34-2.65a.347.347-5.809 0 0 .27-.41l-8.26-38.46a1.01 1.01 21.668 0 1 .78-1.2l13.84-2.98a.859.857-11.906 0 0 .66-1.01l-2.07-9.64a.419.414 80.279 0 0-.46-.33m329.704 58.212a.77.77 10.023 0 0 .564.932l11.184 2.752a.77.77 7.317 0 0 .932-.564l12.212-49.725a.77.77 24.363 0 0-.563-.931l-11.555-2.842a.77.77-15.886 0 0-.931.564l-4.384 17.884a.77.77-37.574 0 1-.931.564l-17.034-4.182a.77.77 59.263 0 1-.564-.932l4.102-16.684a.77.77-78.604 0 0-.564-.932l-10.934-2.683a.77.77-82.73 0 0-.932.565l-12.052 49.064a.77.77-53.727 0 0 .564.931l11.634 2.854a.77.77-82.855 0 0 .931-.565l4.824-19.664a.77.77 47.002 0 1 .931-.564l16.704 4.102a.77.77-41.478 0 1 .564.932zm50.078-38.936a.9.9 0 0 0-.608-1.118l-10.892-3.227a.9.9 0 0 0-1.119.607l-14.445 48.766a.9.9 0 0 0 .608 1.119l10.892 3.226a.9.9 0 0 0 1.119-.607zm-465.052 1.764 13.39 49.32a.57.57-86.113 0 0 .7.4l10.35-2.94a1.597 1.591-9.102 0 0 1.17-1.61q-.04-.9-.56-2.57c-1.68-5.51-4.48-13.72-3.83-16.03a.392.389-61.555 0 1 .63-.19l17.32 15.15a2.879 2.866 57.491 0 0 2.68.6l12.44-3.52a.57.568 56.51 0 0 .2-.99l-20.81-16.98a.417.416 53.865 0 1 .11-.71q2.96-1.18 4.35-4.41c2.34-5.47 1.82-12.15-2.38-16.6-7.61-8.07-19.89-4.02-29.14-1.56q-6.17 1.64-6.32 1.76a.829.824-26.37 0 0-.3.88m546.8 83.3a.189.188 10.156 0 0 .26-.18l-3.19-60.4a.627.625-12.296 0 0-.86-.55q-.49.19-1.41.89-9.81 7.47-18.57 15.43c-7.45 6.78-15.13 13.09-22.34 20.05a.512.511-30.442 0 1-.85-.22l-5.72-20.2a.344.337-12.565 0 1 .28-.43c7-1.01 11.54-4.8 13.17-11.74q2.06-8.75-4.11-14.64c-5.54-5.3-17.35-7.86-25.9-10.16a.08.08 7.019 0 0-.1.06l-16.63 49.25a.727.727 45 0 0 .46.92l10.66 3.6a1.101 1.098-71.808 0 0 1.4-.71l5.66-17.75a.654.652 41.133 0 1 1.21-.08q1.44 2.99 2.24 6.22 2.13 8.57 3.75 14.46a3.301 3.275 3.408 0 0 1.95 2.18l19.62 7.87a2.166 2.164 33.571 0 0 2.33-.47l3.6-3.56a2.784 2.767-56.364 0 1 2.99-.61l16.06 6.44a1.084 1.083-80.337 0 1 .68.96l.4 7.62a.919.898 9.864 0 0 .57.79zm-586.249-72.221a27.84 26.64-116.7 0 0-11.29 36.841 27.84 26.64-116.7 0 0 36.308 12.901 27.84 26.64-116.7 0 0 11.29-36.841 27.84 26.64-116.7 0 0-36.308-12.901m-28.481 69.061-7.36-15.24a.789.786-29.255 0 1 .29-1.02q.98-.61 3.22-1.72c9.07-4.51 16.82-14.6 10.53-25.19-6.71-11.28-16.93-8.62-27.04-5.04q-3.29 1.16-12.33 5.08a.543.537 67.091 0 0-.28.7q8.95 22.18 19.44 45.14.44.97 1.29 2.56a.958.953-26.841 0 0 1.26.41l10.82-5.22a.354.349 64.581 0 0 .16-.46m-36.403-18.112a.82.82 60.329 0 0-1.095-.381l-14.643 7.076a.82.82 26.406 0 1-1.096-.382l-3.017-6.253a.82.82-78.859 0 1 .382-1.095l17.044-8.236a.82.82-28.899 0 0 .381-1.095l-4.386-9.084a.82.82 18.967 0 0-1.095-.381l-28.024 13.536a.82.82-27.328 0 0-.382 1.095l22.317 46.223a.82.82 70.122 0 0 1.096.382l28.532-13.786a.82.82 57.475 0 0 .382-1.095l-4.436-9.174a.82.82 89.389 0 0-1.095-.382l-17.014 8.217a.82.82-71.073 0 1-1.095-.381l-3.576-7.404a.82.82-80.511 0 1 .381-1.095l14.113-6.816a.82.82 39.716 0 0 .382-1.095zm725.781-.305a.77.77-87.628 0 0-.328-1.051l-27.989-14.299a.77.77-16.049 0 0-1.028.321l-24.308 45.188a.77.77-57.634 0 0 .314 1.043l10.539 5.663a.77.77 24.988 0 0 1.05-.328l8.552-16.725a.77.77-22.453 0 1 1.035-.335l15.234 7.777a.77.77-15.731 0 0 1.065-.4l3.56-8.878a.77.77-59.71 0 0-.35-.965l-14.374-7.726a.77.77 65.069 0 1-.279-1.101l4.53-6.899a.77.77-26.557 0 1 .994-.264l15.983 8.173a.77.77-50.231 0 0 1.029-.321zm-809.637 23.411 23.746 42.838a1.82 1.82 1.468 0 0 2.474.71l15.131-8.387a26.56 25.57-29 0 0 10.833-35.241l-.717-1.294a26.56 25.57-29 0 0-35.627-9.488l-15.131 8.388a1.82 1.82-38.935 0 0-.709 2.474M723.18 1763.25v-616.64a.812.805 87.719 0 0-.87-.81q-40.81 2.96-82.64 9.28a.726.722 85.508 0 0-.62.73c.12 11.31-.16 24.33-.15 33.93q.37 510.96.09 523.19-.05 2.24 2.02 3.58 23.93 15.42 53.74 33.49 3.99 2.42 20.36 10.31c2.46 1.19 4.42 2.74 6.89 3.73a.857.854 11.103 0 0 1.18-.79m78.26.37a.578.575-14.663 0 0 .86.5c9.07-5.04 18.72-9.26 27.36-14.14q27.4-15.49 54.27-33.88a2.997 2.987 72.858 0 0 1.3-2.47V1156a1.17 1.168-86.375 0 0-1.02-1.16c-3.95-.49-7.86-1.38-11.87-1.84q-21.41-2.5-40.09-4.7-15.62-1.83-30.89-2.36a.473.469-7.146 0 0-.47.6q.31 1.06.31 2.71.3 172.47.14 198.75c-.04 8.08.27 16.83.23 24.33q-.4 70.87-.15 110.78.32 52.89.02 110.79-.14 25.53 0 169.72m370.87-573.41q-3.93 1.22-8.3 1.12c-8.44-.2-15.94-6.72-15.17-15.57q.58-6.57 5.36-11.6c6.01-6.34 15.9-5.59 21.24 1.19q3.24 4.12 3.92 8.99a.416.415-8.799 0 0 .48.35q.17-.03.41-.16.21-.13.32-.29 3.59-5.29 7.4-9.67a2.251 2.249-40.303 0 0 .22-2.66c-6.02-9.75-17.58-16.74-29.09-14.51-12.64 2.46-22.39 12.08-23.82 25.11-1.67 15.22 9.52 28.2 24.42 30.43 3.83.57 5.57-.21 7.72-3.51q4-6.17 5.43-8.53a.469.469-83.06 0 0-.54-.69m-208.81-18.83q.37 6.96.4 19.44.21 119.46.02 433.16c0 9.15.34 18.12.19 27.06a.573.573-24.369 0 0 1.01.38q2.33-2.74 3.52-3.77c9.67-8.46 18.07-17.4 27.35-26.51q6.15-6.03 12.23-12.57 17.4-18.72 35.87-40.55.09-.1 1.87-1.98 1.38-1.45 1.38-2.53.19-264.73.19-359.01 0-1.48.06-4.26a1.266 1.252 11.301 0 0-.81-1.2c-10.2-3.94-24.44-9.54-37.43-13.75q-24.97-8.09-45.54-14.15a.241.237 6.876 0 0-.31.24m-403.04 479.43q.29-.82.29-1.51c.17-28.49.34-45.39.34-65.38q.03-368.9-.03-403.58-.01-5.53-.14-7.83a.75.745 79.425 0 0-.97-.67c-10.22 3.27-22.53 6.24-32.77 9.89q-6.24 2.22-32.94 11.17c-4.87 1.63-10.71 4.1-17.09 6.38a.556.545 80.266 0 0-.36.52q.15 7.16.15 15.2.02 185.86.06 342.37c0 2.62-.33 4.73.96 7.1q.27.5 3.89 4.76 26.22 30.84 40.49 45.45 17.17 17.59 37.48 36.29a.396.391 30.553 0 0 .64-.16m-161.69-218.2v-197.22a.597.594 75.161 0 0-.89-.52q-25.55 14.5-28.13 15.88c-10.95 5.88-23.74 14.06-33.21 20.21a1.63 1.63-23.813 0 0-.69 1.78q5.62 21.16 13.31 45.41 16.13 50.93 38.76 95.49 8.51 16.76 9.71 19.24a.603.599-58.147 0 0 1.14-.27m727.37-197.14v197.05a.659.658 58.013 0 0 1.25.29q11.35-23.32 14.81-30.18c6.35-12.58 13.49-29.55 17.58-40.31q6.51-17.13 15.19-43.11c5.18-15.46 8.94-29.51 13.65-46.3a2.413 2.402-66.38 0 0-1.05-2.7q-13.71-8.45-15.57-9.63c-14.81-9.41-29.17-16.93-45.41-25.39a.312.309-76.597 0 0-.45.28"></path><path fill="#fff" fill-rule="evenodd" d="M762.372 695.599q21.781.004 48.055-.089a3.523 3.51 72.071 0 1 2.883 1.48l54.62 76.79a.532.524-44.538 0 1-.01.62q-17.19 22.69-38.55 48.72c-1.38 1.68-3.23 4.43-5.88 4.439q-32.412.084-61.139.079-28.727-.004-61.14-.099c-2.649-.01-4.499-2.761-5.878-4.441q-21.351-26.037-38.534-48.733a.532.524 44.557 0 1-.01-.62l54.645-76.772a3.523 3.51-72.053 0 1 2.884-1.479q26.274.101 48.054.105"></path><path fill="#fff" fill-rule="evenodd" d="M503.01 740.7c2.59 5.24 5.05 10.88 7.72 15.69q21.61 39.05 53.17 70.2 8.18 8.07 22.99 19.93 12.13 9.72 24.7 17.37 19.67 11.97 33.19 18.04c23.08 10.36 46.1 17.09 71.1 21.71 19.89 3.68 39.79 4.1 60.58 3.53q20.3-.56 47.56-6.59c37.07-8.21 72.5-24.06 103.04-46.02q12.82-9.22 25.51-20.41c23.74-20.91 44.03-47.2 59.68-74.61 3.06-5.37 5.87-11.53 8.7-17.32q30.58.15 61.05.26c2.55.01 3.52.12 5.38 2.01q46.06 46.64 51.12 51.7 20.1 20.07 35.29 35.71 4.78 4.93 26.11 25.95 5.21 5.13 6.78 6.48 1.35 1.15 1.38 4.17.35 39.16.3 61-.18 77.95-.1 160.25.01 9.43-.19 16.25-.04 1.23-.32 2.07a.671.67-66.007 0 1-.96.37q-10.27-5.81-37.01-20.66-13.9-7.72-24.33-12.42c-18.39-8.3-38.49-18.36-55.94-24.78-17.39-6.4-31.76-12.57-49.72-18.33q-39.11-12.55-69.37-20.08-38.56-9.59-80.99-16.01c-49.75-7.52-100.32-9.66-150.39-8.56q-87.52 1.92-172.95 21.8-13.73 3.2-27.96 7.24c-12.18 3.46-26.02 6.76-37.08 10.39q-25.22 8.29-53.43 18.71-14.85 5.49-31.61 13-9.93 4.44-31.16 14.11c-18.74 8.53-41.5 21.18-53.13 27.63q-7.12 3.95-13.71 8.27a.737.736-16.387 0 1-1.14-.62c.1-19.74-.35-37.88-.28-58.18q.3-90-.06-181.45c-.01-3.4 2.89-5.84 5.17-8.05q21.94-21.27 37.48-37.27c12.52-12.89 24.02-23.63 34.48-34.52q8.53-8.89 44-44.25c1.53-1.53 3.06-2.11 5.4-2.1q20.94.16 53.19-.03 4.53-.03 6.76-1.58"></path><path fill="#fff" fill-rule="evenodd" d="M762.445 866.635q-22.912-.036-41.464-3.628-20.781-4.027-40.521-10.797a.233.229-55.391 0 1-.07-.4q1.71-1.33 15.71-14.24 2.3-2.12 4.634-2.114 48.231.121 61.76.142t61.759.05q2.334.002 4.628 2.129 13.959 12.953 15.665 14.288a.233.229 55.57 0 1-.071.4q-19.761 6.709-40.554 10.671-18.563 3.535-41.476 3.499"></path><path fill="#080a0a" fill-rule="evenodd" d="m851.41 1027.46-9.24 9.13a5.65 5.65 59.968 0 1-3.16 1.58l-2.42.36a1.467 1.462 13.571 0 1-1.41-2.3l7.02-9.76a2.193 2.191-69.518 0 1 1.97-.9l6.79.64a.735.732 25.308 0 1 .45 1.25M717.16 1039.268a27.48 26.64-93.4 0 1 28.223 25.852 27.48 26.64-93.4 0 1-24.963 29.012 27.48 26.64-93.4 0 1-28.223-25.852 27.48 26.64-93.4 0 1 24.963-29.012m.923 12.023a15.3 12.74-92.2 0 0-12.144 15.778 15.3 12.74-92.2 0 0 13.318 14.8 15.3 12.74-92.2 0 0 12.144-15.778 15.3 12.74-92.2 0 0-13.318-14.8M799.39 1051.49a.45.442-88.209 0 0-.47.45q.09 18.72-1.44 39.84a.803.802-88.089 0 1-.8.75h-10.27a1.09 1.09-89.233 0 1-1.09-1.12l1.14-39.25a1.381 1.371-89.187 0 0-1.37-1.42h-13.68a.9.89 0 0 1-.9-.89v-9.82a.852.851 1.288 0 1 .89-.85l43.32 1.95a.752.741 1.638 0 1 .71.74v9.14a1.15 1.15 1.194 0 1-1.2 1.15zM838.08 1041.67a.483.48-41.402 0 1 .84.05c2.86 6.01 5.75 14.4 11.69 30.22q5.04 13.41 10.52 25.53a.455.451 80.35 0 1-.45.64l-13.4-1.27a1.448 1.438-5.264 0 1-1.26-1.04l-1.61-5.7a2.172 2.17-6.706 0 0-1.99-1.57l-18.46-.84a1.557 1.551 14.51 0 0-1.45.85l-2.53 4.94a.928.918 14.802 0 1-.87.5l-12.52-.56a.833.824-74.23 0 1-.68-1.23q3.34-6.05 6.76-11.27 12.1-18.48 25.41-39.25m-9.585 35.917a.31.31-70.58 0 0 .262.446l11.673.633a.31.31-20.179 0 0 .308-.416l-5.097-13.977a.31.31 50.23 0 0-.569-.031zM666.16 1073.5q3.37-14.55 8.21-28.53a2.048 2.029 3.745 0 1 1.53-1.33q4.86-1 11.28-.46a.538.533-78.925 0 1 .46.69q-3.78 12.21-9.86 29.96-2.16 6.31-3.5 10.77c-2.3 7.63-3.2 10.62-5.24 15.12a.453.45 32.755 0 1-.7.15q-.91-.77-2.4-3.07-1.63-2.5-8.61-14.4c-6.13-10.44-13.76-22.11-19.75-32.74a.447.441 71.216 0 1 .32-.66l12.41-1.85a1.334 1.326 69.808 0 1 1.31.61q8.18 13.13 14.22 25.78a.172.169-51.599 0 0 .32-.04M905.39 1087.46l-2.24 13.02a1.558 1.527 85.948 0 1-1.02 1.2q-12.72 4.28-24.57-1.05c-9.62-4.32-15.09-14.9-14.26-25.39.86-10.96 6.15-20.83 16.99-24.75q16.03-5.79 29.15 5.23a1.617 1.608 27.857 0 1 .52 1.67l-3.3 11.6a.542.54-59.837 0 1-.9.24c-1.53-1.52-2.9-3.93-4.54-5.31-6.27-5.29-17.29-5.08-21.67 2.87-5.72 10.39-2.63 24.11 11.16 24.88 4.46.25 10.56-1.75 14.15-4.53a.332.331 76.074 0 1 .53.32M639.89 1100.637a.9.9 0 0 1-.74 1.036l-11.322 1.895a.9.9 0 0 1-1.036-.74l-8.362-49.965a.9.9 0 0 1 .739-1.036l11.323-1.895a.9.9 0 0 1 1.036.74z"></path><path fill="#fcc708" fill-rule="evenodd" d="M718.083 1051.291a15.3 12.74-92.2 0 1 13.318 14.8 15.3 12.74-92.2 0 1-12.144 15.778 15.3 12.74-92.2 0 1-13.318-14.8 15.3 12.74-92.2 0 1 12.144-15.778"></path><path fill="#080a0a" fill-rule="evenodd" d="m611.02 1053.87 2.07 9.64a.859.857-11.906 0 1-.66 1.01l-13.84 2.98a1.01 1.01-23.518 0 0-.78 1.2l8.26 38.46a.347.347-5.833 0 1-.27.41l-12.34 2.65a.704.703 86.007 0 1-.85-.74q.11-1.29-.09-2.21-1.35-6.28-4.92-22.56-1.63-7.46-2.06-13.9a.517.516-7.79 0 0-.62-.47l-14.9 3.2a.97.961 79.903 0 1-1.15-.81l-1.42-9.55a.671.668 78.962 0 1 .51-.76q20.05-4.54 31.3-6.9 6.23-1.3 11.3-1.98a.419.414 80.279 0 1 .46.33M940.264 1111.752l4.702-19.124a.77.77 86.404 0 0-.564-.932l-16.704-4.102a.77.77 2.441 0 0-.931.564l-4.824 19.664a.77.77-43.089 0 1-.931.565l-11.634-2.854a.77.77-37.137 0 1-.564-.931l12.052-49.064a.77.77-44.009 0 1 .932-.565l10.934 2.683a.77.77-47.253 0 1 .564.932l-4.102 16.684a.77.77 60.384 0 0 .564.932l17.034 4.182a.77.77 72.707 0 0 .931-.564l4.384-17.884a.77.77 38.322 0 1 .931-.564l11.555 2.842a.77.77 50.291 0 1 .563.931l-12.212 49.725a.77.77 49.173 0 1-.932.564l-11.184-2.752a.77.77 19.961 0 1-.564-.932" data-source="https://football-logos.cc"></path><path fill="#fcc708" fill-rule="evenodd" d="m828.495 1077.587 6.577-13.345a.31.31 85.213 0 1 .569.031l5.097 13.977a.31.31 24.748 0 1-.308.416l-11.673-.633a.31.31 83.041 0 1-.262-.446"></path><path fill="#080a0a" fill-rule="evenodd" d="M975.897 1121.582a.9.9 0 0 1-1.119.607l-10.892-3.226a.9.9 0 0 1-.608-1.119l14.445-48.766a.9.9 0 0 1 1.119-.607l10.892 3.227a.9.9 0 0 1 .608 1.118zM525.59 1073.7q.15-.12 6.32-1.76c9.25-2.46 21.53-6.51 29.14 1.56 4.2 4.45 4.72 11.13 2.38 16.6q-1.39 3.23-4.35 4.41a.417.416 53.865 0 0-.11.71l20.81 16.98a.57.568 56.51 0 1-.2.99l-12.44 3.52a2.879 2.866 57.491 0 1-2.68-.6l-17.32-15.15a.392.389-61.555 0 0-.63.19c-.65 2.31 2.15 10.52 3.83 16.03q.52 1.67.56 2.57a1.597 1.591-9.102 0 1-1.17 1.61l-10.35 2.94a.57.57-67.644 0 1-.7-.4l-13.39-49.32a.829.824-26.37 0 1 .3-.88m14.383 7.914 3.069 10.563a.93.93 78.612 0 0 1.152.634l2.948-.856a7.44 5.93-16.2 0 0 5.49-7.771l-.279-.96a7.44 5.93-16.2 0 0-8.799-3.619l-2.948.857a.93.93 62.127 0 0-.633 1.152M1072.09 1157.88l-12.39-4.96a.919.898 9.864 0 1-.57-.79l-.4-7.62a1.084 1.083-80.337 0 0-.68-.96l-16.06-6.44a2.784 2.767-56.364 0 0-2.99.61l-3.6 3.56a2.166 2.164 33.571 0 1-2.33.47l-19.62-7.87a3.301 3.275 3.408 0 1-1.95-2.18q-1.62-5.89-3.75-14.46-.8-3.23-2.24-6.22a.654.652 41.133 0 0-1.21.08l-5.66 17.75a1.101 1.098-71.808 0 1-1.4.71l-10.66-3.6a.727.727-90 0 1-.46-.92l16.63-49.25a.08.08 7.037 0 1 .1-.06c8.55 2.3 20.36 4.86 25.9 10.16q6.17 5.89 4.11 14.64c-1.63 6.94-6.17 10.73-13.17 11.74a.344.337-12.565 0 0-.28.43l5.72 20.2a.512.511-30.442 0 0 .85.22c7.21-6.96 14.89-13.27 22.34-20.05q8.76-7.96 18.57-15.43.92-.7 1.41-.89a.627.625-12.296 0 1 .86.55l3.19 60.4a.189.188 10.156 0 1-.26.18m-60.805-67.743-3.15 10.915a1.04 1.04 8.108 0 0 .711 1.287l3.026.874a7.03 6.29 16.1 0 0 8.499-4.094l.238-.826a7.03 6.29 16.1 0 0-5.01-7.993l-3.026-.874a1.04 1.04-18.636 0 0-1.288.711m37.105 38.141a.31.31 26.824 0 0 .091.507l10.256 4.481a.31.31-74.621 0 0 .434-.278l.277-14.612a.31.31-47.449 0 0-.525-.229z"></path><path fill="#fcc708" fill-rule="evenodd" d="M539.973 1081.614a.93.93-78.652 0 1 .633-1.152l2.948-.857a7.44 5.93-16.2 0 1 8.799 3.619l.279.96a7.44 5.93-16.2 0 1-5.49 7.771l-2.948.856a.93.93-76.123 0 1-1.152-.634z"></path><path fill="#080a0a" fill-rule="evenodd" d="M485.841 1085.659a27.84 26.64-116.7 0 1 36.308 12.901 27.84 26.64-116.7 0 1-11.29 36.841 27.84 26.64-116.7 0 1-36.308-12.901 27.84 26.64-116.7 0 1 11.29-36.841m7.812 10.353a15.3 12.99-107.8 0 0-7.691 18.539 15.3 12.99-107.8 0 0 17.045 10.597 15.3 12.99-107.8 0 0 7.691-18.539 15.3 12.99-107.8 0 0-17.045-10.597"></path><path fill="#fcc708" fill-rule="evenodd" d="M1011.285 1090.137a1.04 1.04 57.292 0 1 1.288-.711l3.026.874a7.03 6.29 16.1 0 1 5.01 7.993l-.238.826a7.03 6.29 16.1 0 1-8.499 4.094l-3.026-.874a1.04 1.04 8.191 0 1-.711-1.287zM493.653 1096.012a15.3 12.99-107.8 0 1 17.045 10.597 15.3 12.99-107.8 0 1-7.691 18.539 15.3 12.99-107.8 0 1-17.045-10.597 15.3 12.99-107.8 0 1 7.691-18.539"></path><path fill="#080a0a" fill-rule="evenodd" d="M457.36 1154.72a.354.349 64.581 0 1-.16.46l-10.82 5.22a.958.953-26.841 0 1-1.26-.41q-.85-1.59-1.29-2.56-10.49-22.96-19.44-45.14a.543.537 67.091 0 1 .28-.7q9.04-3.92 12.33-5.08c10.11-3.58 20.33-6.24 27.04 5.04 6.29 10.59-1.46 20.68-10.53 25.19q-2.24 1.11-3.22 1.72a.789.786-29.255 0 0-.29 1.02zm-16.762-37.427 4.627 10.199a1.35 1.35-17.81 0 0 1.787.672l1.093-.496a9.13 6.78-24.4 0 0 5.514-9.946l-.141-.309a9.13 6.78-24.4 0 0-11.115-2.403l-1.093.496a1.35 1.35-31.433 0 0-.672 1.787"></path><path fill="#fcc708" fill-rule="evenodd" d="M440.598 1117.293a1.35 1.35 12.575 0 1 .672-1.787l1.093-.496a9.13 6.78-24.4 0 1 11.115 2.403l.141.309a9.13 6.78-24.4 0 1-5.514 9.946l-1.093.496a1.35 1.35 9.084 0 1-1.787-.672z"></path><path fill="#080a0a" fill-rule="evenodd" d="m420.957 1136.608 4.056 8.394a.82.82-89.038 0 1-.382 1.095l-14.113 6.816a.82.82 57.377 0 0-.381 1.095l3.576 7.404a.82.82-71.004 0 0 1.095.381l17.014-8.217a.82.82-79.853 0 1 1.095.382l4.436 9.174a.82.82-79.991 0 1-.382 1.095l-28.532 13.786a.82.82-78.668 0 1-1.096-.382l-22.317-46.223a.82.82 11.664 0 1 .382-1.095l28.024-13.536a.82.82 19.016 0 1 1.095.381l4.386 9.084a.82.82 12.411 0 1-.381 1.095l-17.044 8.236a.82.82 45.207 0 0-.382 1.095l3.017 6.253a.82.82 37.502 0 0 1.096.382l14.643-7.076a.82.82-85.081 0 1 1.095.381"></path><path fill="#fcc708" fill-rule="evenodd" d="m1048.39 1128.278 10.533-10.131a.31.31 14.804 0 1 .525.229l-.277 14.612a.31.31-46.192 0 1-.434.278l-10.256-4.481a.31.31 68.766 0 1-.091-.507"></path><path fill="#080a0a" fill-rule="evenodd" d="m1146.738 1136.303-4.771 8.873a.77.77-24.04 0 1-1.029.321l-15.983-8.173a.77.77-62.741 0 0-.994.264l-4.53 6.899a.77.77 3.834 0 0 .279 1.101l14.374 7.726a.77.77-29.462 0 1 .35.965l-3.56 8.878a.77.77 67.275 0 1-1.065.4l-15.234-7.777a.77.77-48.444 0 0-1.035.335l-8.552 16.725a.77.77 68.286 0 1-1.05.328l-10.539-5.663a.77.77-29.173 0 1-.314-1.043l24.308-45.188a.77.77-17.184 0 1 1.028-.321l27.989 14.299a.77.77-36.802 0 1 .328 1.051M337.101 1159.714a1.82 1.82 7.804 0 1 .709-2.474l15.131-8.388a26.56 25.57-29 0 1 35.627 9.488l.717 1.294a26.56 25.57-29 0 1-10.833 35.241l-15.131 8.387a1.82 1.82 11.854 0 1-2.474-.71zm16.79 2.814 13.316 23.924a.68.68 87.9 0 0 .925.264l3.355-1.868a14.48 13.72-29.1 0 0 5.98-19.03l-.632-1.136a14.48 13.72-29.1 0 0-19.325-4.946l-3.355 1.867a.68.68-36.422 0 0-.264.925M723.18 1763.25a.857.854 11.103 0 1-1.18.79c-2.47-.99-4.43-2.54-6.89-3.73q-16.37-7.89-20.36-10.31-29.81-18.07-53.74-33.49-2.07-1.34-2.02-3.58.28-12.23-.09-523.19c-.01-9.6.27-22.62.15-33.93a.726.722 85.508 0 1 .62-.73q41.83-6.32 82.64-9.28a.812.805 87.719 0 1 .87.81zM801.44 1763.62q-.14-144.19 0-169.72.3-57.9-.02-110.79-.25-39.91.15-110.78c.04-7.5-.27-16.25-.23-24.33q.16-26.28-.14-198.75 0-1.65-.31-2.71a.473.469-7.146 0 1 .47-.6q15.27.53 30.89 2.36 18.68 2.2 40.09 4.7c4.01.46 7.92 1.35 11.87 1.84a1.17 1.168-86.375 0 1 1.02 1.16v557.63a2.997 2.987 72.858 0 1-1.3 2.47q-26.87 18.39-54.27 33.88c-8.64 4.88-18.29 9.1-27.36 14.14a.578.575-14.663 0 1-.86-.5M1172.31 1190.21a.469.469-83.06 0 1 .54.69q-1.43 2.36-5.43 8.53c-2.15 3.3-3.89 4.08-7.72 3.51-14.9-2.23-26.09-15.21-24.42-30.43 1.43-13.03 11.18-22.65 23.82-25.11 11.51-2.23 23.07 4.76 29.09 14.51a2.251 2.249-40.303 0 1-.22 2.66q-3.81 4.38-7.4 9.67-.11.16-.32.29-.24.13-.41.16a.416.415-8.799 0 1-.48-.35q-.68-4.87-3.92-8.99c-5.34-6.78-15.23-7.53-21.24-1.19q-4.78 5.03-5.36 11.6c-.77 8.85 6.73 15.37 15.17 15.57q4.37.1 8.3-1.12"></path><path fill="#fcc708" fill-rule="evenodd" d="M353.891 1162.528a.68.68-5.643 0 1 .264-.925l3.355-1.867a14.48 13.72-29.1 0 1 19.325 4.946l.632 1.136a14.48 13.72-29.1 0 1-5.98 19.03l-3.355 1.868a.68.68-82.519 0 1-.925-.264z"></path><path fill="#080a0a" fill-rule="evenodd" d="M963.5 1171.38a.241.237 6.876 0 1 .31-.24q20.57 6.06 45.54 14.15c12.99 4.21 27.23 9.81 37.43 13.75a1.266 1.252 11.301 0 1 .81 1.2q-.06 2.78-.06 4.26 0 94.28-.19 359.01 0 1.08-1.38 2.53-1.78 1.88-1.87 1.98-18.47 21.83-35.87 40.55-6.08 6.54-12.23 12.57c-9.28 9.11-17.68 18.05-27.35 26.51q-1.19 1.03-3.52 3.77a.573.573-24.369 0 1-1.01-.38c.15-8.94-.19-17.91-.19-27.06q.19-313.7-.02-433.16-.03-12.48-.4-19.44M560.46 1650.81a.396.391 30.553 0 1-.64.16q-20.31-18.7-37.48-36.29-14.27-14.61-40.49-45.45-3.62-4.26-3.89-4.76c-1.29-2.37-.96-4.48-.96-7.1q-.04-156.51-.06-342.37 0-8.04-.15-15.2a.556.545 80.266 0 1 .36-.52c6.38-2.28 12.22-4.75 17.09-6.38q26.7-8.95 32.94-11.17c10.24-3.65 22.55-6.62 32.77-9.89a.75.745 79.425 0 1 .97.67q.13 2.3.14 7.83.06 34.68.03 403.58c0 19.99-.17 36.89-.34 65.38q0 .69-.29 1.51M398.77 1432.61a.603.599-58.147 0 1-1.14.27q-1.2-2.48-9.71-19.24-22.63-44.56-38.76-95.49-7.69-24.25-13.31-45.41a1.63 1.63-23.813 0 1 .69-1.78c9.47-6.15 22.26-14.33 33.21-20.21q2.58-1.38 28.13-15.88a.597.594 75.161 0 1 .89.52zM1126.14 1235.47a.312.309-76.597 0 1 .45-.28c16.24 8.46 30.6 15.98 45.41 25.39q1.86 1.18 15.57 9.63a2.413 2.402-66.38 0 1 1.05 2.7c-4.71 16.79-8.47 30.84-13.65 46.3q-8.68 25.98-15.19 43.11c-4.09 10.76-11.23 27.73-17.58 40.31q-3.46 6.86-14.81 30.18a.659.658 58.013 0 1-1.25-.29z" data-source="https://football-logos.cc"></path><!-- source: https://football-logos.cc --></svg>