<?xml version="1.0" encoding="utf-8"?>
<!-- Generator: Adobe Illustrator 27.0.0, SVG Export Plug-In . SVG Version: 6.00 Build 0)  -->
<svg version="1.1" id="Capa_1" xmlns="http://www.w3.org/2000/svg" xmlns:xlink="http://www.w3.org/1999/xlink" x="0px" y="0px"
	 viewBox="0 0 389.3 389.3" style="enable-background:new 0 0 389.3 389.3;" xml:space="preserve">
<style type="text/css">
	.st0{fill:#0013FF;}
	.st1{fill:#FFFFFF;}
</style>
<g id="a">
</g>
<g>
	<path class="st0" d="M327.9,246.4V84.7l-35.4-9.1c1.1,6.3,1.6,12.9,1.4,19.6c-1.4,52.6-44.4,95-97,95.6
		c-54.8,0.6-99.3-43.6-99.3-98.2c0-5.9,0.5-11.7,1.5-17.3l-35.9,9.4v162.2c0,35.4,17.5,52.5,49.7,71.6l81.5,48.2l83.1-48.4
		C319.6,293.8,327.9,273.4,327.9,246.4z"/>
	<path class="st0" d="M286.2,54.4c1.9,4.6,3.5,9.4,4.8,14.3L334.7,80v166.4c0,38.4-20.5,58-53.6,77.3l-86.9,50.6l-85.2-50.4
		c-33.5-19.8-52.9-38.8-52.9-76.9V80l44.3-11.6c1.3-5,2.9-9.8,4.9-14.4L45.9,69.5v181.3c0,41.1,21.5,61,56.5,81.8l91.8,54.3
		l93.6-54.5c35.4-20.6,57.2-40.8,57.2-82.2V69.5L286.2,54.4z"/>
	<g>
		<g>
			<path class="st1" d="M161,225.1c-0.3,2-0.9,3.9-1.8,5.5c-0.9,1.6-1.9,2.9-3.2,4c-1.3,1-2.7,1.8-4.4,2.3c-1.6,0.5-3.3,0.8-5.2,0.8
				c-4.3,0-7.8-1.4-10.7-4.3c-1.7-1.7-2.8-3.6-3.2-5.7c-0.5-2.1-0.7-4.9-0.7-8.2v-1.3v-1.3c0-3.3,0.2-6,0.7-8.2
				c0.5-2.2,1.5-4.1,3.2-5.8c1.4-1.4,3-2.5,4.7-3.2c1.7-0.7,3.7-1.1,5.9-1.1c1.9,0,3.7,0.3,5.3,0.8s3,1.3,4.3,2.3
				c1.3,1,2.3,2.3,3.2,3.9c0.9,1.6,1.5,3.4,1.8,5.5h-9.6c-0.3-1.2-0.9-2.2-1.6-3c-0.7-0.7-1.8-1.1-3.3-1.1c-0.8,0-1.5,0.1-2.2,0.4
				c-0.6,0.3-1.2,0.7-1.5,1.2c-0.3,0.4-0.6,0.9-0.8,1.5c-0.2,0.6-0.4,1.5-0.5,2.7c-0.1,1.2-0.2,3-0.2,5.3c0,3.1,0.1,5.3,0.3,6.5
				c0.2,1.3,0.6,2.2,1.1,2.9c0.8,1.1,2.1,1.6,3.7,1.6c1.4,0,2.5-0.4,3.3-1.1c0.8-0.7,1.3-1.7,1.6-3H161z"/>
			<path class="st1" d="M191.5,237.3h-25.6v-38.4h9.4v30h16.1V237.3z"/>
			<path class="st1" d="M225.5,223.8c0,2-0.4,3.9-1.1,5.6c-0.8,1.7-1.8,3.2-3.2,4.4c-1.4,1.2-2.9,2.2-4.7,2.8c-1.8,0.6-3.7,1-5.6,1
				c-2.6,0-5-0.6-7.3-1.7c-2.2-1.1-4-2.8-5.3-4.9c-1.3-2.1-1.9-4.5-1.9-7.2v-24.9h9.4v24.7c0,1.8,0.5,3.1,1.4,4.1
				c0.9,1,2.2,1.5,3.7,1.5c1,0,1.9-0.2,2.7-0.7c0.8-0.4,1.4-1.1,1.8-1.9c0.4-0.8,0.6-1.9,0.6-3v-24.7h9.4V223.8z"/>
			<path class="st1" d="M261.3,226c0,1.8-0.3,3.4-0.9,4.8c-0.6,1.4-1.4,2.6-2.5,3.6c-1.1,1-2.4,1.7-3.8,2.2
				c-1.5,0.5-3.1,0.8-4.7,0.8h-16.7v-38.4h15.9c2.6,0,4.8,0.5,6.7,1.4c1.8,0.9,3.2,2.2,4.2,3.9c0.9,1.7,1.4,3.6,1.4,5.8
				c0,1.9-0.5,3.4-1.4,4.7c-0.9,1.3-1.9,2.2-2.8,2.9c1.3,0.8,2.4,1.8,3.3,3C260.9,221.8,261.3,223.6,261.3,226z M251.4,210.5
				c0-0.9-0.3-1.6-0.8-2.2c-0.5-0.6-1.4-0.9-2.6-0.9h-5.9v6.2h5.9c1.2,0,2-0.3,2.6-0.9C251.1,212.1,251.4,211.3,251.4,210.5z
				 M251.9,225.4c0-0.9-0.3-1.7-0.8-2.4c-0.5-0.6-1.4-1-2.6-1h-6.4v6.7h6.4c1.2,0,2.1-0.3,2.6-1
				C251.6,227.1,251.9,226.3,251.9,225.4z"/>
			<path class="st1" d="M132.8,271.2c-0.3,2-0.9,3.9-1.8,5.5c-0.9,1.6-1.9,2.9-3.2,4c-1.3,1-2.7,1.8-4.4,2.3
				c-1.6,0.5-3.3,0.8-5.2,0.8c-4.3,0-7.8-1.4-10.7-4.3c-1.7-1.7-2.8-3.6-3.2-5.7c-0.5-2.1-0.7-4.9-0.7-8.2v-1.3v-1.3
				c0-3.3,0.2-6,0.7-8.2c0.5-2.2,1.5-4.1,3.2-5.8c1.4-1.4,3-2.5,4.7-3.2c1.7-0.7,3.7-1.1,5.9-1.1c1.9,0,3.7,0.3,5.3,0.8
				c1.6,0.5,3,1.3,4.3,2.3c1.3,1,2.3,2.3,3.2,3.9c0.9,1.6,1.5,3.4,1.8,5.5h-9.6c-0.3-1.2-0.9-2.2-1.6-3c-0.7-0.7-1.8-1.1-3.3-1.1
				c-0.8,0-1.5,0.1-2.2,0.4c-0.6,0.3-1.2,0.7-1.5,1.2c-0.3,0.4-0.6,0.9-0.8,1.5c-0.2,0.6-0.4,1.5-0.5,2.7c-0.1,1.2-0.2,3-0.2,5.3
				c0,3.1,0.1,5.3,0.3,6.5c0.2,1.3,0.6,2.2,1.1,2.9c0.8,1.1,2.1,1.6,3.7,1.6c1.4,0,2.5-0.4,3.3-1.1c0.8-0.7,1.3-1.7,1.6-3H132.8z"/>
			<path class="st1" d="M147.2,283.4h-9.4V245h9.4V283.4z"/>
			<path class="st1" d="M183.4,270c0,2-0.4,3.9-1.1,5.6c-0.8,1.7-1.8,3.2-3.2,4.4c-1.4,1.2-2.9,2.2-4.7,2.8c-1.8,0.6-3.7,1-5.6,1
				c-2.6,0-5-0.6-7.3-1.7c-2.2-1.1-4-2.8-5.3-4.9c-1.3-2.1-1.9-4.5-1.9-7.2V245h9.4v24.7c0,1.8,0.5,3.1,1.4,4.1
				c0.9,1,2.2,1.5,3.7,1.5c1,0,1.9-0.2,2.7-0.7c0.8-0.4,1.4-1.1,1.8-1.9c0.4-0.8,0.6-1.9,0.6-3V245h9.4V270z"/>
			<path class="st1" d="M219.2,264.2v3.1c0,1.9-0.1,3.4-0.2,4.8c-0.2,1.3-0.5,2.6-1.1,3.9c-0.6,1.3-1.5,2.5-2.6,3.7
				c-2.5,2.5-6,3.8-10.3,3.8h-14.2V245h14.2c4.4,0,7.8,1.3,10.3,3.8c1.2,1.2,2.1,2.4,2.6,3.7c0.6,1.3,1,2.6,1.1,3.9
				c0.2,1.3,0.2,2.9,0.2,4.8V264.2z M209.7,264.2c0-3.2-0.1-5.2-0.2-6.3c-0.1-1-0.4-1.8-0.8-2.4c-1-1.4-2.5-2.2-4.5-2.2H200V275h4.2
				c2.1,0,3.6-0.7,4.5-2.2c0.3-0.5,0.5-0.9,0.6-1.4c0.1-0.4,0.2-1.2,0.3-2.3C209.7,268.1,209.7,266.5,209.7,264.2z"/>
			<path class="st1" d="M257,283.4h-9.9l-1.8-5.7h-11.8l-1.9,5.7h-9.9l14-38.4h7.3L257,283.4z M242.9,269.9l-3.2-10.2l-3.5,10.2
				H242.9z"/>
			<path class="st1" d="M289.5,264.2v3.1c0,1.9-0.1,3.4-0.2,4.8c-0.2,1.3-0.5,2.6-1.1,3.9c-0.6,1.3-1.5,2.5-2.6,3.7
				c-2.5,2.5-6,3.8-10.3,3.8h-14.2V245h14.2c4.4,0,7.8,1.3,10.3,3.8c1.2,1.2,2.1,2.4,2.6,3.7c0.6,1.3,1,2.6,1.1,3.9
				c0.2,1.3,0.2,2.9,0.2,4.8V264.2z M280.1,264.2c0-3.2-0.1-5.2-0.2-6.3c-0.1-1-0.4-1.8-0.8-2.4c-1-1.4-2.5-2.2-4.5-2.2h-4.2V275
				h4.2c2.1,0,3.6-0.7,4.5-2.2c0.3-0.5,0.5-0.9,0.6-1.4c0.1-0.4,0.2-1.2,0.3-2.3C280.1,268.1,280.1,266.5,280.1,264.2z"/>
		</g>
	</g>
	<g>
		<g>
			<path class="st1" d="M158.1,314h-7v-16.7h6.7c1.6,0,2.9,0.4,3.8,1.3c0.9,0.8,1.4,2,1.4,3.4c0,0.8-0.2,1.6-0.6,2.2
				c-0.4,0.6-0.9,1-1.4,1.3c0.6,0.3,1.2,0.7,1.6,1.3c0.4,0.6,0.7,1.4,0.7,2.4c0,1.5-0.5,2.7-1.4,3.5
				C160.9,313.6,159.6,314,158.1,314z M157.6,300.2h-3.2v3.8h3.2c0.7,0,1.2-0.2,1.6-0.5c0.4-0.3,0.6-0.8,0.6-1.4
				c0-0.6-0.2-1-0.6-1.4C158.8,300.4,158.2,300.2,157.6,300.2z M157.8,307h-3.4v4.1h3.4c0.7,0,1.2-0.2,1.6-0.6
				c0.4-0.4,0.6-0.9,0.6-1.5c0-0.6-0.2-1.1-0.5-1.5C159,307.2,158.5,307,157.8,307z"/>
			<path class="st1" d="M176.6,312.3c-0.6,0.6-1.3,1.1-2,1.4c-0.7,0.3-1.6,0.5-2.5,0.5c-0.9,0-1.8-0.2-2.5-0.5
				c-0.7-0.3-1.4-0.8-2.1-1.5c-0.7-0.7-1.1-1.5-1.3-2.4c-0.2-0.9-0.2-2.3-0.2-4.1c0-1.8,0.1-3.2,0.3-4.1c0.2-0.9,0.6-1.7,1.3-2.4
				c0.7-0.7,1.4-1.2,2.1-1.5c0.7-0.3,1.6-0.5,2.5-0.5c0.9,0,1.7,0.2,2.5,0.5c0.7,0.3,1.4,0.8,2.1,1.5c0.7,0.7,1.1,1.5,1.3,2.4
				c0.2,0.9,0.3,2.3,0.3,4.1c0,1.8-0.1,3.2-0.3,4.1C177.8,310.7,177.4,311.5,176.6,312.3z M174.2,301c-0.5-0.6-1.2-0.9-2.1-0.9
				c-0.5,0-0.9,0.1-1.2,0.2c-0.4,0.2-0.7,0.4-1,0.7c-0.3,0.3-0.5,0.8-0.6,1.4c-0.1,0.6-0.2,1.7-0.2,3.3c0,1.6,0,2.7,0.1,3.3
				s0.4,1.1,0.8,1.6c0.4,0.5,1.1,0.7,2,0.7c0.9,0,1.5-0.2,1.9-0.7c0.4-0.5,0.7-1,0.8-1.6c0.1-0.6,0.2-1.7,0.2-3.2
				c0-1.6-0.1-2.7-0.2-3.2C174.7,301.8,174.5,301.3,174.2,301z"/>
			<path class="st1" d="M181.6,314v-16.7h3.2v13.8h7.5v2.9H181.6z"/>
			<path class="st1" d="M197,295.7h-2l1.5-4h3.2L197,295.7z M195,314v-16.7h3.2V314H195z"/>
			<path class="st1" d="M208.2,314h-2.4l-5.5-16.7h3.4l3.3,10.8l3.3-10.8h3.4L208.2,314z"/>
			<path class="st1" d="M225.2,314l-1-3h-5.9l-1,3h-3.4l6.1-16.7h2.5l6.1,16.7H225.2z M221.3,302.2l-2.1,6.1h4.1L221.3,302.2z"/>
			<path class="st1" d="M239.4,314l-3.2-6.7h-2.3v6.7h-3.2v-16.7h6.5c1.7,0,3,0.5,3.9,1.5c1,1,1.5,2.2,1.5,3.6c0,1.1-0.3,2-0.9,2.8
				c-0.6,0.8-1.3,1.3-2.2,1.6l3.7,7.2H239.4z M236.9,300.2h-3.1v4.4h3.1c0.7,0,1.3-0.2,1.7-0.6c0.4-0.4,0.7-0.9,0.7-1.6
				c0-0.7-0.2-1.2-0.6-1.6C238.2,300.4,237.6,300.2,236.9,300.2z"/>
		</g>
	</g>
	<g>
		<path class="st0" d="M195.7,2.9c55.5,0,99.1,50.9,86.6,108.6c-6.5,30-36.8,60.3-66.8,66.8c-57.7,12.5-108.6-31.1-108.6-86.6
			C106.9,42.6,146.7,2.9,195.7,2.9"/>
		<g>
			<g>
				<path class="st1" d="M179.5,79.9l-2.7-0.7c-2.5-0.7-5.1-0.5-7.5,0.3c-1.8,0.7-3.4,2-4.4,3.7l-2.4,4l10.4,14.8
					c0.2,0.3,0.6,0.5,1,0.5l12.6,1.1l1.2-2.6C188.1,100.1,192.4,85.3,179.5,79.9z"/>
				<path class="st1" d="M116.9,109.1l2.8,0.9c0.4,0.1,0.8-0.1,0.8-0.5c0.2-1.7,0.6-5.8,1.2-9c1.3-6.9,4.8-15.1,6.3-18.4
					c0.4-0.9,0.5-2,0.1-3l-7.3-17.5c-3.8,9.2-5.9,19.3-5.9,29.9C114.9,97.5,115.6,103.4,116.9,109.1z"/>
				<path class="st1" d="M171.1,23c0.9-0.9,1.7-1.8,2.5-2.6c0.9-0.9,1.7-1.5,2.6-2.1c0.4-0.3,0.9-0.6,1.3-1c2.1-1.8,4.7-3.3,7.5-4.7
					c-11,1.4-21.3,5.1-30.4,10.4H171.1z"/>
				<path class="st1" d="M169.6,104.5c-0.9-1-2.4-3-2.9-3.6c-1.8-2.3-4.6-6-7.5-10c0,0-1.6,1.8-1.6,1.8l-2-1.4
					c-1.8-1.8-2.9-3.6-3.5-5.5l0-0.1c-0.1-0.2-0.2-0.5-0.3-0.8c-0.2-0.5-1.7-4.7-1.9-5.3c-0.1,0-11.6,2.5-16.2,3.5
					c-1.2,0.3-3.3,4.4-3.8,5.5c-1.6,3.7-2.8,7.9-4.3,16.3c-0.3,1.4-0.5,5.3-0.6,6.3c0,0.7,0.1,1.4,0.4,2c0.6,1.3,1.7,3.7,3.4,6.1
					c4.4,6.4,8.6,10.7,10.9,12.8c9.3-1.9,18.4-5.2,25.4-9.1c1.7-0.9,2.9-2.5,3.3-4.4l0-0.1C169.4,114.6,169.8,104.8,169.6,104.5z"/>
				<path class="st1" d="M173.4,106c0,0,0.5,8.5-0.8,12.9c3.8-3.1,9.4-8.4,11.9-11.7C183.3,107.6,177.8,106.4,173.4,106z"/>
				<path class="st1" d="M123.7,55.4c1.9,4.7,6,16.2,7.9,20.8c0.5,1.2,1.9,2.3,3.2,2c3.6-0.6,11.1-2.3,13.5-2.8
					c-2.3-12.5,1.9-21.6,6.1-27.2c2.5-3.3,5.6-6.2,8.4-8.1l0-1.4c0.1-4.1,4.4-10.6,4.5-10.9c0.1-0.2,0.3-0.4,0.5-0.7
					c-1.4,0-3-0.1-4.3-0.1l-0.1,0c-2.6-0.1-14-0.2-14-0.2l-0.7,0C138.2,34.2,129.6,44,123.7,55.4z"/>
				<path class="st1" d="M134.3,133.9c-0.3-0.3-7.8-7.5-12.8-18.2c-0.2-0.4-0.6-0.8-1-0.9l-2.3-0.6c2.2,7.4,5.5,14.3,9.7,20.6
					C129.6,134.6,133.6,134.1,134.3,133.9z"/>
			</g>
			<g>
				<path class="st1" d="M201.8,34.4c0,0,0.1-0.1,0.1-0.1C201.2,33,202.5,38.5,201.8,34.4z"/>
				<path class="st1" d="M221.9,160c6.7-4.8,12-9.2,17-15.9c5.5-7.5,5.5-6.6,10.7-17.1c1.2-2.4,5.2-13.2,5.2-15.3
					c0-3.9-12.5-16-16-18.9c-3.4-2.8-2.6-1.5-4,5c-0.7,3.1-1.5,6.3-2.5,9l-3.3,8.3c-1.6,3.9-6.3,11.6-8.7,14.8
					c-4.4,5.8-8.7,10.4-14.1,14.8c-5.4,4.5-11.5,8.6-18,11.6c-1.4,0.7-2.4,1.1-3.9,1.8c-0.7,0.3-1.4,0.6-2,0.8
					c-2.1,0.9-8.9,3-11.3,3.5c-1.1,0.2-5.6,1.2-8.1,1.7c10.1,4.4,21.2,6.9,33,6.9c1.3,0,2.7,0,4-0.1c0.7-0.1,1.4-0.3,2-0.5
					C208.9,167.9,216,164.3,221.9,160z"/>
				<path class="st1" d="M190,61.1c-12,1.6-19.6,7.3-23.6,16C174.3,71.8,182.2,66.5,190,61.1z"/>
				<path class="st1" d="M207,43.8c3.9-4-0.5-12.8-5-9.5c0.2,0.4,0.5,1.2,1,2.8c0.3,1,1.1,1.6-0.3,3c-2.7,2.7-4.6-0.4-5.6-1.3
					C194.3,44.1,203,47.9,207,43.8z"/>
				<path class="st1" d="M200.1,54.1c-15.8-0.8-28.6-13-30.9-13.3c-2.4-0.3-24.4,12.3-16.6,38.5c0.6,1.9,1.1,3.4,1.8,5.3
					c0.8,2.3,1.4,3.5,2.9,5.1c9.2-10.2,3.2-27.7,36.2-32.2C198.8,56.8,199.2,56.5,200.1,54.1z"/>
				<path class="st1" d="M184.7,153.7c12.4-5.9,22.8-13.5,31.2-24.4c4.7-6.1,8.3-12.5,11.3-19.6c2-4.8,3.1-9,4.2-14.1
					c1.3-5.9,2-7-2.2-9.7c-10-6.5-22.4-10.5-34.3-11.7c-0.8-0.1-13.3-0.9-17.4,0c-1.1,0.3-1.3,0.2-1.5,1.2c2.4,1.2,10.8,0.1,15,8.9
					c3.4,7.2,2.4,15.1-1.3,21.9c-3.5,6.5-6.6,8.4-11.6,12.8l-8.6,6.1c-5.6,3.4-11.4,6-17.8,8.3c-6.8,2.4-14.8,3.4-21.8,4.1
					c6.9,9.6,16,17.6,26.5,23.3C164.1,160.9,177.9,156.9,184.7,153.7z"/>
				<path class="st1" d="M276.5,90.7c-1.5-4.3-8.4-12.1-10.6-14.6c-2-2.3-6.9-6.6-9.4-8.5c-4.2-3.2-9.7-6-14.6-8
					c-9.2-3.8-25-6.2-34.2-2.2c-1.1,0.5-2.2,0.9-3.1,1.4c-0.2,0.1-0.6,0.3-0.8,0.4c-5,2.5-8.7,3.9-14.4,7.1l-4.4,2.5
					c-0.9,0.5-2.2,1.5-2.2,1.5c2.6,0,8.1-0.4,13.7,0.4c38.9,5.7,50.3,23.1,58.5,34c5.1,6.8,7.7,12.1,11.1,19.8
					c0.4,0.9,0.9,3.3,1.1,4.2c6-11.1,9.4-23.7,9.4-37.1C276.5,91.2,276.5,90.9,276.5,90.7z"/>
				<path class="st1" d="M210.2,52.1c0.7-0.1,11.7-1.1,22.1,0.8c2.7,0.5,5.4,1.3,8.1,2.2c13.5,4.3,21.1,11.2,30.2,20.8
					c1.8,1.9,4.5,5.1,5.4,6.1c-4.3-35.7-32.8-64.2-68.8-69.3c-7.7-1.1-15.7,0.1-22.6,3.8c-1.8,1-3.5,2.1-4.9,3.3
					c-1.3,1.1-2.5,1.8-3.6,2.9c-2,2-4.2,4.3-5.9,6.9c-1.1,1.7-3.9,6.6-4,9.2c2.1-0.4,2.9-1.8,5.5-0.6c3.9,1.7,12.8,11.5,29.7,13.4
					C206.5,52.2,204.8,52.6,210.2,52.1z M193.7,42.2c-2.7-0.1-3.2-0.9-6.1-1.8c-1.2-0.4-1.8-0.7-3.1-0.9c-1.5-0.2-2.2,0-2.4-1.6
					c1.3-1.1,4.8-2,6.5-2.5c13.6-4.2,10.9-8.6,18.7-8.6c5.1,0-0.5,2.6-1,4.5c1.6,2.4,4.2,2.7,4.2,8.8c0,4-4.5,8-8.6,8
					C197.6,48.1,195.4,45,193.7,42.2z"/>
				<path class="st1" d="M264.7,132.9c0.2-1.8-0.6-3.7-2.1-7.3c-0.7-1.6-1.5-3.5-2.2-4.9c-0.8-1.5-1.4-3.7-2.6-4.5l-3.4,8.8
					c-2.7,6.2-4.8,10.6-8.6,16.1l-2.6,3.7c-4.1,5.7-10.2,11.2-15.3,15.6c-2.4,2-5,3.5-7.4,5.1c-1.2,0.8-2.6,1.6-3.9,2.3
					c-0.7,0.4-1.2,0.7-1.7,1C235.9,163.7,253.7,150.5,264.7,132.9z"/>
			</g>
		</g>
	</g>
</g>
</svg>
