<svg xmlns="http://www.w3.org/2000/svg" viewBox="0 0 1150.84 1379"><metadata xmlns:fl="https://football-logos.cc/argentina/san-telmo">dl1_a9f13fb4b53c1f7b67b8b7339b66b93ca35abdba793f0a433314e38299073ace</metadata><!-- Source: https://football-logos.cc --><path fill="#104185" fill-rule="evenodd" d="M576.43 0c9.52 6.1 19.36 12.52 28.93 17.66 59.8 32.09 125.93 50.42 193.51 54.96 47.45 3.2 95.01.66 142.38-6.64q71.09-10.94 140.77-32.48 32.38-10.01 68.07-21.52a.529.526-8.896 0 1 .69.5q-.07 994.47.04 1014.17.18 33.71-1.51 48.65c-6.37 56.22-32.04 109.91-73.51 148.11-36.91 33.99-82.65 53.67-132.66 59.52q-14.68 1.72-49.4 1.68-87.95-.08-191.37-.09-18.12 0-25.64 1.28-28.18 4.82-51.14 23.05-7.9 6.27-12.06 12.43-7.91 11.69-37.6 57.72h-.82q-16.08-24.74-32.22-49.43-6.74-10.3-10.67-14.29c-11.51-11.69-26.42-20.04-41.88-25.36q-15.54-5.34-31.84-5.35-110.43-.08-205.22.02-31.34.04-45.97-1.67c-39.15-4.56-76.71-17.82-109.02-40.57q-25.81-18.17-44.17-40.72Q4.59 1140.8 0 1060.27V11.89q34.52 10.98 69.07 21.67 47.71 14.75 94.66 24.47 41.49 8.6 83.25 12.79 55.6 5.57 111.01 1.4C421.6 67.44 483.54 50 539.45 20.72Q556.11 12 575.42 0zm-1.117 1335.899q.182 0 .343-.091a.295.26-1.201 0 0 .074-.068q5.62-8.01 11.89-17.82 7.78-12.19 11.95-16.75c19.62-21.42 47.3-35.04 75.28-39.32q9.45-1.45 36.86-1.43 70.71.05 187.4.09 29.81.01 43.18-1.59 37.66-4.5 71.1-21.08 57.78-28.65 89.15-87.33 19.34-36.18 24.21-77.18 1.45-12.22 1.44-46.67-.06-432.89-.02-962.41 0-4.77-.15-10.33-.21-7.64-6.34-9.1-2.93-.69-9.83 1.58c-40.83 13.45-82.93 24.69-123.16 32.85q-35.49 7.19-64.08 10.5-25.63 2.96-41.36 3.94-23.59 1.47-48 1.4-58.3-.17-112.86-11.86-75.69-16.22-143.942-56.34-1.099-.646-3.145-.646-2.045 0-3.144.646-68.252 40.121-143.942 56.342-54.559 11.691-112.859 11.862-24.41.07-48-1.4-15.73-.979-41.361-3.939-28.59-3.31-64.08-10.499c-40.23-8.16-82.33-19.399-123.16-32.848q-6.9-2.27-9.83-1.58-6.13 1.46-6.34 9.1-.15 5.56-.15 10.33.048 529.52-.006 962.41-.01 34.45 1.441 46.67 4.87 41 24.211 77.18 31.37 58.679 89.151 87.328 33.44 16.58 71.1 21.079 13.37 1.6 43.18 1.59 116.69-.042 187.4-.093 27.41-.02 36.86 1.429c27.98 4.28 55.661 17.9 75.281 39.319q4.17 4.56 11.95 16.75 6.27 9.81 11.89 17.82a.295.26 1.201 0 0 .074.068q.162.091.344.091" data-source="https://football-logos.cc"></path><path fill="#01a8e5" fill-rule="evenodd" d="M575.303 26.244q2.046 0 3.145.646Q646.7 67.01 722.39 83.23q54.56 11.69 112.86 11.86 24.41.07 48-1.4 15.73-.98 41.36-3.94 28.59-3.31 64.08-10.5c40.23-8.16 82.33-19.4 123.16-32.85q6.9-2.27 9.83-1.58 6.13 1.46 6.34 9.1.15 5.56.15 10.33-.04 529.52.02 962.41.01 34.45-1.44 46.67-4.87 41-24.21 77.18-31.37 58.68-89.15 87.33-33.44 16.58-71.1 21.08-13.37 1.6-43.18 1.59-116.69-.04-187.4-.09-27.41-.02-36.86 1.43c-27.98 4.28-55.66 17.9-75.28 39.32q-4.17 4.56-11.95 16.75-6.27 9.81-11.89 17.82a.295.26-1.201 0 1-.074.068q-.161.091-.343.091t-.344-.091a.295.26 1.201 0 1-.074-.068q-5.62-8.01-11.89-17.82-7.78-12.19-11.95-16.75c-19.62-21.419-47.301-35.039-75.281-39.319q-9.45-1.449-36.86-1.429-70.71.051-187.4.093-29.81.01-43.18-1.59-37.66-4.499-71.1-21.079-57.781-28.649-89.151-87.328-19.341-36.18-24.211-77.18-1.451-12.22-1.441-46.67.054-432.89.006-962.41 0-4.77.15-10.33.21-7.64 6.34-9.1 2.93-.69 9.83 1.58c40.83 13.449 82.93 24.688 123.16 32.848q35.49 7.189 64.08 10.499 25.631 2.96 41.361 3.939 23.59 1.47 48 1.4 58.3-.171 112.859-11.862 75.69-16.221 143.942-56.342 1.099-.646 3.144-.646M469.57 521.64a.669.667-16.375 0 0 1.03.56l209.18-133.76a3.671 3.661 73.75 0 0 1.69-3.09V110.79a1.491 1.482-81.966 0 0-1.07-1.43q-54.15-15.63-103.53-43.11a2.421 2.411 45.123 0 0-2.32-.01q-49.7 27.24-104.27 43.27a.99.99-8.243 0 0-.71.95zM57.14 786.14a.286.285-16.289 0 0 .44.24l195.38-124.95a2.171 2.155-16.422 0 0 1-1.82V129.06a.523.522 2.39 0 0-.48-.52c-66.42-5.74-132.37-19.87-195.79-39.25a.43.428 8.151 0 0-.55.41zm840.43-657.39v119.43a.652.647 73.602 0 0 1 .55l194.64-124.47a2.281 2.272 73.794 0 0 1.05-1.92V89.83a.534.533-8.479 0 0-.69-.51c-50.61 15.31-101.79 27.21-154.08 34.6q-21.2 3-41.69 4.58a.251.24 88.807 0 0-.23.25m195.86 26.58a.441.441 73.549 0 0-.68-.37L57.05 817.27a1.746 1.725 73.767 0 0-.79 1.46q-.11 127.93.03 240.02.02 10.64 2.4 23.75a.771.77 68.495 0 0 1.17.51l1032.62-657.22a2.051 2.038 73.965 0 0 .95-1.73zm.94 300.95a.788.785-16.289 0 0-1.21-.66q-68.76 43.81-193.84 123.44-1.8 1.14-1.8 3.44.01 513.51-.02 645.05a.561.56 1.061 0 0 .54.56q14.8.37 28.94-.4c28.21-1.56 56.67-9.81 81.53-24.25 46.81-27.18 77.19-76.98 84.39-130.09q1.47-10.86 1.47-37.78-.08-308.08 0-579.31m-624.79 771.49a.777.773 2.87 0 0 .7.77c39.4 3.56 76.91 20.67 104.73 49.05a1.005.998-45.199 0 0 1.44-.01c27.24-28.55 65.21-45.49 104.19-49a.893.885 87.233 0 0 .81-.9q-.07-5.18-.07-10.68.31-494.31.17-498.2-.02-.53-.51-.68-.14-.05-.47.16-7.32 4.64-210.32 133.73a1.447 1.427 74.168 0 0-.67 1.22zM253.95 990.76a.379.374 73.562 0 0-.58-.32L67.36 1108.82a.878.876-25.635 0 0-.36 1.02c11.26 32.62 31.75 61.94 59.07 82.63q31.05 23.51 70.33 31.37 27.14 5.43 56.88 4.18a.7.7-1.283 0 0 .67-.7z"></path><path fill="#104185" fill-rule="evenodd" d="M469.57 521.64V110.46a.99.99-8.243 0 1 .71-.95q54.57-16.03 104.27-43.27a2.421 2.411 45.123 0 1 2.32.01q49.38 27.48 103.53 43.11a1.491 1.482-81.966 0 1 1.07 1.43v274.56a3.671 3.661 73.75 0 1-1.69 3.09L470.6 522.2a.669.667-16.375 0 1-1.03-.56M57.14 786.14V89.7a.43.428 8.151 0 1 .55-.41c63.42 19.38 129.37 33.51 195.79 39.25a.523.522 2.39 0 1 .48.52v530.55a2.171 2.155-16.422 0 1-1 1.82L57.58 786.38a.286.285-16.289 0 1-.44-.24M897.57 128.75a.251.24 88.807 0 1 .23-.25q20.49-1.58 41.69-4.58c52.29-7.39 103.47-19.29 154.08-34.6a.534.533-8.479 0 1 .69.51v32.51a2.281 2.272 73.794 0 1-1.05 1.92L898.57 248.73a.652.647 73.602 0 1-1-.55zM1093.43 155.33v268.73a2.051 2.038 73.965 0 1-.95 1.73L59.86 1083.01a.771.77 68.495 0 1-1.17-.51q-2.38-13.11-2.4-23.75-.14-112.09-.03-240.02a1.746 1.725 73.767 0 1 .79-1.46l1035.7-662.31a.441.441 73.549 0 1 .68.37M760.549 416.514a.57.57-34.379 0 0-.174.786l15.588 24.498a.57.57-25.827 0 0 .788.174l43.229-27.645a.57.57 23.882 0 1 .787.173l64.293 100.535a.57.57 36.288 0 0 .792.169l40.646-26.615a.57.57 76.154 0 0 .168-.784l-64.218-100.414a.57.57 2.401 0 1 .174-.788l41.567-26.467a.57.57-47.764 0 0 .175-.787l-15.437-24.257a.57.57-31.992 0 0-.788-.174zm221.978-2.258a.7.7-31.146 0 0-.963-.229l-40.091 24.656a.7.7-50.019 0 0-.218.979l18.106 27.649a.7.7-35.827 0 0 .962.206l38.868-24.856a.7.7 37.618 0 0 .219-.957zM701.56 494.85a.353.349-51.626 0 0-.06-.54c-21.91-14.18-49.49-7.22-70.98 3.75-23.23 11.86-40.9 26.69-53.33 49.04q-2.87 5.16-3.5 8.67c-1.06 5.85-1.34 10.79.04 17 1.21 5.41 1.92 11.02 5.02 14.47q1.12 1.24 5.36 5.62c6.23 6.44 15.46 10.48 24.16 11.13a8.278 7.969-46.089 0 0 1.84-.07q14.91-2.25 23.61-5.47 19.45-7.19 38.84-15.67 7.96-3.47 11.74-4.31c6.22-1.38 25.86-4.41 22.29 9.05q-1.19 4.51-3.21 8.27c-2.39 4.47-6.5 7.65-10.87 10.96-11.07 8.38-22.61 14.88-36.46 15.92q-8.55.65-17.43-5.8a.613.605 40.873 0 0-.77.05L605.2 648a.494.493-48.152 0 0 .04.75q11.88 9 27.05 9.85 9.07.5 15.71-.61c15.05-2.51 28.68-8.28 42.05-15.67q25.62-14.16 44.99-36.97c3.55-4.18 8.28-9.64 10.63-14.43q7.6-15.53 2.08-31.07c-5.56-15.63-15.06-25.27-32.5-26.2-11.35-.6-21.76 1.12-32.75 4.52q-4.36 1.35-15.57 6.87-18.59 9.16-38.86 15.82a4.774 4.699 35.591 0 1-1.46.23c-4.65-.02-10.23-3.02-11.92-7.59-3.33-8.99 3.51-13.41 10.61-19.74 7.45-6.63 18.68-11.56 27.69-13.43 4.63-.96 11.83-.45 16.52 2.71q1.82 1.22 1.97 1.42a.54.531-41.662 0 0 .8.04zm86.543 82.03a.57.57-33.739 0 0 .787.173l38.93-24.896a.57.57 83.79 0 0 .173-.787l-17.946-28.07a.57.57-74.468 0 0-.787-.173l-38.93 24.896a.57.57 31.396 0 0-.173.787zM427.67 629.073a.37.37-84.628 0 0-.403-.004l-47.245 30.072a.37.37 57.448 0 0-.167.366l23.733 161.388a.37.37-37.982 0 0 .56.261l36.054-22.178a.37.37 69.353 0 0 .173-.369l-4.801-32.635a.37.37-65.467 0 1 .164-.364l55.238-36.176a.37.37 83.651 0 1 .407.001l27.967 18.542a.37.37 29.094 0 0 .403.004l44.027-28.025a.37.37-36.354 0 0 .005-.621zm171.355 29.075a.62.62 72.025 0 0-.853-.203l-40.249 24.761a.62.62 71.396 0 0-.193.868l18.194 27.773a.62.62-56.022 0 0 .853.183l39.01-24.952a.62.62-42.151 0 0 .194-.847zM284.81 785.83q-9.24-9.83-21.18-16.22c-16.93-9.05-34.84-6.36-52.32-1.03-35.65 10.86-68.64 39.15-76.66 76.8q-2.2 10.3-1.38 18.84c1.98 20.63 13.91 39.83 29.5 52.89 17.64 14.78 40.53 19.39 62.77 13.79q10.73-2.71 19.33-6.56 16.09-7.21 18.53-8.86 19.69-13.24 34.2-32.48 10.99-14.57 13.47-26.02 3.89-18.02-3.57-35.43a.624.623-26.929 0 0-.89-.29q-.09.05-39.71 22.96c-.67.39-1.21.37-1.77.57a.597.597 67.787 0 0-.34.81c4.41 9.54 4.94 21.67-1.63 30.5q-12.19 16.39-31.44 20.27c-6.83 1.38-13.66-.03-20.08-4.08q-16.75-10.54-25.65-27.96c-7.14-13.99-12.1-32.23-1.89-45.98 8.03-10.81 25.09-21.33 39.25-17.52 8.42 2.26 13.31 8.43 18.61 15.14a.593.583 53.013 0 0 .8.12l42-29.71a.37.363 50.767 0 0 .05-.55m68.12 68.074a.63.63-43.658 0 0 .867.206l40.141-24.68a.63.63 52.473 0 0 .197-.882l-18.284-27.917a.63.63-38.104 0 0-.866-.186l-38.913 24.872a.63.63-39.387 0 0-.198.86z"></path><path fill="#fff" fill-rule="evenodd" d="m760.549 416.514 127.59-81.596a.57.57.064 0 1 .788.174l15.437 24.257a.57.57-22.855 0 1-.175.787l-41.567 26.467a.57.57-18.739 0 0-.174.788l64.218 100.414a.57.57-83.778 0 1-.168.784l-40.646 26.615a.57.57-88.467 0 1-.792-.169L820.767 414.5a.57.57-80.895 0 0-.787-.173l-43.229 27.645a.57.57-48.728 0 1-.788-.174L760.375 417.3a.57.57-8.617 0 1 .174-.786M982.527 414.256l16.883 27.448a.7.7 81.21 0 1-.219.957l-38.868 24.856a.7.7-.193 0 1-.962-.206l-18.106-27.649a.7.7-1.463 0 1 .218-.979l40.091-24.656a.7.7 3.627 0 1 .963.229"></path><path fill="#104185" fill-rule="evenodd" d="M1094.37 456.28q-.08 271.23 0 579.31 0 26.92-1.47 37.78c-7.2 53.11-37.58 102.91-84.39 130.09-24.86 14.44-53.32 22.69-81.53 24.25q-14.14.77-28.94.4a.561.56 1.061 0 1-.54-.56q.03-131.54.02-645.05 0-2.3 1.8-3.44 125.08-79.63 193.84-123.44a.788.785-16.289 0 1 1.21.66" data-source="https://football-logos.cc"></path><path fill="#fff" fill-rule="evenodd" d="m701.56 494.85-29.28 29.65a.54.531-41.662 0 1-.8-.04q-.15-.2-1.97-1.42c-4.69-3.16-11.89-3.67-16.52-2.71-9.01 1.87-20.24 6.8-27.69 13.43-7.1 6.33-13.94 10.75-10.61 19.74 1.69 4.57 7.27 7.57 11.92 7.59a4.774 4.699 35.591 0 0 1.46-.23q20.27-6.66 38.86-15.82 11.21-5.52 15.57-6.87c10.99-3.4 21.4-5.12 32.75-4.52 17.44.93 26.94 10.57 32.5 26.2q5.52 15.54-2.08 31.07c-2.35 4.79-7.08 10.25-10.63 14.43q-19.37 22.81-44.99 36.97c-13.37 7.39-27 13.16-42.05 15.67q-6.64 1.11-15.71.61-15.17-.85-27.05-9.85a.494.493-48.152 0 1-.04-.75l32.65-31.08a.613.605 40.873 0 1 .77-.05q8.88 6.45 17.43 5.8c13.85-1.04 25.39-7.54 36.46-15.92 4.37-3.31 8.48-6.49 10.87-10.96q2.02-3.76 3.21-8.27c3.57-13.46-16.07-10.43-22.29-9.05q-3.78.84-11.74 4.31-19.39 8.48-38.84 15.67-8.7 3.22-23.61 5.47a8.278 7.969-46.089 0 1-1.84.07c-8.7-.65-17.93-4.69-24.16-11.13q-4.24-4.38-5.36-5.62c-3.1-3.45-3.81-9.06-5.02-14.47-1.38-6.21-1.1-11.15-.04-17q.63-3.51 3.5-8.67c12.43-22.35 30.1-37.18 53.33-49.04 21.49-10.97 49.07-17.93 70.98-3.75a.353.349-51.626 0 1 .06.54M788.103 576.88l-17.946-28.07a.57.57 37.401 0 1 .173-.787l38.93-24.896a.57.57 10.816 0 1 .787.173l17.946 28.07a.57.57-84.725 0 1-.173.787l-38.93 24.896a.57.57 8.719 0 1-.787-.173M427.67 629.073l136.115 90.262a.37.37-14.438 0 1-.005.621l-44.027 28.025a.37.37 12.983 0 1-.403-.004l-27.967-18.542a.37.37 72.608 0 0-.407-.001l-55.238 36.176a.37.37-22.692 0 0-.164.364l4.801 32.635a.37.37-78.992 0 1-.173.369l-36.054 22.178a.37.37 16 0 1-.56-.261l-23.733-161.388a.37.37-77.952 0 1 .167-.366l47.245-30.072a.37.37-87.775 0 1 .403.004m1.664 105.706a.44.44 65.483 0 0 .669.298l36.489-23.068a.44.44 6.945 0 0 .018-.732l-45.891-32.197a.44.44-1.889 0 0-.687.433zM599.025 658.148l16.956 27.583a.62.62-.499 0 1-.194.847l-39.01 24.952a.62.62-.461 0 1-.853-.183l-18.194-27.773a.62.62-84.395 0 1 .193-.868l40.249-24.761a.62.62-87.076 0 1 .853.203"></path><path fill="#104185" fill-rule="evenodd" d="m429.334 734.779-9.402-55.266a.44.44 44.293 0 1 .687-.433l45.891 32.197a.44.44 3.28 0 1-.018.732l-36.489 23.068a.44.44-71.379 0 1-.669-.298M469.58 1227.77V853.23a1.447 1.427 74.168 0 1 .67-1.22q203-129.09 210.32-133.73.33-.21.47-.16.49.15.51.68.14 3.89-.17 498.2 0 5.5.07 10.68a.893.885 87.233 0 1-.81.9c-38.98 3.51-76.95 20.45-104.19 49a1.005.998-45.199 0 1-1.44.01c-27.82-28.38-65.33-45.49-104.73-49.05a.777.773 2.87 0 1-.7-.77"></path><path fill="#fff" fill-rule="evenodd" d="M284.81 785.83a.37.363 50.767 0 1-.05.55l-42 29.71a.593.583 53.013 0 1-.8-.12c-5.3-6.71-10.19-12.88-18.61-15.14-14.16-3.81-31.22 6.71-39.25 17.52-10.21 13.75-5.25 31.99 1.89 45.98q8.9 17.42 25.65 27.96c6.42 4.05 13.25 5.46 20.08 4.08q19.25-3.88 31.44-20.27c6.57-8.83 6.04-20.96 1.63-30.5a.597.597 67.787 0 1 .34-.81c.56-.2 1.1-.18 1.77-.57q39.62-22.91 39.71-22.96a.624.623-26.929 0 1 .89.29q7.46 17.41 3.57 35.43-2.48 11.45-13.47 26.02-14.51 19.24-34.2 32.48-2.44 1.65-18.53 8.86-8.6 3.85-19.33 6.56c-22.24 5.6-45.13.99-62.77-13.79-15.59-13.06-27.52-32.26-29.5-52.89q-.82-8.54 1.38-18.84c8.02-37.65 41.01-65.94 76.66-76.8 17.48-5.33 35.39-8.02 52.32 1.03q11.94 6.39 21.18 16.22M352.93 853.904l-17.056-27.727a.63.63-1.455 0 1 .198-.86l38.913-24.872a.63.63 6.248 0 1 .866.186l18.284 27.917a.63.63-87.91 0 1-.197.882l-40.141 24.68a.63.63 4.401 0 1-.867-.206"></path><path fill="#104185" fill-rule="evenodd" d="M253.95 990.76v236.56a.7.7-1.283 0 1-.67.7q-29.74 1.25-56.88-4.18-39.28-7.86-70.33-31.37c-27.32-20.69-47.81-50.01-59.07-82.63a.878.876-25.635 0 1 .36-1.02l186.01-118.38a.379.374 73.562 0 1 .58.32" data-source="https://football-logos.cc"></path><!-- source: https://football-logos.cc --></svg>