<svg xmlns="http://www.w3.org/2000/svg" id="Layer_1" viewBox="0 0 246.679 484.864"><defs><style>.cls-2{fill:#fff}.cls-3{fill:#ffea08}</style></defs><path d="M246.679 181.008v211.457c0 93.279-101.225 46.64-123.34 92.399C101.225 439.104 0 485.744 0 392.465V181.008z"/><path d="M9.24 190.247v202.218c0 28.86 10.44 39.344 18.292 44.72 11.556 7.91 28.005 10.532 43.913 13.066 19.29 3.073 39.08 6.263 51.894 18.943 12.813-12.681 32.603-15.87 51.894-18.943 15.908-2.534 32.357-5.156 43.913-13.066 7.854-5.376 18.293-15.859 18.293-44.72V190.247zm110.225 266.721c-13.684-8.562-30.952-11.35-46.877-13.887C35.732 437.209 16.5 425.69 16.5 385.864v-62.9h102.965zm0-142.592H16.5V200.185h102.965zm110.714 71.488c0 39.826-19.232 51.345-56.088 57.217-15.926 2.537-33.193 5.324-46.878 13.887V322.964h102.966zm0-71.488H127.213V200.185h102.966z" class="cls-2"/><path d="M115.505 204.145v106.271H20.46V204.145zm15.668 122.779V450.27c13.232-6.459 28.554-8.91 42.295-11.099 19.957-3.181 31.866-7.634 39.818-14.891 8.822-8.052 12.933-20.259 12.933-38.416v-58.94z" class="cls-3"/><path d="m235.884 226.984-.099-.57-.032-.341-.225-1.176-.601-2.871.099.8-.131-.962c-.006-.025.065.632.065.632l-.05-.451-.188-.776-.159-.399v-.208l-.349-.696c-.151-.304-.44-.998-.506-1.218l-.237-.794-.182-.189-.487-1.169-.056-.056c-.099-.235-.279-.67-.279-.67l-.154-.288h-.002c0 .023.072.353.142.667l-.006-.005-.213-.896-.581-1.364-.146-.356-.07-.144.222 1.16-.085-.448-.264-1.028-.396-.792.349 1.476-.552-1.888-.455-.905-.25-.307-.43-.614.546.725-1.319-2.244.415 1.603-.604-1.909-.03-.104-.45-.721-.117-.133-1.328-2.195.204.359-.813-1.187.612.85-.394-.786-.258-.316-.429-.612.466.585-1.034-1.772-.173-.239-.046-.186-.854-1.498-.985-.37c-.014-.025-.031-.044-.058-.156l-.205-.873-.726-.762-3.901-4.159-.073-.076c-1.204-1.204-2.374-2.544-3.506-3.839l-.938-1.072-.044-.039s-1.918-1.816-2.095-1.982l-.003-.02-.082-.061-.028-.026h-.009l-1.123-.83-2.092-1.554c-.025-.185-.064-.452-.064-.452l-1.685-.984-.713-.43-.361-.279-.211-.053-.083-.063-.425-.247-1.72-.962.865.625-.971-.683h-.006c.125.095.463.346.587.438l-.244-.182-.389-.256H58.134c-.024.275-.047.55-.086.824l-.018.122.048-.298-.113 1.643-1.212.653.548 2.436.011.102-1.118.56.416 2.413.003.044-.572 1.103-.074.935.009.291-.288.221-.388.148h-1.721l-.634.169-1.594.4-.927.487-1.759 1.106-.618 2.194.245-1.204-.875 1.773 1.465 2.094-.528-.738.411 1.175.441.283.335.204.54-.036.943.026 3.13-.035s-.053 1.636-.048 1.638l-.054.103-.066.919.047 1.139-.562 1.096-.136.812-.14 2.658a146 146 0 0 0-.095 4.609q-.001.987.029 1.996l.012.381.613 2.298-.099-.799.158 1.04c.003.01-.092-.71-.092-.71l.046.354.297 1.112.446 1.233.203.32.082.369.33.66-.143-.603.298.471-.432-1.038-.072-.305 1.133 2.755-.653-.949 1.563 3.2.16.18.265.531.083.101.024.049.216.342.527.809.711 1.081.022.069-.017-.062.011.018-.059-.182-.305-1.058.024.081.41 1.333.228.34 1.752 2.679.099.009.361.531 1.293 1.955h.002v.412l3.342 1.599-.858-.618 1.056.75.624.312.285 1.329 2.128.303.121.395 1.872.935-.938-.658 2.531 1.098-1.477-.349 1.905 1.054-.848-.616 2.598 1.099-1.602-.415.728.405.244.105 1.007.442.768.446.9.007h1.364l.933.446.206.082.678.246.125.082.679.308.482.271.739.37.058.033.461.258.459.229c.132.09.269.169.431.251l2.11 1.266-.894-.651s1.324.561 2.021.854l-.006.082-1.12-.31 1.098.619-.117 1.63 2.736.645c1.47.346 3.23.628 5.138.099l-.883.12 1.036-.156-.622.08.843-.11 1.185-.644-.017.014.56-.375 1.173-.826-2.112.765 2.886-1.218-.407.273 1.305-.853.143-.114.048-.024-.039.032.044-.035 2.142-1.064s-.17.036-.238.052l1.439-.465.111-.015-.088.008.287-.093.378-.08 1.826-.51.173-.166 4.395-.154.259-.02 4.021-.51c.64-.007 1.174-.037 1.651-.157l.199-.049.044-.021.969-.374.434-.173 1.527-.298-.409.025.571-.098.341-.032 1.66-.316.122-.053.944-.352.639-.242-.499.124 2.157-.575-1.248.224 2.658-1.093-1.785.916 1.795-.51.223-.076-1.043.169.905-.225.534-.077 2.008-.771-1.335.28 2.658-1.093-1.2.762 1.143-.416.141-.109.771-.322-.226.085.948-.381.59-.245.212-.064.222-.097.783-.355.383-.192.524-.232-1.339.284 2.597-1.098-1.138.742 3.564-1.453.313-.205.228-.05.528-.264-.432.102.076-.05.678-.179c1.792-.831 3.709-1.722 5.636-2.754l.299-.16.146-.126.912-.456.901-.541.254-.21.579-.406-.592.471.439-.271 1.603-1.026.091-.021 1.621-1.047.347-.234.044-.037.095-.055 1.593-1.014.309-.27.206-.196 4.39-4.256.303-.552.524-.885.339-.554-.625.846 1.1-2.598-.434 1.636 1.234-2.222.027-.169.643-1.447.019-.081.659-1.907.029-.627-.022-.46.771-1.339-.049-1.248-.049-.803c.187-.331.992-1.745.992-1.745l-.281-.957.902-1.663-.249-.965.904-1.666-.269-1.062v-.04c.025-.073 1.136-.802 1.136-.802l.857.524-.016.113-.019.251-.193.979.487 1.071.411.724-.087 1.309.29.425.606 1.39.323 1.222-.046-.086.026.137.498 1.909.439 1.319-.126-.505.304 1.17.106.354.062.325-.121-.936 1.093 2.658-.916-1.788.513 1.803.075.22-.171-1.045.509 1.983-.207-.543.529 1.584.111.267.02.128.228.646.478 1.381.397.567-.02-.092.023.098.288.41-.285-.4.255 1.054.574 1.349.132.32c.027.05.297.468.527.826l-.327-1.264.384 1.351.023.037-.275-1.058.102.394.215.729.182.281-.162-.215.164.56.971 1.775.195.271.021.085.55.966.442.375c1.164.989 2.157 2.055 2.95 3.166l.266.372.357.286c.516.413 1.087.983 1.639 1.535l.357.357v.663l1.47.979a35 35 0 0 0 2.541 1.537l.098.079-.075-.065.059.036.282.213.807.484.075.075.165.069.397.238h.175l.658.274-.411-.274h.035l.614.39s-.3-.211-.558-.39l.045.03 1.033.569 1.471.471.537.091.334.18-.071-.014.396.122.542.152 1.02.415.889.329.671.03c.392 0 .707-.009 1.005-.026l.351.602 1.943.085 2.423.11 2.539.155.916-.681c.097-.069.139-.083.144-.085.004.013.229.061.686.36l.528.345.48.095.702.144 1.507 1.622 2.487 1.643 1.644-4.967-.609-2.095-.121-.668-.273-4.757-.03-1.151-.8-1.902-.315-.764-.101-.231-.246-.822-.176-.277-.064-.311-.331-.726.128.328-.476-1.125s-.03-.068-.05-.108l-.033-.696-.391-3.625 3.648 2.489.277.036.423.189.478.209.456.26.166.025.014.006.286.107 1.741.581.863-.346.504.462 2.09.334.059 1.047 2.677 1.129.059.82 1.675.743.816.364v1.332l2.523.603.54.213.403.165.273 1.092 1.387.786.644.368 3.647 2.653 1.435-4.271.415-1.246-.352-3.93.041.569Zm-177.54-.66.018.06zm28.9 19.61-.022-.039.228.097zm12.757-.711-.11.085.188-.15zm1.631-.793-1.114.242 1.891-.504-.776.262Zm24.163-5.104.02-.004zm4.461-1.518.184-.084zm7.782-3.568-.296.07.357-.094-.062.024Zm30.678-26.241-.219-1.079 1.033 2.597zm19.452 29.28-.549-.366.596.377q-.024-.005-.047-.011m1.817.481.311.13zm35.189-34.477.072.176zm7.344 13.247-.066-.276.006.006.126.56-.065-.29Zm3.29 10.127.01.063z" class="cls-2"/><path d="m29.304 134.914.132.066c.264.198.792.462 1.122.66l.132.066c.264.132.858.462 1.188.594l.132.066c.264.132.792.396 1.056.462l.264.065c7.722 1.914 15.444 4.026 23.364 5.148.858-.33 1.716-.33 2.508.132.528.33 1.122.792 1.65 1.254-.173.797-.052 1.535-.264 2.574.396 5.808-1.782 11.418-.924 17.291-.132 6.402 2.574 12.606 1.65 19.008-.066.33-.066.99-.066 1.254.33.924.132 1.65-.726 2.112.066.264.132.924.132 1.188.264.924 0 1.65-.792 2.046.066.33.066.99.132 1.254-.198.396-.528 1.056-.726 1.386 0 .528.066 1.452.066 1.98-.198.264-.66.858-.858 1.187-.264.066-.858.132-1.122.198-.33.198-1.056.462-1.452.594h-1.914a14 14 0 0 1-1.584.396 9 9 0 0 1-1.056.66c0 .065-.066.198-.132.33.132.132.264.528.33.726.066.066.264.132.33.198.99.264 1.98.461 3.036.726.066 0 .198 0 .265.065l.594.066c1.056-.33 1.716 0 1.914.99.132.396.264 1.32.33 1.716-.198.396-.528 1.056-.726 1.386 0 .462 0 1.452.066 1.914-.198.33-.528 1.056-.726 1.386-.066.858-.066 1.65-.132 2.508-.066 2.112-.132 4.224-.066 6.402.132.528.396 1.452.528 1.98 0 .066.066.198.066.33.198.396.462 1.188.594 1.584a.7.7 0 0 1 .132.33l.33.66c0 .066.066.264.132.33.462.924.924 1.914 1.386 2.838.066.066.132.198.198.265l.264.528c.066.066.132.198.198.33.33.462.924 1.452 1.254 1.914 0 .066.132.198.132.264.264.396.858 1.254 1.122 1.716.065 0 .132.132.198.198.528.726.99 1.452 1.518 2.244.924.066 1.452.594 1.452 1.517.396.198 1.122.528 1.518.726a1 1 0 0 0 .198.132l.528.264c.924 0 1.452.462 1.65 1.386l.462.066c.924-.066 1.518.396 1.782 1.254l.528.264c.066.066.132.132.198.132.528.264 1.452.792 1.914 1.056a.5.5 0 0 0 .264.132l.594.33c.33.132 1.122.462 1.452.66h2.112c.396.198 1.122.528 1.518.726l.726.264c.066.066.264.132.396.198l.726.33c.132.066.33.198.462.264l.792.396c.132.066.33.198.462.264l.66.33c.066.066.264.198.33.198.528.33 1.518.923 1.98 1.188a.5.5 0 0 0 .264.131c.33.198 1.122.66 1.518.858.924.198 1.32.725 1.254 1.649 1.122.265 2.31.462 3.498.132.066 0 .198-.065.33-.065.396-.33 1.32-.857 1.716-1.187a.5.5 0 0 0 .264-.133c.396-.265 1.254-.857 1.716-1.121.066-.066.198-.133.264-.199.792-.461 1.65-.857 2.508-1.253.066 0 .198-.066.33-.132.33-.066 1.056-.33 1.386-.462.066 0 .264-.066.33-.066.33-.132 1.056-.33 1.386-.396.594-.726 1.32-.924 2.244-.528 1.254-.066 2.508-.132 3.828-.132 1.056-.132 3.102-.396 4.158-.528.264 0 .857 0 1.122-.066.396-.132 1.122-.462 1.518-.594.528-.132 1.518-.33 2.046-.396.065 0 .198-.066.264-.066.33-.066 1.056-.198 1.386-.264.396-.132 1.188-.462 1.584-.594.395-.066 1.056-.264 1.452-.396a.7.7 0 0 0 .33-.132c.395-.066 1.122-.33 1.517-.462.132 0 .265-.132.396-.132a30 30 0 0 0 1.717-.66.7.7 0 0 0 .33-.132l.726-.264c.066-.066.265-.132.396-.198l.791-.33c.396-.132 1.188-.528 1.65-.66l.727-.33.395-.198.595-.264a.5.5 0 0 0 .263-.132c1.189-.462 2.377-.99 3.564-1.452a.5.5 0 0 1 .264-.132l.528-.264c.066 0 .198-.066.33-.132 1.849-.858 3.696-1.716 5.544-2.706.066-.066.198-.132.265-.198l.659-.33q.2-.098.396-.198l.66-.396c.066-.066.264-.132.329-.198.529-.33 1.519-.924 1.98-1.254a.5.5 0 0 1 .265-.132c.462-.264 1.319-.858 1.715-1.122.066-.066.198-.132.198-.132a49 49 0 0 1 1.452-.924c1.452-1.386 2.839-2.706 4.225-4.092.197-.396.66-1.122.857-1.452a.5.5 0 0 0 .132-.264c.264-.461.726-1.32.99-1.782 0-.066.066-.198.133-.33.131-.264.395-.858.527-1.188.132-.396.396-1.188.528-1.518 0-.33-.066-.99-.066-1.254.198-.396.594-1.056.792-1.386-.066-.528-.066-1.452-.132-1.98.198-.33.594-.99.792-1.386-.066-.264-.066-.924-.132-1.188.198-.396.594-1.056.791-1.452-.065-.264-.065-.924-.131-1.187.197-.396.594-1.056.791-1.452-.065-.264-.065-.858-.065-1.188.132-.396.395-1.122.528-1.518l.527-2.112c0-.066.066-.265.066-.33.132-.396.462-1.188.595-1.584 0-.132.065-.264.131-.395l.265-.594c.065-.132.132-.264.132-.33.462-.99.858-2.046 1.254-3.036.066-.396.198-1.122.198-1.518.792-.461 1.518-.99 2.441-.99l.198-.066.132.198c1.188 1.848.792 4.158.858 6.27.726.462.924 1.122.659 2.046-.065.461-.065 1.386-.131 1.913.792.396 1.056 1.122.792 2.046-.066.264-.066.924-.132 1.188.197.396.593 1.056.791 1.386-.065.33-.065.99-.065 1.32.132.33.462 1.121.66 1.517.065.33.197.99.329 1.32 0 .066 0 .198.066.264.066.33.198 1.056.33 1.386l.528 1.584c.065.396.33 1.056.396 1.452 0 .066.066.264.132.33.066.396.33 1.122.463 1.518 0 .132.065.264.131.396l.529 1.584c.065.132.131.264.131.396.132.396.462 1.254.595 1.716.066.066.132.264.197.396l.265.66c.065.131.132.33.132.461.198.396.594 1.32.726 1.716.066.132.133.33.198.396l.33.594c0 .132.132.264.132.33.33.528.858 1.518 1.122 2.046.066.066.133.132.133.198l.264.462c1.319 1.122 2.508 2.376 3.498 3.762.659.528 1.319 1.188 1.914 1.782.924.132 1.319.66 1.319 1.584.792.528 1.65 1.056 2.508 1.518.066.066.199.132.265.198l.66.396c.132 0 .33.132.395.198l.792.33c.066.066.33.132.395.198a49 49 0 0 1 1.651.528c.065 0 .264.066.329.132.396.066 1.057.33 1.387.396.395.198 1.187.461 1.518.594.33 0 .99 0 1.254-.066.924-.33 1.584-.066 2.046.726 1.32 0 2.64.132 3.96.198 1.387-.99 2.838-.924 4.555.198.264.065.726.132.989.198.132-.264.396-.792.528-1.122-.066-1.122-.132-2.244-.198-3.432-.792-.726-.989-1.848-.462-2.838-.132-.33-.462-1.056-.594-1.452a.7.7 0 0 0-.133-.33l-.197-.66a.7.7 0 0 1-.132-.33l-.331-.726c-.131-.396-.527-1.122-.659-1.518-.066-.924-.066-1.782-.132-2.64a2.66 2.66 0 0 1-.595-2.904l-.264-.528a.5.5 0 0 0-.132-.264c-.132-.396-.528-1.254-.727-1.65-.989.066-1.518-.33-1.716-1.254 0-.198-.132-.594-.197-.792h2.441c.33.198 1.122.594 1.519.726l.594.264c.132.066.264.066.396.132.395.132 1.187.462 1.583.66.133 0 .33.132.396.132l.594.33c.066 0 .198.066.265.132 1.187.594 2.375 1.254 3.563 1.914.066 0 .198.066.264.066.396.198 1.122.462 1.452.66.066 0 .198.066.33.132l.594.198c.99-.396 2.179-.198 2.97.528.396.066 1.255.198 1.651.264 1.187-.065 2.111.792 2.178 1.98.33.132.924.396 1.253.528.925.066 1.387.528 1.452 1.452.265.132.858.396 1.188.528.924.066 1.452.594 1.452 1.518.33.066.924.33 1.254.462.99.198 1.781.99 2.046 2.046.265.132.857.462 1.122.66l.198-.594c-.066-.99-.133-1.98-.264-2.97 0-.065-.066-.198-.066-.264-.265-1.32-.462-2.574-.792-3.894 0-.066-.066-.264-.066-.33l-.264-.66c-.066-.066-.133-.264-.133-.397-.197-.396-.593-1.32-.726-1.782-.065-.066-.197-.329-.197-.396l-.33-.792c-.066-.066-.198-.33-.198-.396l-.33-.792c-.066-.132-.198-.33-.198-.462a19 19 0 0 1-.726-1.716c-.066-.132-.198-.396-.198-.462l-.396-.792c0-.066-.131-.264-.197-.396l-.33-.66c-.066-.065-.133-.264-.198-.33-.33-.594-.99-1.65-1.32-2.244 0-.066-.132-.198-.132-.264l-.33-.528c-.065-.066-.132-.198-.197-.264-.33-.594-.99-1.65-1.32-2.178-.065-.132-.132-.264-.198-.33l-.264-.528c-.066-.066-.133-.264-.198-.33-.33-.528-.924-1.518-1.187-2.046a.5.5 0 0 1-.133-.264l-.264-.462c-1.056-.396-1.716-1.32-1.979-2.442-1.32-1.386-2.706-2.838-4.026-4.29-1.584-1.584-3.036-3.3-4.488-4.95-.396-.396-.857-.792-1.254-1.188-.858 0-1.452-.396-1.584-1.32-.594-.397-1.188-.858-1.782-1.32q-1.386 0-1.584-1.386c-.33-.198-1.056-.594-1.386-.858a.5.5 0 0 1-.264-.132c-.462-.264-1.452-.858-1.98-1.122-.065-.066-.264-.132-.33-.198l-.594-.264c-.066-.066-.198-.132-.264-.198l-.66-.33c-3.366-1.98-6.798-3.96-9.966-6.204a4 4 0 0 1-.243-.209c-1.107-1.048-1.289-2.636-1.383-4.076-.048-.745-.067-1.495-.175-2.235-.048-.333-.159-.661-.2-.992-.06-.487-.051-.964-.161-1.449-.097-.424-.324-.772-.508-1.161-.174-.371-.299-.811-.552-1.138-.211-.273-.541-.481-.779-.734-.181-.192-.347-.39-.539-.572-.303-.287-.568-.609-.87-.892-.41-.384-.813-.81-1.31-1.08-.319-.174-.691-.26-1.028-.372-.37-.123-.727-.157-1.079-.359-.454-.26-.607-.395-1.186-.437-.021-.863.12-1.692.118-2.551 0-.964.025-1.928.065-2.891.041-.964.098-1.928.157-2.891.056-.916 0-1.923.168-2.824.205-1.099.283-1.515.33-2.046.198-.792.33-1.65.463-2.442 1.122 0 2.244-.132 3.432-.198.462-.066 1.518-.198 2.046-.264.065-.066.132-.066.198-.066l.594-.066c.528-.99 1.518-1.518 2.64-1.518l.594-.33a.5.5 0 0 0 .265-.132l.66-.33c.065-.066.264-.132.33-.198l.726-.33a50 50 0 0 0 1.65-.528c.396-.132 1.188-.462 1.584-.594.132 0 .33-.132.396-.132l.726-.265c.132-.065.33-.132.396-.198l.792-.33c.132-.066.33-.132.395-.198.397-.198 1.189-.528 1.585-.726a.5.5 0 0 1 .33-.132c.527-.33 1.584-.857 2.111-1.187.066-.066.264-.132.33-.198l.726-.33c.066-.066.264-.132.396-.198l.66-.33c.132-.066.33-.198.395-.198l.66-.33q.594-1.287 1.98-1.386l.462-.264a.5.5 0 0 0 .264-.132c.661-.33 1.32-.726 2.047-1.056.197-1.122 1.187-1.848 2.375-1.716h.462c0-.924.463-1.386 1.452-1.386a30 30 0 0 1 2.31-1.716c.065-.066.198-.132.264-.198l.462-.264c.066-.066.198-.132.265-.198.989-.66 1.914-1.32 2.904-1.914.065 0 .197-.066.197-.066l.462-.264c.462-.99 1.32-1.782 2.442-2.046.329-.198.989-.66 1.386-.924 0 0 .132-.066.198-.066.33-.264 1.056-.66 1.386-.858.132-.924.66-1.386 1.584-1.452.726-.528 1.452-1.056 2.244-1.518 0-.066.132-.132.198-.132l.461-.33c.397-.858 1.057-1.32 1.981-1.254l.462-.396c.066-.066.198-.132.265-.198.264-.198.857-.66 1.122-.924.065 0 .197-.132.264-.198l.396-.33c.461-1.122 1.583-1.914 2.838-1.848l.264-.462c0-.066.066-.132.066-.198.725-3.168.263-6.336-.066-9.504-.132-.33-.396-1.056-.528-1.386l-.065-.198c-2.641-5.94-6.931-10.89-10.626-16.17-2.376-3.498-5.347-6.534-8.712-9.042l-.33-.264c-1.518-.924-2.904-2.112-4.29-3.234l-.462-.132c-.925 0-1.519-.395-1.782-1.32l-.66-.198c-.132-.066-.265-.132-.395-.132l-.727-.33c-.132-.065-.33-.132-.395-.198l-.727-.264c-.066-.066-.264-.132-.395-.198l-.595-.264c-9.371-4.29-17.951-10.032-26.598-15.576-2.706-2.64-4.62-5.874-6.601-9.041l-.33-.396c-6.533-9.57-17.159-14.652-26.136-21.45-15.642-10.626-33.264-19.338-52.338-20.988A31 31 0 0 0 92.8 1.98c-4.505-.028-9.026.9-13.141 2.739a29 29 0 0 0-5.783 3.423 27 27 0 0 0-2.542 2.207c-.703.692-1.126 1.59-1.66 2.429-.239.376-.246.925-.617 1.204-1.205.909-.848-1.701-.843-2.298.01-1.176.404-2.101.417-3.258.026-2.281.46-5.403-1.181-7.234-1.716-1.914-5.082-1.386-6.666.528-3.499 3.696-6.798 7.656-10.296 11.418-.412.512-.742 1.114-1.061 1.727-.956 1.841-2.346 7.23-2.346 7.23s-2.071 5.628-2.599 10.117c-5.478 15.906-7.722 32.67-12.54 48.774-2.64 10.164-9.108 18.876-11.88 29.04-1.518 5.412-2.904 11.814.396 16.83 1.98 3.63 5.478 5.808 8.844 8.052Z"/><path d="M60.522 143.494c.095.059.194.127.293.195.012-.087.018-.173.037-.261a13.6 13.6 0 0 0-1.65-1.254c-.792-.462-1.65-.462-2.508-.132-7.92-1.122-15.642-3.234-23.364-5.148l-.264-.065c-.264-.066-.792-.33-1.056-.462l-.132-.066c-.33-.132-.924-.462-1.188-.594l-.132-.066c-.33-.198-.858-.462-1.122-.66l-.132-.066c-1.977-1.318-3.992-2.621-5.726-4.202 1.971 2.219 4.543 3.854 7.046 5.521l.132.066c.264.198.792.462 1.122.66l.132.066c.264.132.858.462 1.188.594l.132.066c.264.132.791.396 1.056.462l.264.066c7.722 1.914 15.444 4.026 23.364 5.148.858-.33 1.716-.33 2.508.132M239.513 104.29c-.131-.33-.395-1.056-.527-1.386l-.065-.198a36 36 0 0 0-1.058-2.172c.135.283.27.565.397.853l.065.198c.132.33.396 1.056.528 1.386.329 3.168.792 6.336.066 9.504 0 .066-.066.132-.066.198l-.264.462c-1.255-.066-2.377.726-2.838 1.848l-.396.33c-.066.066-.198.198-.264.198-.265.264-.858.726-1.122.924-.066.066-.198.132-.265.198l-.462.396c-.924-.066-1.584.396-1.981 1.254l-.461.33c-.066 0-.198.066-.198.132-.792.462-1.518.99-2.244 1.518-.924.066-1.452.528-1.584 1.452-.33.198-1.056.594-1.386.858-.066 0-.198.066-.198.066-.396.264-1.057.726-1.386.924-1.122.264-1.98 1.056-2.442 2.046l-.462.264s-.132.066-.197.066c-.99.594-1.915 1.254-2.904 1.914-.066.066-.198.131-.265.198l-.462.264c-.065.066-.198.132-.264.198a30 30 0 0 0-2.31 1.716c-.989 0-1.452.461-1.452 1.386h-.462c-1.187-.132-2.178.594-2.375 1.716-.727.33-1.386.726-2.047 1.056a.5.5 0 0 1-.264.132l-.462.264q-1.387.099-1.98 1.386l-.66.33c-.065 0-.264.132-.395.198l-.66.33c-.132.066-.33.132-.396.198l-.726.33c-.066.066-.264.132-.33.198-.527.33-1.584.858-2.111 1.187a.5.5 0 0 0-.33.132c-.396.198-1.188.528-1.585.726-.065.066-.264.132-.395.198l-.792.33c-.065.066-.264.132-.396.198l-.726.265c-.066 0-.265.132-.396.132-.396.132-1.188.462-1.584.594s-1.188.396-1.65.528l-.726.33c-.066.066-.265.132-.33.198l-.66.33a.5.5 0 0 1-.265.132l-.594.33c-1.122 0-2.111.528-2.64 1.518l-.594.066c-.066 0-.133 0-.198.066-.528.066-1.584.198-2.046.264-1.187.066-2.31.198-3.432.198-.133.792-.265 1.65-.463 2.442-.047.532-.125.947-.33 2.046-.167.901-.112 1.907-.168 2.824-.059.963-.116 1.926-.157 2.891-.04.963-.066 1.927-.065 2.891.002.858-.14 1.688-.118 2.551.327.023.518.078.703.167.035-.464.076-.927.075-1.398-.002-.964.024-1.928.065-2.891a165 165 0 0 1 .156-2.891c.057-.916.002-1.923.169-2.824.205-1.099.283-1.515.33-2.046.198-.792.33-1.65.462-2.442 1.123 0 2.245-.132 3.433-.198.462-.066 1.518-.198 2.046-.264.065-.066.132-.066.197-.066l.595-.066c.527-.99 1.517-1.518 2.64-1.518l.594-.33a.5.5 0 0 0 .265-.132l.66-.33c.065-.066.264-.132.33-.198l.726-.33a50 50 0 0 0 1.65-.528c.395-.132 1.187-.462 1.584-.594.132 0 .329-.132.395-.132l.727-.264c.132-.066.33-.132.395-.198l.792-.33c.132-.067.33-.132.395-.198.396-.198 1.188-.528 1.585-.726a.5.5 0 0 1 .329-.132c.528-.33 1.585-.858 2.112-1.188.066-.066.264-.132.33-.198l.726-.33c.066-.065.265-.132.396-.198l.66-.33c.132-.066.33-.198.395-.198l.66-.33q.594-1.287 1.98-1.386l.462-.264a.5.5 0 0 0 .264-.132c.66-.33 1.32-.726 2.046-1.056.198-1.122 1.188-1.848 2.376-1.716h.462c0-.924.463-1.386 1.452-1.386a30 30 0 0 1 2.311-1.716c.065-.066.197-.132.264-.198l.462-.264c.066-.066.198-.132.265-.198.989-.66 1.914-1.32 2.903-1.914.066 0 .198-.066.198-.066l.462-.264c.462-.99 1.32-1.782 2.441-2.046.33-.198.99-.66 1.387-.924 0 0 .132-.066.198-.066.33-.264 1.056-.66 1.386-.858.132-.924.66-1.386 1.584-1.452.725-.528 1.452-1.056 2.244-1.519 0-.065.132-.132.198-.132l.461-.33c.396-.858 1.057-1.32 1.98-1.254l.462-.396c.066-.066.198-.132.265-.198.264-.198.857-.66 1.122-.924.065 0 .197-.132.264-.198l.396-.33c.462-1.122 1.584-1.914 2.838-1.848l.264-.462c0-.066.066-.132.066-.198.727-3.167.264-6.335-.066-9.504Z" class="cls-2"/><path d="m54.195 24.705 1.003 11.199c-1.199 4.96-2.425 9.514-3.51 14.542-1.559 7.223-2.962 14.903-4.699 21.748-1.908 7.516-4.411 14.276-6.332 21.376 0 0-12.202 18.519-12.202 30.922.043.043 0 4.346 0 4.346-2.099-.959-3.751-2.05-4.68-3.343 0 0-.134-1.728-.167-1.672 0-9.384 4.284-18.083 8.08-24.979 2.554-4.64 5.125-8.784 5.125-8.784 2.609-9.398 5.313-18.836 7.689-28.248 3.153-12.495 5.894-24.964 8.691-37.441l1.003.334Zm-32.087 93.647a13.8 13.8 0 0 0-.292 4.596.33.33 0 0 0 .656-.07 13 13 0 0 1 .278-4.376.33.33 0 1 0-.643-.149Zm10.7-8.174c-2.162 4.998-3.265 9.418-3.374 13.51a.33.33 0 0 0 .66.018c.106-4.006 1.192-8.345 3.32-13.266a.33.33 0 0 0-.606-.262m22.65-72.37L48.28 69.9a.33.33 0 1 0 .644.144l7.177-32.092a.33.33 0 1 0-.644-.144Zm1.56-8.591.495 7.178s3.053.825 4.868.825c9.322 0 9.874-8.212 15.632-13.569 3.606-3.355 10.603-4.828 13.929-4.828 2.449 0 4.623-.082 7.069-.082.753 0 4.463.004 6.191.004 9.731 0 17.209 4.381 25.887 9.731 10.484 6.466 19.964 14.566 26.155 20.719 3.929 3.904 6.645 7.216 7.024 8.238 1.76 4.749 10.316 13.22 21.944 19.057 3.712 1.864 7.559 3.044 11.791 4.119 3.184.808 6.816 1.324 9.494 3.307 1.506 1.115 2.54 1.902 3.93 3.165 11.538 10.482 19.336 25.38 19.336 25.38 1.465-.206 3.054-1.159 4.042-2.475 0 0-2.186-3.319-5.415-8.385-1.979-3.107-4.406-7.316-7.277-11.002-3.093-3.973-6.701-7.419-10.82-10.56-2.296-1.75-4.445-2.853-7.095-3.735-1.892-.63-4.235-1.148-6.171-1.71-3.968-1.152-7.905-2.616-11.319-4.207-9.438-4.4-15.821-11.223-18.067-15.262-1.739-3.128-3.549-5.585-10.231-12.211-5.625-5.577-13.617-11.743-22.108-17.407-9.238-6.162-15.592-12.21-30.195-12.21-5.346 0-16.005.165-17.325.165-6.375 0-11.958 3.725-15.345 7.507-4.414 4.932-4.207 10.23-10.477 10.23-2.805 0-5.94-1.98-5.94-1.98Zm176.853 70.136a.33.33 0 0 0-.186.428c1.461 3.729 2.104 6.805 1.968 9.405a.33.33 0 0 0 .659.035c.143-2.695-.517-5.862-2.013-9.681a.33.33 0 0 0-.428-.186Zm-3.319 14.92-7.527 5.689a.33.33 0 0 0 .399.526l7.527-5.689a.33.33 0 0 0-.399-.526M161.69 169.328c-1.635 0-2.615 2.614-2.615 4.794 0 5.448 5.665 12.965 10.678 12.965 2.724 0 6.973-.763 10.023-1.525 3.051-.763 6.755-6.538 6.755-8.825s.109-4.794-.544-7.082c-.339-1.187-1.325-2.379-2.483-3.726-1.073-1.249-1.797-2.702-3.291-2.702-1.656 0-2.397.423-2.397 1.089 0 1.09 5.666 5.993 5.666 10.569 0 1.256-.681 2.454-1.192 3.532-.701 1.48-1.812 3.132-3.594 3.995-1.647.798-3.87.863-6.872.863-3.051 0-9.411-3.141-9.208-9.207.047-1.375.491-1.797.491-2.669s-.435-2.07-1.416-2.07ZM186.255 181.658l-1.926 2.426 8.346 4.209.036-2.568z" class="cls-2"/><path d="M187.04 181.658h-.785l6.456 4.067z" class="cls-3"/><path d="M200.422 192.889c-.673-.616-1.006-1.315-1.719-1.315-.999 0-1.712.749-1.712 1.962s2.318 3.888 2.318 5.101c-1.926-.606-3.353-.571-4.245-.571-.285 0-.82.107-.82.464 0 .927 3.246 2.068 3.852 2.068s9.701.143 9.701.143-4.774-5.474-7.376-7.852ZM102.375 104.398c-14.891 0-28.89 5.447-35.326 8.368l-1.715 3.362s14.546-11.011 36.835-11.011c6.779 0 11.812 1.233 11.812 1.233s-.822-1.952-11.607-1.952Z" class="cls-2"/><path d="M68.656 115.032c-1.42.81-1.967 1.403-2.068 1.883l6.598-1.886c.818-1.128 2.091-1.804 3.34-2.498a225 225 0 0 0-7.87 2.501" class="cls-2"/><path d="M164.157 165.617c1.65-1.324 3.122-2.835 4.466-4.465 0 0 .51 3.164.51 6.685.358 0 .561-.664.561-1.021 1.531-3.164 1.411-5.494 2.391-7.034.917-1.444 2.476-1.131 2.917-2.408 0-.511-1.786-4.005-4.006-4.005-2.73 0-4.899 4.899-6.558 6.558 0-4.95 1.377-10.563 6.889-10.563 3.419 0 5.154 5.357 5.154 8.777 0 8.879-10.717 16.432-10.717 16.432zm-84.959 43.035c3.785 0 9.009-4.997 9.009-5.829-3.785.53-6.813-3.936-6.813-3.936 3.785 0 4.542.984 9.917.984 2.953 0 10.372-.984 10.372-.984-.969 1.399-3.196 2.911-5.981 4.467 0 0 5.602 5.45 6.889 5.45 3.823-.492 20.061-5.602 25.209-8.706-1.511-.403-3.589-2.122-5.069-1.213-1.984 1.218-4.585-.841-5.722-2.321-.568-.739-1.21-1.291-1.78-2.068-.319-.435-.34-.796-.888-.509-.693.363-.38 1.154-1.513.841-.769-.213-1.405-.888-1.997-1.386-.691-.582-1.417-1.123-2.086-1.729-.417-.378-.847-1.198-1.354-1.439-.558-.266-1.449-.112-2.079-.352a4.7 4.7 0 0 1-1.701-1.137c-1.118-1.159-2.158-1.227-3.686-.652-.937.352-1.887.767-2.893.863-.96.091-1.916-.103-2.875-.103-.686 0-1.46.096-2.136-.035-1.05-.204-2.025-.595-3.126-.646-1.541-.071-3.036 1.065-4.094 2.026-.472.428-.907.982-1.463 1.29-.467-.654.258-1.175.386-1.806.084-.412.027-.929.005-1.349-.918.217-1.313 1.235-1.671 2.032-1.015 2.265-2.479 4.386-5.169 4.658l-.719-1.022-4.618 5.829s3.861 8.781 7.646 8.781Zm44.534-14.952c-.277.091.056.522.16.605.274.217.524.498.771.749.299.306.612.635.966.869.385.253.714.363 1.164.384.143.007.343-.02.475.023.091.029.163.113.256.146.094.033.204.046.302.075.361.106.723.249 1.1.287.105.011.205 0 .309.03.195.056.25.129.394.259.219.199.486.26.759.332.217.058.426.108.653.11.124 0 .275 0 .396.033.35.101.681.403.35.728-.1.098-.219.194-.346.26-.123.064-.256.077-.383.14-.135.066-.241.143-.382.198-.164.065-.329.086-.498.145-.235.083-.467.205-.703.232-.25.029-.449.083-.686.187-.182.079-.211.165-.153.371.165.582.922.299 1.268.066.333-.223.691-.341 1.06-.477a7.3 7.3 0 0 0 1.203-.574c.446-.263.854-.584 1.303-.851.229-.135.507-.234.695-.42a.75.75 0 0 0 .198-.352c.021-.08.084-.316.032-.384-.054-.07-.31-.086-.397-.095-.185-.018-.381 0-.567 0-.237 0-.466.014-.698.03-.588.04-1.173.015-1.763.015-.269 0-.545.005-.811-.031-.21-.028-.383-.123-.568-.227a2.8 2.8 0 0 0-.769-.31c-.272-.067-.566-.136-.838-.229-.615-.21-1.173-.559-1.749-.851a8 8 0 0 1-1.1-.693c-.206-.153-.441-.26-.629-.433-.153-.14-.554-.42-.773-.349Zm-2.719 2.867c.171.186.401.547.679.542.048-.207-.271-.564-.383-.728-.117-.172-.654-.819-.91-.656-.27.174.517.738.614.842m-7.712-4.695c.094.16.111.22.293.229.146.007.465.052.578-.043.126-.106.073-.273-.076-.339-.201-.089-.424.009-.552-.198-.117-.188-.085-.533-.311-.618-.261-.099-.501.087-.432.367.064.261.371.381.5.601Zm-6.959-3.2c.071.187.28.152.415.254.119.089.117.216.184.328.055.092.288.294.397.168.066-.076-.065-.355-.1-.438-.061-.143-.195-.247-.245-.4-.098-.298-.003-.67-.343-.857-.42-.23-.384.746-.309.945Zm-40.123-4.5c4.901-4.745 11.72-7.601 19.589-9.379 0 0-3.863-2.785-5.58-4.867-.132-.499-.356-1.068-.356-2.493 0-4.986 3.087-18.758 3.087-18.758a39.2 39.2 0 0 0-5.224 5.343l-14.247 4.274v4.986c.206 5.145 1.055 9.65 2.612 13.415zm102.22-45.471v1.068s-6.411 3.325-6.411 5.936c0 2.636-.679 5.559-1.059 7.846-1.602 9.642-6.006 16.104-9.685 19.989-3.073 3.247-5.64 4.695-5.64 4.695-3.078 4.395-4.394 9.912-7.124 15.315l-7.48-1.662c-2.576-4.504-5.144-7.801-7.701-10.881 0 0-9.621-4.064-14.801-6.096 1.838-.173 3.625 0 3.625 0l3.621-4.809s-.934-1.84-1.84-1.84-1.543 2.73-1.543 2.73-.895.712-1.544.712c-2.589-.266-8.308-2.493-9.141-2.493s-9.617 4.512-9.617 4.512l-8.904-5.224 4.037-28.73v-13.534c4.995-3.933 12.207-6.877 22.16-9.753 3.766-1.088 11.201-3.425 12.981-3.425 3.434 0 6.546.995 9.833 1.88 3.945 1.062 8.614 2.455 11.537 3.682 3.734 1.568 5.223 2.868 5.223 2.868 6.514 6.014 13.007 11.676 19.471 17.215Zm-21.166.077s-3.12-8.588-12.87-11.715c-2.099-.673-4.14-1.32-6.93-1.32-2.888 0-29.453 4.537-29.453 4.537 2.048 1.502 3.479 3.778 3.795 7.425 0 0-.165 3.217-.165 4.455 0 2.805 2.887 4.537 2.887 4.537l.083-7.92s6.188-2.722 8.993-2.722c.603 0 1.606-.008 2.764-.018l.783.926s-.061.396-.742.578c-2.042.545-6.518.825-6.518 2.805 0 .247 0 1.073.495 1.073s.99-.66 2.475-.66c.578 0-1.477 3.477-1.32 4.703 0 0 1.815-2.723 9.652-2.723 5.61 0 5.362.66 10.56.66 7.425 0 9.074-3.382 9.074-3.382-4.958.866-11.789-.454-19.965-3.383l.057-.64a401 401 0 0 1 2.996-.019c3.63 0 23.348 2.805 23.348 2.805Zm-41.594 35.198s-2.266-.863-3.561-.863-8.093 3.183-8.093 3.183c4.11-.262 8.029-.979 11.653-2.32Zm8.841-61.186s-2.723-1.815-6.187-1.732c-2.051.059-6.029.89-10.395 1.567-4.25.66-8.853 1.153-13.365 2.31-3.539.907-6.719 2.27-9.57 3.217a434 434 0 0 1-8.993 2.888l-.495 9.157.908-.165c7.097-4.904 13.86-7.672 20.46-7.672 7.048-3.893 15.804-7.245 27.638-9.57Zm13.739-3.051c-5.935-1.324-12.92-2.876-21.366-2.876-12.707 0-30.821 5.657-38.237 8.169-1.42.81-1.967 1.403-2.068 1.883 0 0 4.925-1.41 11.55-3.3 2.456-.7 4.979-1.764 7.81-2.42 3.37-.781 7.201-1.062 10.56-1.65 3.808-.666 7.022-1.705 10.175-1.705 2.736 0 6.79.929 12.155 1.815 4.538.749 10.339 1.145 14.74 2.2 7.447 1.786 13.25 4.293 13.25 4.293-3.52-1.793-9.693-4.43-18.568-6.408Zm48.275 32.15c-.228-1.799-1.216-2.976-1.496-4.478-.681-3.635.258-5.182-1.996-7.437 0 0 .514 3.184.514 4.519 0 2.157 2.979 7.395 2.979 7.395Z" style="fill:#ffd0c0"/><path d="M176.542 167.361c.181-.359.255-.799.739-.849.29-.03.637.22.827.436.162.185.23.468.367.675.364.55.776.949 1.212 1.441.319.36.508.76.795 1.146.768 1.033 1.086 2.264.989 3.544-.054.718-.626 1.408-.851 2.086-.109.33-.099.642-.149.989-.054.382-.246.69-.433 1.035-.562 1.038-1.445 1.637-2.272 2.44-.353.343-.977.541-1.397.787-.212.123-.468.116-.682.202-.253.101-.441.269-.666.417-.604.395-.941.74-1.683.825-.894.102-1.756.077-2.601-.273-.544-.226-.181-.468.196-.699.376-.231.742-.332 1.102-.555.916-.568 1.728-1.292 2.625-1.905.637-.435 1.423-.996 1.741-1.727.151-.348.131-.847-.366-.815-.411.027-.694.594-.989.824-.442.344-.917.656-1.368.988-.685.504-1.246 1.151-1.905 1.688-.447.364-1.26 1.048-1.868 1.022-.433-.019-.204-.47-.034-.777.357-.646.952-1.284 1.478-1.821.795-.81 1.854-1.263 2.69-2.017.751-.676 1.319-1.618 1.982-2.375.692-.792 1.487-1.523 2.122-2.363.309-.41.595-.957.667-1.48.066-.477-.248-.815-.264-1.289-.308-.163-1.054-.309-1.257.105-.113.232.032.647-.06.915-.135.393-.491.688-.676 1.054-.226.448-.149.936-.38 1.397-.261.52-.7.749-1.029 1.194-.223.302-.367.621-.626.904-.244.268-.425.563-.671.802-.296.288-.751.242-1.134.19-.024-.296.268-.552.409-.795.223-.38.413-.778.612-1.178.458-.926.786-1.872 1.266-2.78.202-.381.569-.682.74-1.074.157-.36.169-.789.221-1.175.046-.345.229-.593.402-.858q.096-.142.177-.3Zm-5.455 21.164c-.604 0-.495 1.1-.495 1.76 0 3.626 2.422 9.644 4.016 15.814 1.34 5.186 2.336 10.995 4.372 15.068 2.155 4.311 5.413 6.738 9.158 6.738 2.034 0 1.724.71 2.632 1.045.602.223 1.201-.048 1.755.385 1.585 1.24 2.817 3.245 2.817 3.245l5.556.44s-1.852-.841-3.465-2.216c-1.036-.882-1.642-1.984-2.691-3.225-1.124-1.329-2.103-3.459-2.855-4.789-1.004-1.775-1.604-2.621-1.604-3.025 0-1.375-4.294-2.71-7.205-7.48-1.566-2.565-2.43-5.623-3.52-8.349-1.019-2.551-1.211-3.641-3.08-7.271l.165 7.645s-4.235-12.76-4.235-15.015c0-.385-.716-.77-1.32-.77Zm21.176 23.815 3.52 10.45-4.098-4.098c1.357 7.281 7.234 12.796 13.723 15.317-1.053-8.251-6.263-15.233-13.145-21.67Zm-15.729-70.451c-3.938-3.333-7.769-6.836-11.399-10.58l-14.793-13.147s-7.299-5.127-22.082-8.422c-5.935-1.324-12.92-2.876-21.366-2.876-16.331 0-41.601 9.347-41.601 9.347l.042-.082 2.526-4.951s13.457-9.655 46.529-9.655c10.766 0 19.765 1.682 27.218 4.229 1.871.64 3.355 2.104 4.73 3.064 2.839 1.983 5.002 3.787 7.703 5.546 3.367 2.193 6.421 4.168 8.936 6.163 6.598 5.234 10.064 9.45 10.064 9.45s.514 3.184.514 4.519c0 2.157 2.979 7.395 2.979 7.395m-62.552-35.539s-5.033-1.233-11.812-1.233c-15.263 0-26.893 5.162-32.709 8.417.041-.015 21.888-7.904 32.607-7.904 2.801 0 11.915.719 11.915.719Zm40.878 5.453c-2.382-1.251-3.545-1.406-3.545-1.406l19.636 13.035s-4.373-3.795-8.993-7.095c-2.098-1.498-5.117-3.493-7.098-4.534" class="cls-3"/><path d="M86.162 32.793c.145.136.288.271.415.426.322.392.617.785.971 1.143.396.4.787.816 1.088 1.294.459.728.955 1.435 1.523 2.075.256.29.504.588.791.856.308.288.665.51.987.772.724.588 1.503 1.182 2.148 1.863.133.14.237.321.378.465.145.146.338.272.464.428.192.235.165.508.165.796 0 .277.026.532.048.795.029.349-.22.604-.314.924-.246.012-.323.148-.595.1-.133-.023-.233-.04-.357-.112-.294-.17-.486-.486-.676-.75-.182-.252-.45-.464-.632-.744-.156-.24-.357-.462-.519-.694-.383-.551-.891-1.157-1.502-1.438-.757-.347-1.526-.677-2.275-1.041-.405-.198-.746-.427-1.13-.67-.876-.558-2.111-.599-2.9-1.317-.24-.219-.592-.513-.719-.823-.231-.561.39-.568.701-.79.178-.127.281-.426.448-.611.187-.206.404-.345.452-.64.094-.579-.003-1.1-.389-1.527-.229-.254-.398-.466-.155-.773.285-.359 1.271-.3 1.584-.007m38.49.935c-.423.772-.737 1.599-1.162 2.368-.953 1.722-2.098 3.394-3.186 5.057-.42.643-.875 1.301-1.397 1.861-.291.311-.495.696-.761 1.035-.223.284-.539.402-.799.644-.284.265-.478.505-.409.926.06.366-.063.814.027 1.162a.553.553 0 0 0 .841.308c.204-.139.36-.372.512-.556.355-.427.734-.877 1.203-1.208.459-.325.952-.553 1.434-.851.263-.162.451-.384.739-.541.891-.488 1.294-1.561 2.01-2.278.293-.294.582-.498.948-.695.313-.168.725-.416 1.053-.5.716-.185 1.593.053 2.335-.005s1.408-.56 1.407-1.356c0-.804-.151-1.329-.849-1.757-.563-.346-.977-.636-1.142-1.324-.105-.436.01-.945-.013-1.391-.027-.566-.188-1.046-.548-1.489-.089-.109-.152-.237-.252-.337-.304-.305-.851-.409-1.198-.166-.368.259-.582.711-.792 1.095Zm-9.277 28.828a.3.3 0 0 1-.042.051c-.308.302-1.107-.12-.963.604.082.413.461.748.697 1.077.569.795 1.312 1.449 1.914 2.214.287.365.569.742.869 1.098.187.221.417.364.591.59.144.188.25.397.413.567.367.38.81.68 1.196 1.039.217.203.352.456.568.658.184.171.38.336.559.513.565.56 1.237 1.065 1.743 1.695.18.223.989 1.203 1.14.566.128-.537-.22-1.223.643-1.222.426 0 .414.093.672.367.208.22.473.368.674.595.235.266.419.57.674.82.26.254.649.309.996.321.283.009.75-.106.932.193.174.285.083.743.037 1.054-.061.409-.096.836-.282 1.213-.213.431-.279 1.473-.908 1.289-.401-.118-.938-.306-1.309-.507-.26-.141-.433-.33-.745-.33.139.208.352.431.54.592.231.199.25.315.292.604.048.329.036.681.105 1.004.141.659 1.281 1.504 1.954 1.431.283-.032.636-.268.804-.499.312-.43.176-1.36.153-1.88-.017-.371-.063-.59.185-.902.229-.286.719-.582.829-.924.126-.392.013-.986.052-1.404.033-.355.096-.713.02-1.069-.155-.728-.713-.842-1.258-1.232-1.158-.829-2.522-1.344-3.78-2.01-.527-.279-1.114-.492-1.6-.86-.543-.412-1.202-.742-1.653-1.261-.906-1.042-1.89-1.886-2.924-2.797-.279-.247-.519-.611-.82-.82-.296-.206-.655-.261-.952-.514-.282-.239-.399-.539-.622-.822-.171-.217-.3-.478-.448-.711-.183-.288-.216-.956-.746-.661-.12.066-.132.175-.198.269Zm-20.241 2.107c-.623.427-1.095 1.008-1.652 1.509-.676.609-1.285 1.197-2.04 1.705-1.346.904-2.431 2.088-3.72 3.123-.222.178-.503.293-.718.495-.209.196-.307.451-.52.631-.357.301-.924.466-1.348.686-.815.422-1.662.747-2.5 1.107-.313.134-.698.143-.994.298-.514.269-1.036.969-1.229 1.5-.164.452-.157 1.424.36 1.669.175.082.441.038.629.109.199.076.359.202.518.337.241.206.364.384.493.681.067.154.232.344.273.485.039.133-.029.291.009.425.044.16.27.543.436.615.12.052.251-.002.364.058s.148.183.293.253c.184.089.709.155.909.076.271-.108.255-.455.091-.658-.214-.267-.66-.309-.938-.496-.485-.325-.699-.865-1.133-1.252-.318-.284-.137-.43-.243-.791-.104-.356-.494-.445-.629-.762-.169-.399.07-.519.339-.748.107-.091.25-.184.348-.284.104-.106.144-.264.244-.359.105-.099.305-.158.45-.167.297-.017.339.109.56.235.351.201.982.135 1.322-.077.606-.376 1.132-1.022 1.607-1.538.256-.278.542-.608.771-.903.252-.325.497-.816.938-.943.361-.104.395.073.576.286.181.214.406.306.679.33.637.056.621-.279.857-.728.26-.493.663-.962 1.078-1.33.29-.257.454-.604.733-.835.299-.248.572-.402.828-.695.089-.102.153-.21.232-.313.137-.179.328-.3.521-.455.258-.207.455-.464.711-.667.497-.393 1.036-.735 1.524-1.126.288-.231.346-.549.601-.805.256-.258.605-.433.773-.77.054-.11.134-.193.088-.337-.064-.204-.083-.082-.269-.149-.184-.067-.203-.029-.329-.206-.133-.188-.087-.323-.398-.28-.306.042-.435.32-.631.514-.248.244-.583.352-.866.547Zm3.907 3.89c0 .619.285.923.753 1.317.626.525 1.217 1.089 1.826 1.631.284.253.633.456.889.734.192.209.358.472.652.564.299.648 1.198.464 1.764.514.383.033.761.068 1.145.068.436 0 .72-.122 1.122-.249.679-.214 1.159-.644 1.78-.978.672-.361 1.431-.734 1.669-1.532.191-.64.141-1.13-.012-1.747-.053-.215-.069-.446-.263-.572-.201-.13-.545-.134-.782-.146-.254-.013-.452-.036-.627.153-.178.192-.358.397-.523.601-.101.124-.175.318-.338.37-.126.04-.458.027-.585.002-.268-.055-.444-.32-.695-.415-.287-.108-.583-.009-.812.181-.239.2-.384.165-.689.183-.285.016-.564.109-.849.07a5 5 0 0 0-.722-.061c-.52 0-1.143.002-1.579-.326-.235-.177-.361-.647-.61-.733-.2-.069-.468.046-.676-.004-.275-.065-.389-.23-.496-.459-.133-.284-.29-.662-.576-.824-.219-.124-.697-.306-.799.036-.059.196.016.539.021.747q.01.438.012.876Zm.03-2.451c.092.101.42.057.552.051.205-.009-.2-.675-.26-.734-.417-.408-.459.5-.292.684Zm15.889-6.398c-.398.075-.811.214-1.217.249-.53.046-1.012-.022-1.524.105-.452.113-.654.136-.956.512-.255.316-.583.55-.821.873-.238.324-.302.733-.558 1.079-.325.44-.676.866-1.073 1.257-.204.201-.411.43-.633.621-.345.297-.773.37-1.182.546-.451.195-.686.174-1.178.081-.522-.1-1.082-.083-1.594-.206-.501-.12-.581-.545-.939-.802-.367-.264-.928-.157-1.349-.215-.163-.252-.318-.506-.492-.757-.263-.377-.609-.598-.973-.914-.49-.425-.848-.901-1.568-.931-.339-.014-.625.152-.944.201a2.6 2.6 0 0 1-.964-.025c-.605-.124-.697-.432-.695-1.069.002-.84.081-1.709.271-2.52.169-.723.223-1.462.703-2.04.415-.498.701-1.237.485-1.878-.136-.405-.552-.635-.669-1.043-.077-.268-.002-.562-.089-.825-.013-.039-.234-.49-.262-.492-.612-.025-.264.18-.576.414-.291.217-.467-.14-.546-.348-.111-.295-.064-.611-.081-.948-.02-.426-.153-.813-.097-1.251.052-.41.253-.772.349-1.164.085-.35.105-.7.191-1.052a3.4 3.4 0 0 1 .504-1.147c.798-1.184 1.411-2.559 2.536-3.509.978-.826 2.268-1.084 3.305-1.77 1.278-.846 2.704-.985 4.185-.697.491.096.97.264 1.462.354.595.109 1.03.168 1.564.516.562.366 1.004.798 1.51 1.241.726.635 1.496 1.25 2.14 1.981.605.685 1.102 1.264 1.466 2.102.175.402.421.773.488 1.21.056.374.017.767.036 1.146.018.394.085.755-.242.99-.326.234-.648.223-.942.498-.391.366-.619.541-.625 1.084-.004.375.015.748.035 1.112.026.48-.336.745-.452.174-.073-.364-.097-.594-.277-.931-.301-.564-.673-1.129-1.255-1.46-.591-.337-1.479-.133-2.05.097-.58.234-1.269.666-1.668 1.139-.245.29-.299.631-.408.982-.091.295-.254.578-.353.868-.257.753-.709 1.123-.462 1.94.17.562.13 1.386-.444 1.737-.364.223-.45.192-.59.562-.096.255-.259.431-.425.651-.363.482-.92 1.158-.966 1.783-.048.656.047 1.266.208 1.869.124.465.043 1.06.577 1.263.363.138.977.052 1.376.031.302-.016.802-.029 1.029-.24.282-.262.318-.835.321-1.192.006-.78.065-1.577.003-2.355-.036-.452.084-1.132.72-.76-.047.324.306.214.486.313.206.114.214.284.493.306.307.024.478-.142.653-.349.166-.197.482-.398.716-.496.288-.12.629-.03.912-.168.017-.009.084-.45.108-.51.08-.196.205-.359.341-.519.272-.321.672-.604.815-1.015.161-.464-.241-1.445.279-1.709.298.407.317.782.519 1.221.337.73.931 1.189 1.497 1.739.308.298.556.612.589 1.039.05.636-.006 1.285-.734 1.422Zm-11.014-1.49c.564-.593.456-1.2.661-1.937.211-.761.393-1.384.114-2.137-.122-.326-.153-.697-.332-1.01-.163-.284-.406-.539-.6-.799-.431-.578-1.004-1.015-1.458-1.559-.406-.486-.531-.888-1.219-.818-.632.063-1.19.151-1.589.701-.432.594-.675 1.357-.887 2.093-.194.673-.078 1.5-.078 2.2 0 .362-.042.755.025 1.109.104.552.539.996.846 1.459.257.386.438.725.864.974.541.316.965.533 1.569.621.974.141 1.46-.241 2.083-.896Z" class="cls-2"/></svg>