<?xml version="1.0" encoding="UTF-8" standalone="no"?>
<svg
   xml:space="preserve"
   width="172.75156"
   height="268.05002"
   viewBox="0 0 45.706889 70.921261"
   version="1.1"
   id="svg22"
   xmlns="http://www.w3.org/2000/svg"
   xmlns:svg="http://www.w3.org/2000/svg"><defs
     id="defs8"><linearGradient
       id="b"
       x1="0"
       x2="1"
       y1="0"
       y2="0"
       gradientTransform="matrix(39.03276,0,0,-39.03276,3602.812,1974.39)"
       gradientUnits="userSpaceOnUse"
       spreadMethod="pad"><stop
         offset="0"
         style="stop-opacity:1;stop-color:#31ecff"
         id="stop1" /><stop
         offset=".567"
         style="stop-opacity:1;stop-color:#0373ff"
         id="stop2" /><stop
         offset=".812"
         style="stop-opacity:1;stop-color:#0373ff"
         id="stop3" /><stop
         offset="1"
         style="stop-opacity:1;stop-color:#0373ff"
         id="stop4" /></linearGradient><linearGradient
       id="c"
       x1="0"
       x2="1"
       y1="0"
       y2="0"
       gradientTransform="matrix(-34.81145,-95.643672,-95.643672,34.81145,3651.2171,2069.8464)"
       gradientUnits="userSpaceOnUse"
       spreadMethod="pad"><stop
         offset="0"
         style="stop-opacity:1;stop-color:#31ecff"
         id="stop5" /><stop
         offset=".561"
         style="stop-opacity:1;stop-color:#0373ff"
         id="stop6" /><stop
         offset=".803"
         style="stop-opacity:1;stop-color:#0373ff"
         id="stop7" /><stop
         offset="1"
         style="stop-opacity:1;stop-color:#0373ff"
         id="stop8" /></linearGradient><clipPath
       id="a"
       clipPathUnits="userSpaceOnUse"><path
         d="M 0,2160 H 3840 V 0 H 0 Z"
         id="path8" /></clipPath></defs><g
     clip-path="url(#a)"
     style="display:inline"
     transform="matrix(0.44962,0,0,-0.44962,-1605.8192,933.0811)"
     id="g20"><path
       d="m 0,0 c -0.122,0.121 -0.183,0.334 -0.031,0.517 l 2.31,2.644 c 0.122,0.152 0.304,0.152 0.456,0.03 1.368,-1.094 3.222,-2.127 5.41,-2.127 2.158,0 3.374,1.002 3.374,2.462 0,1.215 -0.729,1.975 -3.191,2.309 L 7.233,5.988 C 3.039,6.565 0.699,8.54 0.699,12.187 c 0,3.8 2.857,6.323 7.325,6.323 2.735,0 5.289,-0.821 7.021,-2.158 0.182,-0.122 0.213,-0.244 0.061,-0.456 l -1.854,-2.767 c -0.122,-0.151 -0.274,-0.182 -0.426,-0.09 -1.58,1.033 -3.1,1.58 -4.802,1.58 -1.824,0 -2.766,-0.942 -2.766,-2.249 0,-1.185 0.851,-1.945 3.221,-2.279 L 9.574,9.938 c 4.255,-0.577 6.505,-2.522 6.505,-6.261 0,-3.738 -2.766,-6.503 -8.116,-6.503 C 4.741,-2.826 1.61,-1.55 0,0"
       style="fill:#1a1659;fill-opacity:1;fill-rule:nonzero;stroke:none"
       transform="translate(3571.624,1935.2)"
       id="path10" /><path
       d="M 0,0 C 0,0.182 0.122,0.303 0.304,0.303 H 13.555 C 13.738,0.303 13.86,0.182 13.86,0 v -3.252 c 0,-0.183 -0.122,-0.304 -0.305,-0.304 H 4.65 c -0.122,0 -0.182,-0.061 -0.182,-0.183 v -4.103 c 0,-0.122 0.06,-0.182 0.182,-0.182 h 7.416 c 0.182,0 0.304,-0.122 0.304,-0.304 v -3.222 c 0,-0.182 -0.122,-0.304 -0.304,-0.304 H 4.65 c -0.122,0 -0.182,-0.061 -0.182,-0.182 v -4.286 c 0,-0.121 0.06,-0.182 0.182,-0.182 h 8.905 c 0.183,0 0.305,-0.122 0.305,-0.303 v -3.253 c 0,-0.182 -0.122,-0.304 -0.305,-0.304 H 0.304 C 0.122,-20.364 0,-20.242 0,-20.06 Z"
       style="fill:#1a1659;fill-opacity:1;fill-rule:nonzero;stroke:none"
       transform="translate(3590.103,1953.072)"
       id="path11" /><path
       d="m 0,0 c 0,1.55 -1.094,2.553 -2.796,2.553 h -3.647 c -0.122,0 -0.183,-0.061 -0.183,-0.183 v -4.772 c 0,-0.121 0.061,-0.182 0.183,-0.182 h 3.647 C -1.094,-2.584 0,-1.581 0,0 m 0.334,-14.254 c -0.273,0 -0.365,0.09 -0.456,0.304 l -3.556,7.567 h -2.765 c -0.122,0 -0.183,-0.06 -0.183,-0.182 v -7.385 c 0,-0.183 -0.122,-0.304 -0.304,-0.304 h -3.86 c -0.182,0 -0.304,0.121 -0.304,0.304 V 6.109 c 0,0.182 0.122,0.304 0.304,0.304 h 8.237 c 4.224,0 7.02,-2.644 7.02,-6.413 0,-2.645 -1.398,-4.742 -3.677,-5.745 l 4.073,-8.145 c 0.09,-0.182 0,-0.364 -0.213,-0.364 z"
       style="fill:#1a1659;fill-opacity:1;fill-rule:nonzero;stroke:none"
       transform="translate(3617.761,1946.963)"
       id="path12" /><path
       d="m 0,0 c 0,0.182 0.122,0.303 0.304,0.303 h 3.86 C 4.347,0.303 4.468,0.182 4.468,0 v -20.06 c 0,-0.182 -0.121,-0.304 -0.304,-0.304 H 0.304 C 0.122,-20.364 0,-20.242 0,-20.06 Z"
       style="fill:#1a1659;fill-opacity:1;fill-rule:nonzero;stroke:none"
       transform="translate(3625.025,1953.072)"
       id="path13" /><path
       d="M 0,0 C 0,0.182 0.121,0.303 0.304,0.303 H 13.555 C 13.738,0.303 13.86,0.182 13.86,0 v -3.252 c 0,-0.183 -0.122,-0.304 -0.305,-0.304 H 4.65 c -0.121,0 -0.182,-0.061 -0.182,-0.183 v -4.103 c 0,-0.122 0.061,-0.182 0.182,-0.182 h 7.416 c 0.182,0 0.304,-0.122 0.304,-0.304 v -3.222 c 0,-0.182 -0.122,-0.304 -0.304,-0.304 H 4.65 c -0.121,0 -0.182,-0.061 -0.182,-0.182 v -4.286 c 0,-0.121 0.061,-0.182 0.182,-0.182 h 8.905 c 0.183,0 0.305,-0.122 0.305,-0.303 v -3.253 c 0,-0.182 -0.122,-0.304 -0.305,-0.304 H 0.304 C 0.121,-20.364 0,-20.242 0,-20.06 Z"
       style="fill:#1a1659;fill-opacity:1;fill-rule:nonzero;stroke:none"
       transform="translate(3632.836,1953.072)"
       id="path14" /><path
       d="M 0,0 -2.34,7.234 H -2.431 L -4.772,0 Z m -4.65,12.644 c 0.061,0.181 0.182,0.303 0.395,0.303 h 3.83 c 0.213,0 0.334,-0.122 0.394,-0.303 l 6.99,-20.06 c 0.062,-0.183 0,-0.304 -0.212,-0.304 H 2.796 c -0.213,0 -0.334,0.091 -0.394,0.304 L 1.216,-3.8 H -6.018 L -7.173,-7.416 C -7.234,-7.629 -7.355,-7.72 -7.568,-7.72 h -3.982 c -0.213,0 -0.273,0.121 -0.213,0.304 z"
       style="fill:#1a1659;fill-opacity:1;fill-rule:nonzero;stroke:none"
       transform="translate(3666.178,1940.428)"
       id="path15" /><path
       d="m 3571.952,1925.119 h 33.586 v -7.589 h -33.586 z"
       style="fill:#00a445;fill-opacity:1;fill-rule:nonzero;stroke:none"
       id="path16" /><path
       d="m 3605.539,1925.119 h 33.586 v -7.589 h -33.586 z"
       style="fill:#e3e3e2;fill-opacity:1;fill-rule:nonzero;stroke:none"
       id="path17" /><path
       d="m 3639.125,1925.119 h 33.586 v -7.589 h -33.586 z"
       style="fill:#db052c;fill-opacity:1;fill-rule:nonzero;stroke:none"
       id="path18" /><path
       d="M 0,0 19.514,51.531 27.94,29.28 H 17.302 L 10.047,10.12 H 35.196 L 39.028,0 Z"
       style="fill:#1a1659;fill-opacity:1;fill-rule:nonzero;stroke:none"
       transform="translate(3602.817,1990.353)"
       id="path19" /><path
       d="M 0,0 50.379,31.925 H 19.514 Z m 0,0 -50.379,31.925 h 30.865 z"
       style="fill:#1a1659;fill-opacity:1;fill-rule:nonzero;stroke:none"
       transform="translate(3622.331,1958.428)"
       id="path20" /></g><g
     style="display:inline"
     id="g21"
     transform="translate(-8.9142177,-4.5539012)"><path
       d="m 3602.812,1990.353 19.519,-31.926 19.514,31.926 z"
       style="fill:url(#b);stroke:none"
       transform="matrix(0.44962,0,0,-0.44962,-1596.905,937.635)"
       id="path21" /></g><g
     style="display:inline"
     id="g22"
     transform="translate(-8.9142177,-4.5539012)"><path
       d="m 3608.416,2075.266 -36.464,-84.914 h 30.865 l 19.514,51.532 8.426,-22.251 h -10.637 l -7.256,-19.161 h 25.149 l 3.832,-10.12 h 30.865 l -36.464,84.914 z"
       style="fill:url(#c);stroke:none"
       transform="matrix(0.44962,0,0,-0.44962,-1596.905,937.635)"
       id="path22" /></g></svg>
